<svg xmlns="http://www.w3.org/2000/svg" viewBox="0 0 611.4 277.11"><defs><style>.cls-1{font-size:246px;font-family:Roboto-Light, Roboto;font-weight:300;}.cls-1,.cls-12{fill:#0097d9;}.cls-2{fill:#51abed;}.cls-3{fill:#239fe2;}.cls-4{fill:#66b7f3;}.cls-5{fill:#38a9e7;}.cls-6{fill:#7ac4f9;}.cls-7{fill:#5cb8f2;}.cls-8{fill:#8fd0ff;}.cls-9{fill:#ab332b;}.cls-10{fill:#d8392e;}.cls-11{fill:#fff;}</style></defs><title>MIQA Logo with name -1</title><g id="Layer_2" data-name="Layer 2"><g id="Miqa"><text class="cls-1" transform="translate(0 210.45)"><tspan xml:space="preserve">MI   A</tspan></text><g id="mark"><g id="brain"><path id="_4" data-name="4" class="cls-2" d="M355.36,153a108.45,108.45,0,0,1,.26,11.24c-.32,9.16-1.92,12.64-.87,18.1.81,7.59,1.53,23.69-.29,27.14-1.51,2.83-4.47,3.11-6.85,4-3.15,1.21-7.68,1.18-12.28.5q-.65-.09-1.29-.21l-.43-.07-.86-.17c-.43-.08-.85-.17-1.27-.27l-.85-.19-.83-.2-.83-.22-.81-.22-.79-.23c-1.05-.32-2.06-.65-3-1l-.69-.27-1.09-.43-.53-.23h0c-.4-.18-.79-.36-1.15-.54s-.87-.45-1.24-.68l-.44-.26c-.34-.23-.63-.45-.89-.66-7.63-6.39-12-8.65-18.52-12.82l-.32-.23c-.1-.06-.2-.14-.3-.21l-.13-.11a14.34,14.34,0,0,1-1.58-1.48l-.34-.35s0,0,0,0l-.06-.07c-3.41-3.84-6.56-10-8.63-13.74-2.32-4.44-4.66-7.31-6.38-12.06-.22-.54-.42-1.06-.6-1.59-.12-.32-.22-.65-.33-1l-.12-.4-.24-.82c0-.17-.09-.35-.14-.52h0c0-.18-.09-.35-.13-.52l-.12-.52c-.22-1-.39-1.91-.52-2.84l-.06-.46-.06-.45c0-.11,0-.22,0-.34s0-.28,0-.42l0-.29a2.64,2.64,0,0,1,0-.29c0-.47-.08-.94-.1-1.4,0-.16,0-.31,0-.47,0-.48-.05-1-.06-1.45,0-.32,0-.64,0-1-.07-5.25.31-10.53-.88-16.88a47,47,0,0,1-.63-6.33,89.91,89.91,0,0,1,2.33-21.86,21.59,21.59,0,0,0,2.21,6,29.15,29.15,0,0,0,1.75,2.87c.39.58.82,1.18,1.28,1.8l.47.63a82.52,82.52,0,0,0,6.18,7l1.82,1.85c.75.72,1.5,1.44,2.24,2.1a65.28,65.28,0,0,0,13.53,9.43c.45.23.9.47,1.36.69a72.17,72.17,0,0,0,8.39,3.48c1.27.44,2.57.86,3.89,1.22,2.33.66,4.7,1.24,7.16,1.74l1.14.23,2.14.4c4.69.85,9.33,1.46,13.95,1.83l.26,0c1,.08,2,.14,3.05.2s2.1.11,3.15.14l1,0C355.24,150.27,355.31,151.64,355.36,153Z"/><path id="_3s" data-name="3s" class="cls-3" d="M355.36,153c-.05-1.34-.12-2.71-.19-4.11l-1,0c-1,0-2.1-.09-3.15-.14s-2-.12-3.05-.2l-.26,0c-4.62-.37-9.26-1-13.95-1.83l-2.14-.4-1.14-.23c-2.46-.5-4.83-1.08-7.16-1.74-1.32-.36-2.62-.78-3.89-1.22a72.17,72.17,0,0,1-8.39-3.48c-.46-.22-.91-.46-1.36-.69a65.28,65.28,0,0,1-13.53-9.43c-.74-.66-1.49-1.38-2.24-2.1l-1.82-1.85a82.52,82.52,0,0,1-6.18-7l-.47-.63c-.46-.62-.89-1.22-1.28-1.8a29.15,29.15,0,0,1-1.75-2.87,21.59,21.59,0,0,1-2.21-6,89.91,89.91,0,0,0-2.33,21.86,47,47,0,0,0,.63,6.33c1.19,6.35.81,11.63.88,16.88,0,.33,0,.65,0,1,0,.49,0,1,.06,1.45,0,.16,0,.31,0,.47,0,.46.06.93.1,1.4a2.64,2.64,0,0,0,0,.29l0,.29c0,.14,0,.28,0,.42s0,.23,0,.34l.06.45.06.46c.13.93.3,1.88.52,2.84l.12.52c0,.17.09.34.13.52h0c.05.17.09.35.14.52l.24.82.12.4c.11.32.21.65.33,1,.18.53.38,1.05.6,1.59,1.72,4.75,4.06,7.62,6.38,12.06,2.07,3.77,5.22,9.9,8.63,13.74l.06.07s0,0,0,0l.34.35a14.34,14.34,0,0,0,1.58,1.48l.13.11c.1.07.2.15.3.21l.32.23c6.47,4.17,10.89,6.43,18.52,12.82.26.21.55.43.89.66l.44.26c.37.23.79.45,1.24.68s.75.36,1.15.54h0l.53.23,1.09.43.69.27c.94.35,1.95.68,3,1l.79.23.81.22.83.22.83.2.85.19c.42.1.84.19,1.27.27l.86.17.43.07q.65.12,1.29.21c4.6.68,9.13.71,12.28-.5,2.38-.92,5.34-1.2,6.85-4,1.82-3.45,1.1-19.55.29-27.14-1.05-5.46.55-8.94.87-18.1A108.45,108.45,0,0,0,355.36,153Zm-23,9.92c1.43,4.16.47,9.3,1.92,12.4h0a5,5,0,0,0,.38.68c.74,1.22,3.08,3.91,4.11,7.09a8.24,8.24,0,0,1,.1,5.29c-1.2,3.07-4.39,4.58-7.58,4.55a17.21,17.21,0,0,1-8.65-2.87c-4.31-2.21-14.15-6.38-13.46-16.86,0-1.85.66-4,.1-5.56a18.84,18.84,0,0,0-2.85-4.35,5.23,5.23,0,0,1-1.29-4c.44-2.37,3.46-3.24,5.83-1.3.86.62,3.72,3.74,5.77,1.91a5.38,5.38,0,0,0,1.09-1.66,4.36,4.36,0,0,1,3.58-2.3,10,10,0,0,1,10.08,5c.17.29.32.58.46.88A7.49,7.49,0,0,1,332.4,162.9Zm-35.35-25.39a19.64,19.64,0,0,1,1.39,5.56c.38,1.48,4.2,5.83,5.24,8.85a2.42,2.42,0,0,1-.07,2.35,1.84,1.84,0,0,1-1,.57c-2,.58-3.1-1.77-6.85-7.93l-.29-.48c-1.42-2.48-1.68-5.87-4.55-7.45a8.07,8.07,0,0,1-2.3-1.26c-1.73-1.25-1.71-3.1-.25-4l.23-.12C290.77,132.57,295.14,133.62,297.05,137.51Z"/><path id="_3" data-name="3" class="cls-4" d="M355.36,153c-.05-1.34-.12-2.71-.19-4.11l-1,0c-1,0-2.1-.09-3.15-.14s-2-.12-3.05-.2l-.26,0c-4.62-.37-9.26-1-13.95-1.83l-2.14-.4-1.14-.23c-2.46-.5-4.83-1.08-7.16-1.74-1.32-.36-2.62-.78-3.89-1.22a72.17,72.17,0,0,1-8.39-3.48c-.46-.22-.91-.46-1.36-.69a65.28,65.28,0,0,1-13.53-9.43c-.74-.66-1.49-1.38-2.24-2.1l-1.82-1.85a82.52,82.52,0,0,1-6.18-7l-.47-.63c-.46-.62-.89-1.22-1.28-1.8a29.15,29.15,0,0,1-1.75-2.87,21.59,21.59,0,0,1-2.21-6,89.91,89.91,0,0,0-2.33,21.86,47,47,0,0,0,.63,6.33c1.19,6.35.81,11.63.88,16.88,0,.33,0,.65,0,1,0,.49,0,1,.06,1.45,0,.16,0,.31,0,.47,0,.46.06.93.1,1.4a2.64,2.64,0,0,0,0,.29l0,.29c0,.14,0,.28,0,.42s0,.23,0,.34l.06.45.06.46c.13.93.3,1.88.52,2.84l.12.52c0,.17.09.34.13.52h0c.05.17.09.35.14.52l.24.82.12.4c.11.32.21.65.33,1s.2.63.31.95c1.72,5.07,4.06,7.94,6.38,12.38,2.13,3.87,5.39,10.25,8.92,14.06l.06.07s0,0,0,0h0l.33.35a14.34,14.34,0,0,0,1.58,1.48l.13.11c.1.07.2.15.3.21l.32.23c6.47,4.17,10.89,6.43,18.52,12.82.26.21.55.43.89.66l.44.26c.37.23.79.45,1.24.68s.75.36,1.15.54h0l.53.23,1.09.43.69.27c.94.35,1.95.68,3,1l.79.23.81.22.83.22.83.2.85.19c.42.1.84.19,1.27.27l.86.17.43.07q.65.12,1.29.21c4.6.68,9.13.71,12.28-.5,2.38-.92,5.34-1.2,6.85-4,1.82-3.45,1.1-19.55.29-27.14-1.05-5.46.55-8.94.87-18.1A108.45,108.45,0,0,0,355.36,153Zm-23.49,8.9a8.23,8.23,0,0,1,.53,1c1.76,3.9,1,8.93,1.92,12.4h0a6.46,6.46,0,0,0,.82,1.93,39.54,39.54,0,0,1,3.67,5.84,9.24,9.24,0,0,1,.64,6.83c-1.22,3.14-4.49,4.68-7.75,4.65a17.63,17.63,0,0,1-8.85-2.93c-4.42-2.26-14.49-6.87-13.78-17.6,0-1.89.54-3.93,0-5.51a18.17,18.17,0,0,0-2.83-4.3c-1.51-2-1.64-3.75-1-4.9.94-1.76,3.57-2.23,5.7-.5.87.64,3.8,3.83,5.89,2,.65-.51.87-1.48,1.55-2.37a4.68,4.68,0,0,1,3.24-1.68,10.2,10.2,0,0,1,10.29,5.13Zm-35.29-24a20.22,20.22,0,0,1,1.43,5.7c.34,1.33,3.45,5,4.89,7.94a5,5,0,0,1,.71,2.8,1.57,1.57,0,0,1-1.29,1.3c-2.08.6-3.24-1.93-7.31-8.6a9.33,9.33,0,0,1-.5-1c-1.07-2.39-1.59-5.22-4.16-6.63a8.37,8.37,0,0,1-2.36-1.29c-1.76-1.28-1.74-3.17-.25-4.1a3,3,0,0,1,.9-.36A7.48,7.48,0,0,1,296.58,137.83Z"/><path id="_2s" data-name="2s" class="cls-5" d="M355.36,153c-.05-1.34-.12-2.71-.19-4.11l-1,0c-1,0-2.1-.09-3.15-.14s-2-.12-3.05-.2l-.26,0c-4.62-.37-9.26-1-13.95-1.83l-2.14-.4a35.59,35.59,0,0,1-4.55-.63c-8-1.44-12.74-3.6-16-6-.46-.22-.91-.46-1.36-.69a65.28,65.28,0,0,1-13.53-9.43c-.74-.66-1.49-1.38-2.24-2.1l-1.82-1.85a82.52,82.52,0,0,1-6.18-7l-.47-.63c-.46-.62-.89-1.22-1.28-1.8a29.15,29.15,0,0,1-1.75-2.87,21.59,21.59,0,0,1-2.21-6,89.91,89.91,0,0,0-2.33,21.86,47,47,0,0,0,.63,6.33c1.19,6.35.81,11.63.88,16.88,0,.33,0,.65,0,1,0,.49,0,1,.06,1.45,0,.16,0,.31,0,.47,0,.46.06.93.1,1.4a2.64,2.64,0,0,0,0,.29l0,.29c0,.14,0,.28,0,.42s0,.23,0,.34l.06.45.06.46c.13.93.3,1.88.52,2.84l.12.52c0,.17.09.34.13.52h0c.05.17.09.35.14.52l.24.82.12.4c.11.32.21.65.33,1,.18.53.38,1.05.6,1.59,1.72,4.75,4.06,7.62,6.38,12.06,2.07,3.77,5.22,9.9,8.63,13.74l.06.07s0,0,0,0l.34.35a14.34,14.34,0,0,0,1.58,1.48l.13.11c.1.07.2.15.3.21l.32.23c6.47,4.17,10.89,6.43,18.52,12.82.26.21.55.43.89.66l.44.26c.37.23.79.45,1.24.68s.75.36,1.15.54h0l.53.23,1.09.43.69.27c.94.35,1.95.68,3,1l.79.23.81.22.83.22.83.2.85.19c.42.1.84.19,1.27.27l.86.17.43.07q.65.12,1.29.21c4.6.68,9.13.71,12.28-.5,2.38-.92,5.34-1.2,6.85-4,1.82-3.45,1.1-19.55.29-27.14-1.05-5.46.55-8.94.87-18.1A108.45,108.45,0,0,0,355.36,153ZM299.9,134.81c1.14,1.87,2.58,3.74,3.71,5.93a14.91,14.91,0,0,0,2,4.35c7.18,8.44,24.16-1.34,33.66,6.82a12.64,12.64,0,0,1,2.32,2.74,11.19,11.19,0,0,1,1.63,8.45c0,.15-.06.3-.1.44-.73,2.92-2.87,5.56-2.9,8.51-.06,5.89,6.3,14.85,5.65,20.73-.32,3.09-3.26,6.47-9.95,6.7-14.83.47-31.2-13.34-31.15-18.92h0c0-1.25.65-2.38.95-3.87a8.91,8.91,0,0,0-1-5.89c-2.85-5.91-10.13-8.27-12.68-14.19-1.42-3.11-.11-7.23-1.24-10.34a73.17,73.17,0,0,0-3.74-6.39c-2-3.41-3.4-7-.76-10.17a4.2,4.2,0,0,1,2.59-1.53C291.87,127.56,296.37,129.14,299.9,134.81Z"/><path id="_2" data-name="2" class="cls-6" d="M355.36,153c-.05-1.34-.12-2.71-.19-4.11l-1,0c-1,0-2.1-.09-3.15-.14s-2-.12-3.05-.2l-.26,0c-4.62-.37-9.26-1-13.95-1.83a24.9,24.9,0,0,1-6.5-.61c-9.19-1.67-14.2-4.27-17.58-7.15a65.28,65.28,0,0,1-13.53-9.43c-.74-.66-1.49-1.38-2.24-2.1l-1.82-1.85a82.52,82.52,0,0,1-6.18-7l-.47-.63c-.46-.62-.89-1.22-1.28-1.8a29.15,29.15,0,0,1-1.75-2.87,21.59,21.59,0,0,1-2.21-6,89.91,89.91,0,0,0-2.33,21.86,47,47,0,0,0,.63,6.33c1.19,6.35.81,11.63.88,16.88,0,.33,0,.65,0,1,0,.49,0,1,.06,1.45,0,.16,0,.31,0,.47,0,.46.06.93.1,1.4a2.64,2.64,0,0,0,0,.29l0,.29c0,.14,0,.28,0,.42s0,.23,0,.34l.06.45.06.46c.13.93.3,1.88.52,2.84l.12.52c0,.17.09.34.13.52h0c.05.17.09.35.14.52l.24.82.12.4c.11.32.21.65.33,1s.2.63.31.95c1.72,5.07,4.06,7.94,6.38,12.38,2.13,3.87,5.39,10.25,8.92,14.06l.06.07s0,0,0,0h0l.33.35a14.34,14.34,0,0,0,1.58,1.48l.13.11c.1.07.2.15.3.21l.32.23c6.47,4.17,10.89,6.43,18.52,12.82.26.21.55.43.89.66l.44.26c.37.23.79.45,1.24.68s.75.36,1.15.54h0l.53.23,1.09.43.69.27c.94.35,1.95.68,3,1l.79.23.81.22.83.22.83.2.85.19c.42.1.84.19,1.27.27l.86.17.43.07q.65.12,1.29.21c4.6.68,9.13.71,12.28-.5,2.38-.92,5.34-1.2,6.85-4,1.82-3.45,1.1-19.55.29-27.14-1.05-5.46.55-8.94.87-18.1A108.45,108.45,0,0,0,355.36,153Zm-66.48-24.8c3-.35,7.3,1.39,10.7,6.84,1.16,1.91,2.62,3.82,3.78,6a15,15,0,0,0,2,4.44c7.31,8.6,24.57-1.33,34.25,7a12.44,12.44,0,0,1,1.94,2.16,11.67,11.67,0,0,1,2.15,8.95l-.06.29c-.63,3.15-3,6-3.06,9.12-.06,6,6.43,15,5.77,21-.33,3.15-3.33,6.59-10.14,6.84-15.12.47-31.59-14-31.53-19.72a4,4,0,0,1,.05-.6h0c.18-1.23.83-2.3.95-3.87a9.63,9.63,0,0,0-1.2-5c-2.89-6-10.3-8.45-12.9-14.48-1.45-3.17-.14-7.35-1.28-10.51-1-2.35-3.24-5.2-4.71-8.12s-2.19-6.06.09-8.76A4.52,4.52,0,0,1,288.88,128.18Z"/><path id="_1s" data-name="1s" class="cls-7" d="M355.36,153c-.05-1.34-.12-2.71-.19-4.11l-1,0c-1,0-2.1-.09-3.15-.14s-2-.12-3.05-.2l-.26,0a17.21,17.21,0,0,1,2.19,5.79c.41,2.95-.87,6.29-2.1,9.67s-2.41,6.75-1.87,9.83c.82,5,2.34,16.61,3.16,21.57,1.34,9.9-8.55,10.37-18.09,8.11a49.43,49.43,0,0,1-11.24-4c-16.73-9.45-20.71-14.6-28.91-34.78a97,97,0,0,1-6.48-27.3h0c-.57-6.71-.27-13.4,1.54-18.9l-.47-.63c-.46-.62-.89-1.22-1.28-1.8a29.15,29.15,0,0,1-1.75-2.87,21.59,21.59,0,0,1-2.21-6,89.91,89.91,0,0,0-2.33,21.86,47,47,0,0,0,.63,6.33c1.19,6.35.81,11.63.88,16.88,0,.33,0,.65,0,1,0,.49,0,1,.06,1.45,0,.16,0,.31,0,.47,0,.46.06.93.1,1.4a2.64,2.64,0,0,0,0,.29l0,.29c0,.14,0,.28,0,.42s0,.23,0,.34l.06.45.06.46c.13.93.3,1.88.52,2.84l.12.52c0,.17.09.34.13.52h0c.05.17.09.35.14.52l.24.82.12.4c.11.32.21.65.33,1,.18.53.38,1.05.6,1.59,1.72,4.75,4.06,7.62,6.38,12.06,2.07,3.77,5.22,9.9,8.63,13.74l.06.07s0,0,0,0l.34.35a14.34,14.34,0,0,0,1.58,1.48l.13.11c.1.07.2.15.3.21l.32.23c6.47,4.17,10.89,6.43,18.52,12.82.26.21.55.43.89.66l.44.26c.37.23.79.45,1.24.68s.75.36,1.15.54h0l.53.23,1.09.43.69.27c.94.35,1.95.68,3,1l.79.23.81.22.83.22.83.2.85.19c.42.1.84.19,1.27.27l.86.17.43.07q.65.12,1.29.21c4.6.68,9.13.71,12.28-.5,2.38-.92,5.34-1.2,6.85-4,1.82-3.45,1.1-19.55.29-27.14-1.05-5.46.55-8.94.87-18.1A108.45,108.45,0,0,0,355.36,153Z"/><path id="_1" data-name="1" class="cls-8" d="M355.36,153c-.05-1.34-.12-2.71-.19-4.11l-1,0c-1,0-2.1-.09-3.15-.14s-2-.12-3.05-.2a19.42,19.42,0,0,1,2.49,6.41c.38,2.79-.7,5.9-1.85,9.08-1.33,3.66-2.76,7.39-2.16,10.78.83,5.06,2.39,16.82,3.23,21.88,1.37,10.11-8.62,10.75-18.37,8.43a49.06,49.06,0,0,1-11.43-4c-17.08-9.65-21.15-14.88-29.52-35.49a99.25,99.25,0,0,1-6.74-28.86c-.49-6.72-.11-13.37,1.82-18.81-.46-.62-.89-1.22-1.28-1.8a29.15,29.15,0,0,1-1.75-2.87,21.59,21.59,0,0,1-2.21-6,89.91,89.91,0,0,0-2.33,21.86,47,47,0,0,0,.63,6.33c1.19,6.35.81,11.63.88,16.88,0,.33,0,.65,0,1,0,.49,0,1,.06,1.45,0,.16,0,.31,0,.47,0,.46.06.93.1,1.4a2.64,2.64,0,0,0,0,.29l0,.29c0,.14,0,.28,0,.42s0,.23,0,.34l.06.45.06.46c.13.93.3,1.88.52,2.84l.12.52c0,.17.09.34.13.52h0c.05.17.09.35.14.52l.24.82.12.4c.11.32.21.65.33,1,.18.53.38,1.05.6,1.59,1.72,4.75,4.06,7.62,6.38,12.06,2.07,3.77,5.22,9.9,8.63,13.74l.06.07s0,0,0,0l.34.35a14.34,14.34,0,0,0,1.58,1.48l.13.11c.1.07.2.15.3.21l.32.23c6.47,4.17,10.89,6.43,18.52,12.82.26.21.55.43.89.66l.44.26c.37.23.79.45,1.24.68s.75.36,1.15.54h0l.53.23,1.09.43.69.27c.94.35,1.95.68,3,1l.79.23.81.22.83.22.83.2.85.19c.42.1.84.19,1.27.27l.86.17.43.07q.65.12,1.29.21c4.6.68,9.13.71,12.28-.5,2.38-.92,5.34-1.2,6.85-4,1.82-3.45,1.1-19.55.29-27.14-1.05-5.46.55-8.94.87-18.1A108.45,108.45,0,0,0,355.36,153Z"/></g><g id="brain-2" data-name="brain"><path id="_4-2" data-name="4" class="cls-2" d="M435.92,127.47c0,.18,0,.37,0,.55v.31a.2.2,0,0,1,0,.07c0,.17,0,.34,0,.51v.21c0,.16,0,.31,0,.46s0,.42,0,.63,0,.49,0,.73l0,.35-.06.68c0,.27-.05.53-.08.8,0,0,0,.09,0,.13l-.09.72a.78.78,0,0,1,0,.16c0,.25-.07.5-.1.75l-.15.9c-1.08,5.78-.87,10.67-.87,15.46v1.42c0,.33,0,.65,0,1s0,.49,0,.73l0,.72,0,.47c0,.22,0,.45,0,.68s0,.48-.05.72l0,.29,0,.29c0,.16,0,.32-.05.49s0,.28-.05.42a1.37,1.37,0,0,1,0,.19c0,.28-.07.56-.11.85-.13.84-.29,1.7-.49,2.56,0,.17-.08.34-.12.52s-.08.34-.13.52h0c0,.17-.09.35-.14.52s-.15.55-.24.82l-.12.4c-.1.32-.21.65-.33,1,0,.13-.09.27-.14.4s-.09.26-.14.39-.21.53-.31.8-.27.73-.42,1.07c-.05.13-.1.26-.16.39s-.13.3-.19.46l-.2.42-.21.47-.21.43c-.07.15-.14.29-.22.43a.25.25,0,0,1,0,.07c-.1.21-.21.42-.32.63-.81,1.5-1.67,2.89-2.56,4.39-.1.17-.2.34-.31.51l0,.07c-.19.31-.38.64-.56,1l-.34.59c-.09.18-.19.35-.29.54l-.33.62c-.06.12-.13.24-.2.36s-.09.17-.14.27c-1.14,2.09-2.57,4.77-4.16,7.36l-.33.53c-.52.83-1.06,1.64-1.6,2.42-.08.11-.16.21-.23.32-.64.89-1.3,1.73-2,2.48a.46.46,0,0,0-.07.07l0,0-.17.18-.16.17c-.16.18-.33.34-.49.5l-.2.2-.21.19-.19.17a4.38,4.38,0,0,1-.34.29l-.15.13-.14.11-.19.14-.11.07-.32.23-.06,0-1.13.72-.64.4-1.07.68c-1.5.93-2.93,1.81-4.35,2.72l-1,.64c-1.53,1-3.1,2.06-4.79,3.3l-.58.43-.31.24c-.3.22-.6.44-.9.68l-.72.56-.58.45-.66.54-.68.55h0l-.54.44-.51.43-.2.16c-.2.16-.43.33-.69.5l-.43.26c-.38.23-.79.45-1.25.68l-.56.27-.59.27c-.2.09-.41.19-.62.27l-.49.21-.51.19-.69.27-.35.13-1.11.38-.76.24-.78.25-.79.23-.81.22-.83.22-.83.2h0l-.84.19-.11,0-.53.11-.64.13-.85.17-.44.07c-.42.08-.86.15-1.28.21h-.05c-.47.07-.95.13-1.42.18h-.06l-.61.07-.21,0-.64.06-1.54.09-.53,0h-.81a18.28,18.28,0,0,1-6.41-1c-2.38-.92-5.35-1.2-6.86-4-1.82-3.45-1.1-19.55-.29-27.14a19.74,19.74,0,0,0,.33-4.78c0-.12,0-.23,0-.35q0-.62-.09-1.23c0-.14,0-.28,0-.42s0-.28-.05-.43,0-.28,0-.43v-.07c0-.12,0-.25-.05-.37h0c0-.22-.05-.44-.08-.67-.05-.46-.11-.93-.17-1.43q0-.36-.09-.75c-.11-.95-.22-2-.31-3.08,0-.35-.06-.7-.08-1.07,0-.56-.08-1.15-.11-1.77a.34.34,0,0,0,0-.1c0-.17,0-.35,0-.52s0-.43,0-.64,0-.49,0-.74c0-.74,0-1.53,0-2.35v-1.35l0-1.44c0-1.14.09-2.35.16-3.64,0-.55.07-1.12.11-1.7,0-.38,0-.75.05-1.13,0-.77.07-1.53.11-2.31,0-.22,0-.44,0-.66h.86c1.05,0,2.1-.05,3.15-.08s2.06-.1,3.09-.18l.26,0a106.62,106.62,0,0,0,13.92-1.94l1.73-.38c3.08-.7,6.17-1.54,9.25-2.54,1.13-.36,2.24-.74,3.37-1.13,1.74-.64,3.51-1.3,5.26-2s3.18-1.41,4.69-2.2c.36-.19.7-.37,1.05-.57a62.3,62.3,0,0,0,12-8.64c.75-.7,1.5-1.39,2.24-2.13.44-.42.86-.86,1.3-1.3,2.72-2.93,5-5.57,6.8-8l.47-.62c.38-.51.74-1,1.08-1.51.66-1,1.27-1.88,1.82-2.76a38.77,38.77,0,0,0,2.71-5.2c.23,1.11.46,2.21.66,3.33.07.33.13.67.19,1s.1.62.16.93c0,.07,0,.13,0,.21.05.29.1.59.14.88s.11.68.16,1c.1.71.2,1.42.29,2.13l.06.55c0,.23.06.46.08.69l.09.84c0,.25.05.49.07.73.08.83.15,1.65.2,2.46,0,.27,0,.54,0,.81s0,.3,0,.45,0,.44,0,.66,0,.22,0,.33c0,.28,0,.56,0,.84C435.92,126.17,435.93,126.82,435.92,127.47Z"/><path id="_3s-2" data-name="3s" class="cls-3" d="M435.91,125.52c0-.28,0-.56,0-.84,0-.11,0-.22,0-.33s0-.44,0-.66,0-.3,0-.45,0-.54,0-.81c0-.81-.12-1.63-.2-2.46,0-.24,0-.48-.07-.73l-.09-.84c0-.23-.05-.46-.08-.69l-.06-.55c-.09-.71-.19-1.42-.29-2.13-.05-.33-.1-.67-.16-1s-.09-.59-.14-.88c0-.08,0-.14,0-.21-.06-.31-.11-.62-.16-.93s-.12-.68-.19-1c-.2-1.12-.43-2.22-.66-3.33a38.77,38.77,0,0,1-2.71,5.2c-.55.88-1.16,1.79-1.82,2.76-.34.49-.7,1-1.08,1.51l-.47.62c-1.83,2.42-4.08,5.06-6.8,8-.44.44-.86.88-1.3,1.3-.74.74-1.49,1.43-2.24,2.13a62.3,62.3,0,0,1-12,8.64c-.35.2-.69.38-1.05.57-1.51.79-3.08,1.52-4.69,2.2s-3.52,1.38-5.26,2c-1.13.39-2.24.77-3.37,1.13-3.08,1-6.17,1.84-9.25,2.54l-1.73.38A106.62,106.62,0,0,1,366,148.59l-.26,0q-1.55.12-3.09.18c-1.05,0-2.1.08-3.15.08h-.86c0,.22,0,.44,0,.66,0,.78-.08,1.54-.11,2.31,0,.38,0,.75-.05,1.13,0,.58-.08,1.15-.11,1.7-.07,1.29-.12,2.5-.16,3.64l0,1.44v1.35c0,.82,0,1.61,0,2.35,0,.25,0,.49,0,.74s0,.43,0,.64,0,.35,0,.52a.34.34,0,0,1,0,.1c0,.62.07,1.21.11,1.77,0,.37.05.72.08,1.07.09,1.12.2,2.13.31,3.08q0,.39.09.75c.06.5.12,1,.17,1.43,0,.23.06.45.08.67h0c0,.12,0,.25.05.37v.07c0,.15,0,.29,0,.43s0,.29.05.43,0,.28,0,.42q.06.61.09,1.23c0,.12,0,.23,0,.35a19.74,19.74,0,0,1-.33,4.78c-.81,7.59-1.53,23.69.29,27.14,1.51,2.83,4.48,3.11,6.86,4a18.28,18.28,0,0,0,6.41,1h.81l.53,0,1.54-.09.64-.06.21,0,.61-.07H377c.47-.05.95-.11,1.42-.18h.05c.42-.06.86-.13,1.28-.21l.44-.07.85-.17.64-.13.53-.11.11,0,.84-.19h0l.83-.2.83-.22.81-.22.79-.23.78-.25.76-.24,1.11-.38.35-.13.69-.27.51-.19.49-.21c.21-.08.42-.18.62-.27l.59-.27.56-.27c.46-.23.87-.45,1.25-.68l.43-.26c.26-.17.49-.34.69-.5l.2-.16.51-.43.54-.44h0l.68-.55.66-.54.58-.45.72-.56c.3-.24.6-.46.9-.68l.31-.24.58-.43c1.69-1.24,3.26-2.3,4.79-3.3l1-.64c1.42-.91,2.85-1.79,4.35-2.72l1.07-.68.64-.4,1.13-.72.06,0,.32-.23.11-.07.19-.14.14-.11.15-.13a4.38,4.38,0,0,0,.34-.29l.19-.17.21-.19.2-.2c.16-.16.33-.32.49-.5l.16-.17.17-.18,0,0a.46.46,0,0,1,.07-.07c.66-.75,1.32-1.59,2-2.48.07-.11.15-.21.23-.32.54-.78,1.08-1.59,1.6-2.42l.33-.53c1.59-2.59,3-5.27,4.16-7.36.05-.1.1-.18.14-.27s.14-.24.2-.36l.33-.62c.1-.18.2-.36.29-.54l.34-.59c.19-.34.37-.66.56-1l0-.07c.11-.17.21-.34.31-.51.89-1.5,1.75-2.89,2.56-4.39.11-.21.22-.42.32-.63a.25.25,0,0,0,0-.07c.08-.14.15-.28.22-.43l.21-.43.21-.47.2-.42c.06-.16.13-.31.19-.46s.11-.26.16-.39c.15-.34.28-.7.42-1.07s.21-.54.31-.8.1-.26.14-.39.1-.27.14-.4c.12-.32.23-.65.33-1l.12-.4c.09-.27.17-.55.24-.82s.1-.35.14-.52h0c0-.18.09-.35.13-.52s.09-.35.12-.52c.2-.86.36-1.72.49-2.56,0-.29.08-.57.11-.85a1.37,1.37,0,0,0,0-.19c0-.14,0-.28.05-.42s0-.33.05-.49l0-.29,0-.29c0-.24,0-.48.05-.72s0-.46,0-.68l0-.47,0-.72c0-.24,0-.49,0-.73s0-.64,0-1v-1.42c0-4.79-.21-9.68.87-15.46l.15-.9c0-.25.07-.5.1-.75a.78.78,0,0,0,0-.16l.09-.72s0-.09,0-.13c0-.27.06-.53.08-.8l.06-.68,0-.35c0-.24,0-.48,0-.73s0-.42,0-.63,0-.3,0-.46v-.21c0-.17,0-.34,0-.51a.2.2,0,0,0,0-.07V128c0-.18,0-.37,0-.55C435.93,126.82,435.92,126.17,435.91,125.52ZM379.48,175.3c1.44-3.1.48-8.25,1.91-12.41a10.11,10.11,0,0,1,.42-1,7.94,7.94,0,0,1,.46-.86,10,10,0,0,1,10.07-5c3.77.58,3.51,3,4.67,4,2.05,1.83,4.91-1.29,5.77-1.91,2.37-1.94,5.4-1.07,5.83,1.29a5.25,5.25,0,0,1-1.29,4,19.18,19.18,0,0,0-2.85,4.35c-.56,1.55.08,3.71.1,5.56a13.25,13.25,0,0,1-2.57,9c-3.08,4.18-8.12,6.4-10.89,7.82a17.21,17.21,0,0,1-8.65,2.87c-3.18,0-6.38-1.48-7.57-4.55a8.18,8.18,0,0,1,.1-5.29c1-3.18,3.36-5.87,4.11-7.09a4.92,4.92,0,0,0,.37-.68Zm45.9-41.59c1.46.91,1.48,2.76-.24,4a8.21,8.21,0,0,1-2.3,1.26c-2.88,1.58-3.14,5-4.56,7.45-.27.46-.54.89-.79,1.3-1.93,3.2-3.12,5.26-4.14,6.32a2.06,2.06,0,0,1-2.21.79,1.84,1.84,0,0,1-1-.57c-1.86-2.25,4.67-9.25,5.18-11.2a19.28,19.28,0,0,1,1.38-5.56c1.91-3.89,6.28-4.94,8.42-3.92Z"/><path id="_3-2" data-name="3" class="cls-4" d="M435.91,125.52c0-.28,0-.56,0-.84,0-.11,0-.22,0-.33s0-.44,0-.66,0-.3,0-.45,0-.54,0-.81c0-.81-.12-1.63-.2-2.46,0-.24,0-.48-.07-.73l-.09-.84c0-.23-.05-.46-.08-.69l-.06-.55c-.09-.71-.19-1.42-.29-2.13-.05-.33-.1-.67-.16-1s-.09-.59-.14-.88c0-.08,0-.14,0-.21-.06-.31-.11-.62-.16-.93s-.12-.68-.19-1c-.2-1.12-.43-2.22-.66-3.33a38.77,38.77,0,0,1-2.71,5.2c-.55.88-1.16,1.79-1.82,2.76-.34.49-.7,1-1.08,1.51l-.47.62c-1.83,2.42-4.08,5.06-6.8,8-.44.44-.86.88-1.3,1.3-.74.74-1.49,1.43-2.24,2.13a62.3,62.3,0,0,1-12,8.64c-.35.2-.69.38-1.05.57-1.51.79-3.08,1.52-4.69,2.2s-3.52,1.38-5.26,2c-1.13.39-2.24.77-3.37,1.13-3.08,1-6.17,1.84-9.25,2.54l-1.73.38A106.62,106.62,0,0,1,366,148.59l-.26,0q-1.55.12-3.09.18c-1.05,0-2.1.08-3.15.08h-.86c0,.22,0,.44,0,.66,0,.78-.08,1.54-.11,2.31,0,.38,0,.75-.05,1.13,0,.58-.08,1.15-.11,1.7-.07,1.29-.12,2.5-.16,3.64l0,1.44v1.35c0,.82,0,1.61,0,2.35,0,.25,0,.49,0,.74s0,.43,0,.64,0,.35,0,.52a.34.34,0,0,1,0,.1c0,.62.07,1.21.11,1.77,0,.37.05.72.08,1.07.09,1.12.2,2.13.31,3.08q0,.39.09.75c.06.5.12,1,.17,1.43,0,.23.06.45.08.67h0c0,.12,0,.25.05.37v.07c0,.15,0,.29,0,.43s0,.29.05.43,0,.28,0,.42q.06.61.09,1.23c0,.12,0,.23,0,.35a19.74,19.74,0,0,1-.33,4.78c-.81,7.59-1.53,23.69.29,27.14,1.51,2.83,4.48,3.11,6.86,4a18.28,18.28,0,0,0,6.41,1h.81l.53,0,1.54-.09.64-.06.21,0,.61-.07H377c.47-.05.95-.11,1.42-.18h.05c.42-.06.86-.13,1.28-.21l.44-.07.85-.17.64-.13.53-.11.11,0,.84-.19h0l.83-.2.83-.22.81-.22.79-.23.78-.25.76-.24,1.11-.38.35-.13.69-.27.51-.19.49-.21c.21-.08.42-.18.62-.27l.59-.27.56-.27c.46-.23.87-.45,1.25-.68l.43-.26c.26-.17.49-.34.69-.5l.2-.16.51-.43.54-.44h0l.68-.55.66-.54.58-.45.72-.56c.3-.24.6-.46.9-.68l.31-.24.58-.43c1.69-1.24,3.26-2.3,4.79-3.3l1-.64c1.42-.91,2.85-1.79,4.35-2.72l1.07-.68.64-.4,1.13-.72.06,0,.32-.23.11-.07.19-.14.14-.11.15-.13a4.38,4.38,0,0,0,.34-.29l.19-.17.21-.19.2-.2c.16-.16.33-.32.49-.5l.33-.35h0l0,0a.46.46,0,0,1,.07-.07c3.52-3.81,6.79-10.19,8.91-14.06,1.57-3,3.15-5.29,4.54-8a32.48,32.48,0,0,0,1.85-4.36c.1-.32.21-.63.3-.95s.23-.65.33-1l.12-.4c.09-.27.17-.55.24-.82s.1-.35.14-.52h0c0-.18.09-.35.13-.52s.09-.35.12-.52c.2-.86.36-1.72.49-2.56,0-.29.08-.57.11-.85a1.37,1.37,0,0,0,0-.19c0-.14,0-.28.05-.42s0-.33.05-.49l0-.29,0-.29c0-.24,0-.48.05-.72s0-.46,0-.68l0-.47,0-.72c0-.24,0-.49,0-.73s0-.64,0-1v-1.42c0-4.79-.21-9.68.87-15.46l.15-.9c0-.25.07-.5.1-.75a.78.78,0,0,0,0-.16l.09-.72s0-.09,0-.13c0-.27.06-.53.08-.8l.06-.68,0-.35c0-.24,0-.48,0-.73s0-.42,0-.63,0-.3,0-.46v-.21c0-.17,0-.34,0-.51a.2.2,0,0,0,0-.07V128c0-.18,0-.37,0-.55C435.93,126.82,435.92,126.17,435.91,125.52Zm-57.26,51.71a6.46,6.46,0,0,0,.82-1.93h0c.91-3.47.15-8.51,1.91-12.41.16-.35.34-.68.53-1h0a10.21,10.21,0,0,1,10.3-5.15c3.86.59,3.59,3.12,4.79,4.05,2.09,1.87,5-1.32,5.9-2,2.12-1.73,4.75-1.27,5.69.49.61,1.16.49,2.88-1,4.91-1.17,1.59-2.26,2.72-2.84,4.3s0,3.62,0,5.51a14,14,0,0,1-2.24,8.76c-3.09,4.75-8.58,7.32-11.54,8.84a17.67,17.67,0,0,1-8.86,2.93c-3.25,0-6.53-1.51-7.75-4.65a9.2,9.2,0,0,1,.65-6.83A39.67,39.67,0,0,1,378.65,177.23ZM426.05,134c1.49.93,1.52,2.82-.25,4.1a8.23,8.23,0,0,1-2.36,1.29c-2.83,1.55-3.18,4.83-4.5,7.34l-.15.29c-2.37,3.87-3.75,6.35-4.9,7.63-.83.92-1.54,1.22-2.41,1a1.57,1.57,0,0,1-1.3-1.3c-.46-2.81,5.14-8.93,5.61-10.74a19.86,19.86,0,0,1,1.42-5.7,7.5,7.5,0,0,1,8-4.24A3.08,3.08,0,0,1,426.05,134Z"/><path id="_2s-2" data-name="2s" class="cls-5" d="M435.91,125.52c0-.28,0-.56,0-.84,0-.11,0-.22,0-.33s0-.44,0-.66,0-.3,0-.45,0-.54,0-.81c0-.81-.12-1.63-.2-2.46,0-.24,0-.48-.07-.73l-.09-.84c0-.23-.05-.46-.08-.69l-.06-.55c-.09-.71-.19-1.42-.29-2.13-.05-.33-.1-.67-.16-1s-.09-.59-.14-.88c0-.08,0-.14,0-.21-.06-.31-.11-.62-.16-.93s-.12-.68-.19-1c-.2-1.12-.43-2.22-.66-3.33a38.77,38.77,0,0,1-2.71,5.2c-.55.88-1.16,1.79-1.82,2.76-.34.49-.7,1-1.08,1.51l-.47.62c-1.83,2.42-4.08,5.06-6.8,8-.44.44-.86.88-1.3,1.3-.74.74-1.49,1.43-2.24,2.13a62.3,62.3,0,0,1-12,8.64c-.35.2-.69.38-1.05.57-3.32,2.92-20.88,7.86-22.57,7.89l-1.73.38A106.62,106.62,0,0,1,366,148.59l-.26,0q-1.55.12-3.09.18c-1.05,0-2.1.08-3.15.08h-.86c0,.22,0,.44,0,.66,0,.78-.08,1.54-.11,2.31,0,.38,0,.75-.05,1.13,0,.58-.08,1.15-.11,1.7-.07,1.29-.12,2.5-.16,3.64l0,1.44v1.35c0,.82,0,1.61,0,2.35,0,.25,0,.49,0,.74s0,.43,0,.64,0,.35,0,.52a.34.34,0,0,1,0,.1c0,.62.07,1.21.11,1.77,0,.37.05.72.08,1.07.09,1.12.2,2.13.31,3.08q0,.39.09.75c.06.5.12,1,.17,1.43,0,.23.06.45.08.67h0c0,.12,0,.25.05.37v.07c0,.15,0,.29,0,.43s0,.29.05.43,0,.28,0,.42q.06.61.09,1.23c0,.12,0,.23,0,.35a19.74,19.74,0,0,1-.33,4.78c-.81,7.59-1.53,23.69.29,27.14,1.51,2.83,4.48,3.11,6.86,4a18.28,18.28,0,0,0,6.41,1h.81l.53,0,1.54-.09.64-.06.21,0,.61-.07H377c.47-.05.95-.11,1.42-.18h.05c.42-.06.86-.13,1.28-.21l.44-.07.85-.17.64-.13.53-.11.11,0,.84-.19h0l.83-.2.83-.22.81-.22.79-.23.78-.25.76-.24,1.11-.38.35-.13.69-.27.51-.19.49-.21c.21-.08.42-.18.62-.27l.59-.27.56-.27c.46-.23.87-.45,1.25-.68l.43-.26c.26-.17.49-.34.69-.5l.2-.16.51-.43.54-.44h0l.68-.55.66-.54.58-.45.72-.56c.3-.24.6-.46.9-.68l.31-.24.58-.43c1.69-1.24,3.26-2.3,4.79-3.3l1-.64c1.42-.91,2.85-1.79,4.35-2.72l1.07-.68.64-.4,1.13-.72.06,0,.32-.23.11-.07.19-.14.14-.11.15-.13a4.38,4.38,0,0,0,.34-.29l.19-.17.21-.19.2-.2c.16-.16.33-.32.49-.5l.16-.17.17-.18,0,0a.46.46,0,0,1,.07-.07c.66-.75,1.32-1.59,2-2.48.07-.11.15-.21.23-.32.54-.78,1.08-1.59,1.6-2.42l.33-.53c1.59-2.59,3-5.27,4.16-7.36.05-.1.1-.18.14-.27s.14-.24.2-.36l.33-.62c.1-.18.2-.36.29-.54l.34-.59c.19-.34.37-.66.56-1l0-.07c.11-.17.21-.34.31-.51.89-1.5,1.75-2.89,2.56-4.39.11-.21.22-.42.32-.63a.25.25,0,0,0,0-.07c.08-.14.15-.28.22-.43l.21-.43.21-.47.2-.42c.06-.16.13-.31.19-.46s.11-.26.16-.39c.15-.34.28-.7.42-1.07s.21-.54.31-.8.1-.26.14-.39.1-.27.14-.4c.12-.32.23-.65.33-1l.12-.4c.09-.27.17-.55.24-.82s.1-.35.14-.52h0c0-.18.09-.35.13-.52s.09-.35.12-.52c.2-.86.36-1.72.49-2.56,0-.29.08-.57.11-.85a1.37,1.37,0,0,0,0-.19c0-.14,0-.28.05-.42s0-.33.05-.49l0-.29,0-.29c0-.24,0-.48.05-.72s0-.46,0-.68l0-.47,0-.72c0-.24,0-.49,0-.73s0-.64,0-1v-1.42c0-4.79-.21-9.68.87-15.46l.15-.9c0-.25.07-.5.1-.75a.78.78,0,0,0,0-.16l.09-.72s0-.09,0-.13c0-.27.06-.53.08-.8l.06-.68,0-.35c0-.24,0-.48,0-.73s0-.42,0-.63,0-.3,0-.46v-.21c0-.17,0-.34,0-.51a.2.2,0,0,0,0-.07V128c0-.18,0-.37,0-.55C435.93,126.82,435.92,126.17,435.91,125.52Zm-63.73,29.17a12.75,12.75,0,0,1,2.35-2.78c9.5-8.16,26.49,1.62,33.66-6.82a14.41,14.41,0,0,0,2-4.35c1.14-2.19,2.57-4.06,3.72-5.93,3.53-5.67,8-7.25,11-6.63a4.2,4.2,0,0,1,2.59,1.53c2.72,3.21,1.14,7-.94,10.48a62.48,62.48,0,0,0-3.56,6.08c-1.13,3.11.18,7.23-1.23,10.34a12.74,12.74,0,0,1-2.27,3.45c-3.26,3.67-8.19,6.12-10.41,10.74a8.86,8.86,0,0,0-1,5.89c.3,1.49.94,2.62.95,3.87h0c0,1.51-1.17,3.63-3.21,5.9-5.49,6.11-17.12,13.36-27.93,13-6.69-.23-9.63-3.61-10-6.7-.64-5.88,5.72-14.84,5.65-20.73,0-3-2.26-5.7-2.94-8.69l-.06-.26a11.28,11.28,0,0,1,1.6-8.41Z"/><path id="_2-2" data-name="2" class="cls-6" d="M435.91,125.52c0-.28,0-.56,0-.84,0-.11,0-.22,0-.33s0-.44,0-.66,0-.3,0-.45,0-.54,0-.81c0-.81-.12-1.63-.2-2.46,0-.24,0-.48-.07-.73l-.09-.84c0-.23-.05-.46-.08-.69l-.06-.55c-.09-.71-.19-1.42-.29-2.13-.05-.33-.1-.67-.16-1s-.09-.59-.14-.88c0-.08,0-.14,0-.21-.06-.31-.11-.62-.16-.93s-.12-.68-.19-1c-.2-1.12-.43-2.22-.66-3.33a38.77,38.77,0,0,1-2.71,5.2c-.55.88-1.16,1.79-1.82,2.76-.34.49-.7,1-1.08,1.51l-.47.62c-1.83,2.42-4.08,5.06-6.8,8-.44.44-.86.88-1.3,1.3-.74.74-1.49,1.43-2.24,2.13a62.3,62.3,0,0,1-12,8.64c-3.39,3.31-8.44,6.36-18.76,8.24a24.39,24.39,0,0,1-6.59.6A106.62,106.62,0,0,1,366,148.59l-.26,0q-1.55.12-3.09.18c-1.05,0-2.1.08-3.15.08h-.86c0,.22,0,.44,0,.66,0,.78-.08,1.54-.11,2.31,0,.38,0,.75-.05,1.13,0,.58-.08,1.15-.11,1.7-.07,1.29-.12,2.5-.16,3.64l0,1.44v1.35c0,.82,0,1.61,0,2.35,0,.25,0,.49,0,.74s0,.43,0,.64,0,.35,0,.52a.34.34,0,0,1,0,.1c0,.62.07,1.21.11,1.77,0,.37.05.72.08,1.07.09,1.12.2,2.13.31,3.08q0,.39.09.75c.06.5.12,1,.17,1.43,0,.23.06.45.08.67h0c0,.12,0,.25.05.37v.07c0,.15,0,.29,0,.43s0,.29.05.43,0,.28,0,.42q.06.61.09,1.23c0,.12,0,.23,0,.35a19.74,19.74,0,0,1-.33,4.78c-.81,7.59-1.53,23.69.29,27.14,1.51,2.83,4.48,3.11,6.86,4a18.28,18.28,0,0,0,6.41,1h.81l.53,0,1.54-.09.64-.06.21,0,.61-.07H377c.47-.05.95-.11,1.42-.18h.05c.42-.06.86-.13,1.28-.21l.44-.07.85-.17.64-.13.53-.11.11,0,.84-.19h0l.83-.2.83-.22.81-.22.79-.23.78-.25.76-.24,1.11-.38.35-.13.69-.27.51-.19.49-.21c.21-.08.42-.18.62-.27l.59-.27.56-.27c.46-.23.87-.45,1.25-.68l.43-.26c.26-.17.49-.34.69-.5l.2-.16.51-.43.54-.44h0l.68-.55.66-.54.58-.45.72-.56c.3-.24.6-.46.9-.68l.31-.24.58-.43c1.69-1.24,3.26-2.3,4.79-3.3l1-.64c1.42-.91,2.85-1.79,4.35-2.72l1.07-.68.64-.4,1.13-.72.06,0,.32-.23.11-.07.19-.14.14-.11.15-.13a4.38,4.38,0,0,0,.34-.29l.19-.17.21-.19.2-.2c.16-.16.33-.32.49-.5l.33-.35h0l0,0a.46.46,0,0,1,.07-.07c3.52-3.81,6.79-10.19,8.91-14.06,1.57-3,3.15-5.29,4.54-8a32.48,32.48,0,0,0,1.85-4.36c.1-.32.21-.63.3-.95s.23-.65.33-1l.12-.4c.09-.27.17-.55.24-.82s.1-.35.14-.52h0c0-.18.09-.35.13-.52s.09-.35.12-.52c.2-.86.36-1.72.49-2.56,0-.29.08-.57.11-.85a1.37,1.37,0,0,0,0-.19c0-.14,0-.28.05-.42s0-.33.05-.49l0-.29,0-.29c0-.24,0-.48.05-.72s0-.46,0-.68l0-.47,0-.72c0-.24,0-.49,0-.73s0-.64,0-1v-1.42c0-4.79-.21-9.68.87-15.46l.15-.9c0-.25.07-.5.1-.75a.78.78,0,0,0,0-.16l.09-.72s0-.09,0-.13c0-.27.06-.53.08-.8l.06-.68,0-.35c0-.24,0-.48,0-.73s0-.42,0-.63,0-.3,0-.46v-.21c0-.17,0-.34,0-.51a.2.2,0,0,0,0-.07V128c0-.18,0-.37,0-.55C435.93,126.82,435.92,126.17,435.91,125.52Zm-63.73,29.17h0a13.25,13.25,0,0,1,2-2.2c9.69-8.32,26.94,1.61,34.25-7a14.75,14.75,0,0,0,2-4.44c1.16-2.22,2.62-4.13,3.79-6,3.39-5.45,7.67-7.19,10.69-6.84a4.52,4.52,0,0,1,3.17,1.64c2.27,2.68,1.59,5.73.11,8.71s-3.72,5.8-4.72,8.17c-1.15,3.16.16,7.34-1.29,10.51a12.8,12.8,0,0,1-2.16,3.36c-3.33,3.83-8.44,6.35-10.74,11.12a9.63,9.63,0,0,0-1.2,5c.12,1.57.77,2.64.95,3.87h0a3,3,0,0,1,.05.6c0,1.46-1.05,3.49-2.9,5.7-5.38,6.42-17.38,14.36-28.62,14-6.82-.25-9.82-3.69-10.14-6.84-.66-6,5.83-15,5.76-21,0-3.16-2.43-6-3.05-9.12,0-.15-.07-.31-.1-.47A11.68,11.68,0,0,1,372.18,154.69Z"/><path id="_1s-2" data-name="1s" class="cls-7" d="M435.91,125.52c0-.28,0-.56,0-.84,0-.11,0-.22,0-.33s0-.44,0-.66,0-.3,0-.45,0-.54,0-.81c0-.81-.12-1.63-.2-2.46,0-.24,0-.48-.07-.73l-.09-.84c0-.23-.05-.46-.08-.69l-.06-.55c-.09-.71-.19-1.42-.29-2.13-.05-.33-.1-.67-.16-1s-.09-.59-.14-.88c0-.08,0-.14,0-.21-.06-.31-.11-.62-.16-.93s-.12-.68-.19-1c-.2-1.12-.43-2.22-.66-3.33a38.77,38.77,0,0,1-2.71,5.2c-.55.88-1.16,1.79-1.82,2.76-.34.49-.7,1-1.08,1.51l-.47.62c2,5.58,2.4,12.52,1.83,19.47a97.94,97.94,0,0,1-6.13,26.6c-.12.31-.25.61-.37.9-5.06,12.46-8.52,19.19-14.36,24.74-3.62,3.44-8.15,6.42-14.54,10a49.77,49.77,0,0,1-11.24,4c-9.55,2.26-19.44,1.79-18.09-8.11.81-5,2.34-16.61,3.15-21.57.55-3.12-.67-6.56-1.91-10s-2.46-6.63-2.06-9.55a16.82,16.82,0,0,1,2.14-5.68l-.26,0q-1.55.12-3.09.18c-1.05,0-2.1.08-3.15.08h-.86c0,.22,0,.44,0,.66,0,.78-.08,1.54-.11,2.31,0,.38,0,.75-.05,1.13,0,.58-.08,1.15-.11,1.7-.07,1.29-.12,2.5-.16,3.64l0,1.44v1.35c0,.82,0,1.61,0,2.35,0,.25,0,.49,0,.74s0,.43,0,.64,0,.35,0,.52a.34.34,0,0,1,0,.1c0,.62.07,1.21.11,1.77,0,.37.05.72.08,1.07.09,1.12.2,2.13.31,3.08q0,.39.09.75c.06.5.12,1,.17,1.43,0,.23.06.45.08.67h0c0,.12,0,.25.05.37v.07c0,.15,0,.29,0,.43s0,.29.05.43,0,.28,0,.42q.06.61.09,1.23c0,.12,0,.23,0,.35a19.74,19.74,0,0,1-.33,4.78c-.81,7.59-1.53,23.69.29,27.14,1.51,2.83,4.48,3.11,6.86,4a18.28,18.28,0,0,0,6.41,1h.81l.53,0,1.54-.09.64-.06.21,0,.61-.07H377c.47-.05.95-.11,1.42-.18h.05c.42-.06.86-.13,1.28-.21l.44-.07.85-.17.64-.13.53-.11.11,0,.84-.19h0l.83-.2.83-.22.81-.22.79-.23.78-.25.76-.24,1.11-.38.35-.13.69-.27.51-.19.49-.21c.21-.08.42-.18.62-.27l.59-.27.56-.27c.46-.23.87-.45,1.25-.68l.43-.26c.26-.17.49-.34.69-.5l.2-.16.51-.43.54-.44h0l.68-.55.66-.54.58-.45.72-.56c.3-.24.6-.46.9-.68l.31-.24.58-.43c1.69-1.24,3.26-2.3,4.79-3.3l1-.64c1.42-.91,2.85-1.79,4.35-2.72l1.07-.68.64-.4,1.13-.72.06,0,.32-.23.11-.07.19-.14.14-.11.15-.13a4.38,4.38,0,0,0,.34-.29l.19-.17.21-.19.2-.2c.16-.16.33-.32.49-.5l.16-.17.17-.18,0,0a.46.46,0,0,1,.07-.07c.66-.75,1.32-1.59,2-2.48.07-.11.15-.21.23-.32.54-.78,1.08-1.59,1.6-2.42l.33-.53c1.59-2.59,3-5.27,4.16-7.36.05-.1.1-.18.14-.27s.14-.24.2-.36l.33-.62c.1-.18.2-.36.29-.54l.34-.59c.19-.34.37-.66.56-1l0-.07c.11-.17.21-.34.31-.51.89-1.5,1.75-2.89,2.56-4.39.11-.21.22-.42.32-.63a.25.25,0,0,0,0-.07c.08-.14.15-.28.22-.43l.21-.43.21-.47.2-.42c.06-.16.13-.31.19-.46s.11-.26.16-.39c.15-.34.28-.7.42-1.07s.21-.54.31-.8.1-.26.14-.39.1-.27.14-.4c.12-.32.23-.65.33-1l.12-.4c.09-.27.17-.55.24-.82s.1-.35.14-.52h0c0-.18.09-.35.13-.52s.09-.35.12-.52c.2-.86.36-1.72.49-2.56,0-.29.08-.57.11-.85a1.37,1.37,0,0,0,0-.19c0-.14,0-.28.05-.42s0-.33.05-.49l0-.29,0-.29c0-.24,0-.48.05-.72s0-.46,0-.68l0-.47,0-.72c0-.24,0-.49,0-.73s0-.64,0-1v-1.42c0-4.79-.21-9.68.87-15.46l.15-.9c0-.25.07-.5.1-.75a.78.78,0,0,0,0-.16l.09-.72s0-.09,0-.13c0-.27.06-.53.08-.8l.06-.68,0-.35c0-.24,0-.48,0-.73s0-.42,0-.63,0-.3,0-.46v-.21c0-.17,0-.34,0-.51a.2.2,0,0,0,0-.07V128c0-.18,0-.37,0-.55C435.93,126.82,435.92,126.17,435.91,125.52Z"/><path id="_1-2" data-name="1" class="cls-8" d="M435.91,125.52c0-.28,0-.56,0-.84,0-.11,0-.22,0-.33s0-.44,0-.66,0-.3,0-.45,0-.54,0-.81c0-.81-.12-1.63-.2-2.46,0-.24,0-.48-.07-.73l-.09-.84c0-.23-.05-.46-.08-.69l-.06-.55c-.09-.71-.19-1.42-.29-2.13-.05-.33-.1-.67-.16-1s-.09-.59-.14-.88c0-.08,0-.14,0-.21-.06-.31-.11-.62-.16-.93s-.12-.68-.19-1c-.2-1.12-.43-2.22-.66-3.33a38.77,38.77,0,0,1-2.71,5.2c-.55.88-1.16,1.79-1.82,2.76-.34.49-.7,1-1.08,1.51,2.12,5.48,2.59,12.31,2.12,19.23a100.58,100.58,0,0,1-6.3,28.06l-.47,1.14c-5,12.33-8.48,19.15-14.11,24.71-3.79,3.74-8.55,6.91-15.41,10.78a49.15,49.15,0,0,1-11.42,4c-9.75,2.32-19.74,1.68-18.37-8.43.83-5.06,2.4-16.82,3.23-21.88.61-3.42-.86-7.2-2.21-10.9-1.13-3.13-2.18-6.21-1.8-9a18.88,18.88,0,0,1,2.43-6.31q-1.55.12-3.09.18c-1.05,0-2.1.08-3.15.08h-.86c0,.22,0,.44,0,.66,0,.78-.08,1.54-.11,2.31,0,.38,0,.75-.05,1.13,0,.58-.08,1.15-.11,1.7-.07,1.29-.12,2.5-.16,3.64l0,1.44v1.35c0,.82,0,1.61,0,2.35,0,.25,0,.49,0,.74s0,.43,0,.64,0,.35,0,.52a.34.34,0,0,1,0,.1c0,.62.07,1.21.11,1.77,0,.37.05.72.08,1.07.09,1.12.2,2.13.31,3.08q0,.39.09.75c.06.5.12,1,.17,1.43,0,.23.06.45.08.67h0c0,.12,0,.25.05.37v.07c0,.15,0,.29,0,.43s0,.29.05.43,0,.28,0,.42q.06.61.09,1.23c0,.12,0,.23,0,.35a19.74,19.74,0,0,1-.33,4.78c-.81,7.59-1.53,23.69.29,27.14,1.51,2.83,4.48,3.11,6.86,4a18.28,18.28,0,0,0,6.41,1h.81l.53,0,1.54-.09.64-.06.21,0,.61-.07H377c.47-.05.95-.11,1.42-.18h.05c.42-.06.86-.13,1.28-.21l.44-.07.85-.17.64-.13.53-.11.11,0,.84-.19h0l.83-.2.83-.22.81-.22.79-.23.78-.25.76-.24,1.11-.38.35-.13.69-.27.51-.19.49-.21c.21-.08.42-.18.62-.27l.59-.27.56-.27c.46-.23.87-.45,1.25-.68l.43-.26c.26-.17.49-.34.69-.5l.2-.16.51-.43.54-.44h0l.68-.55.66-.54.58-.45.72-.56c.3-.24.6-.46.9-.68l.31-.24.58-.43c1.69-1.24,3.26-2.3,4.79-3.3l1-.64c1.42-.91,2.85-1.79,4.35-2.72l1.07-.68.64-.4,1.13-.72.06,0,.32-.23.11-.07.19-.14.14-.11.15-.13a4.38,4.38,0,0,0,.34-.29l.19-.17.21-.19.2-.2c.16-.16.33-.32.49-.5l.16-.17.17-.18,0,0a.46.46,0,0,1,.07-.07c.66-.75,1.32-1.59,2-2.48.07-.11.15-.21.23-.32.54-.78,1.08-1.59,1.6-2.42l.33-.53c1.59-2.59,3-5.27,4.16-7.36.05-.1.1-.18.14-.27s.14-.24.2-.36l.33-.62c.1-.18.2-.36.29-.54l.34-.59c.19-.34.37-.66.56-1l0-.07c.11-.17.21-.34.31-.51.89-1.5,1.75-2.89,2.56-4.39.11-.21.22-.42.32-.63a.25.25,0,0,0,0-.07c.08-.14.15-.28.22-.43l.21-.43.21-.47.2-.42c.06-.16.13-.31.19-.46s.11-.26.16-.39c.15-.34.28-.7.42-1.07s.21-.54.31-.8.1-.26.14-.39.1-.27.14-.4c.12-.32.23-.65.33-1l.12-.4c.09-.27.17-.55.24-.82s.1-.35.14-.52h0c0-.18.09-.35.13-.52s.09-.35.12-.52c.2-.86.36-1.72.49-2.56,0-.29.08-.57.11-.85a1.37,1.37,0,0,0,0-.19c0-.14,0-.28.05-.42s0-.33.05-.49l0-.29,0-.29c0-.24,0-.48.05-.72s0-.46,0-.68l0-.47,0-.72c0-.24,0-.49,0-.73s0-.64,0-1v-1.42c0-4.79-.21-9.68.87-15.46l.15-.9c0-.25.07-.5.1-.75a.78.78,0,0,0,0-.16l.09-.72s0-.09,0-.13c0-.27.06-.53.08-.8l.06-.68,0-.35c0-.24,0-.48,0-.73s0-.42,0-.63,0-.3,0-.46v-.21c0-.17,0-.34,0-.51a.2.2,0,0,0,0-.07V128c0-.18,0-.37,0-.55C435.93,126.82,435.92,126.17,435.91,125.52Z"/></g><g id="Magnifying_glass" data-name="Magnifying glass"><path class="cls-9" d="M277.24,95.65a23.8,23.8,0,0,1,3.56-4.12V99l7,7.23s-9.41,3-12.65,16.35a38.86,38.86,0,0,1-1.29-18.48A21.39,21.39,0,0,1,277.24,95.65Z"/><path class="cls-9" d="M438.92,121.81c-3.24-13.38-12.76-15.72-12.76-15.72l6.77-7V89.16C441.78,96.68,442.91,109.14,438.92,121.81Z"/><path class="cls-10" d="M445.48,198.41c-3.23,5.44-10.58,10.25-17,8.68a16.18,16.18,0,0,1-8.18-4.79q-3.22-3.47-6.42-7c-1.55-1.69-3.1-3.38-4.63-5.08l-.74-.81c-.79-.86-1.58-1.73-2.36-2.6l-.36-.4-3.33-3.68-.49-.56q-8.21-9.1-16.33-18.25a5.47,5.47,0,0,0-3.74-2.1h-.12a9.45,9.45,0,0,0-2.64.23q-4.31.78-8.53,1.27l-.61.06c-1.38.16-2.75.29-4.12.4l-.81.06q-3.47.26-6.92.32l-2.56,0q-3.5,0-7-.22l-.81-.05c-1.37-.09-2.74-.21-4.11-.35l-.62-.06q-5.55-.58-11.12-1.66l-.14,0c-2.7-.52-5.4-1.14-8.13-1.84-1.84-.48-3.63-1-5.4-1.61l-.45-.14a84,84,0,0,1-14.19-6.34l-.78-.45q-3.64-2.1-7.1-4.56c-.43-.31-.87-.62-1.29-.94q-3.86-2.83-7.46-6.09l-1.43-1.3-1.21-1.16h0l-.75-.72,0,0a32.33,32.33,0,0,1-5.71-7.56c-6.81-12.3-6.78-29.22,2.8-37.5-.36,6.23-1.47,10.69-.47,15.63h0a21.59,21.59,0,0,0,2.21,6,29.15,29.15,0,0,0,1.75,2.87c.39.58.82,1.18,1.28,1.8l.47.63a82.52,82.52,0,0,0,6.18,7l1.82,1.85c.75.72,1.5,1.44,2.24,2.1a65.28,65.28,0,0,0,13.53,9.43c.45.23.9.47,1.36.69a72.17,72.17,0,0,0,8.39,3.48c1.27.44,2.57.86,3.89,1.22,2.33.66,4.7,1.24,7.16,1.74l1.14.23,2.14.4c4.69.85,9.33,1.42,13.95,1.79l.26,0c1,.08,2,.15,3.05.21s2.1.12,3.15.15l1,0c1.15,0,2.3,0,3.46,0h.86c1.05,0,2.1-.08,3.15-.1s2.06-.08,3.09-.16l.26,0a106.62,106.62,0,0,0,13.92-1.94l1.73-.38c3.08-.7,6.17-1.54,9.25-2.54,1.13-.36,2.24-.74,3.37-1.13,1.74-.64,3.51-1.3,5.26-2s3.18-1.41,4.69-2.2c.36-.19.7-.37,1.05-.57a62.3,62.3,0,0,0,12-8.64c.75-.7,1.5-1.39,2.24-2.13.44-.42.86-.86,1.3-1.3,2.72-2.93,5-5.57,6.8-8l.47-.62c.38-.51.74-1,1.08-1.51.66-1,1.27-1.88,1.82-2.76a38.77,38.77,0,0,0,2.71-5.2h0c3.44-8.29.18-11.85-.38-18.21,7.85,5,12.68,21.57,2.64,38.88a53.38,53.38,0,0,1-5.75,8l-.76.86c-.39.44-.8.88-1.21,1.31s-1.07,1.11-1.63,1.66a73.18,73.18,0,0,1-7.62,6.49c-.47.35-.95.7-1.45,1q-2.83,2-6.09,4c-.24.14.64,1,2,2.33l.54.55.14.13q2.76,2.64,5.47,5.33l.52.51,3.25,3.25.59.6q3.12,3.14,6.27,6.28l.05.05c2.72,2.7,5.47,5.38,8.32,8C447.06,185.84,449.46,192.13,445.48,198.41Z"/><path class="cls-11" d="M425.54,182.55c-10.06-9.23-20.32-22.22-30.21-31.12a3.62,3.62,0,0,0-3.07-.33c-9,2.57-16.2,3.4-25.43,6.13,5.11.34,10.37-.22,15.7-.33,3.43-.08,6.08.42,8,2.41,7.85,7.87,16.55,19.65,24.73,27.36,1.22,1.22,2.49,1.88,4.1.86C422,185.62,422.47,185.12,425.54,182.55Z"/><ellipse class="cls-11" cx="435.48" cy="196.75" rx="11.43" ry="7.33" transform="translate(-31.47 298.31) rotate(-36.58)"/></g><g id="Upper_Brain_-Left" data-name="Upper Brain -Left"><path id="BG-1" class="cls-11" d="M354.79,64.32l-4,4.15,3.93,4.06V85l-4.51,4.67,4.51,4.67v17L350,116.23l4.73,4.89v14.35l-5.58,5.77,5.58,5.78v1.82c-1,0-2.06-.08-3.1-.13h-.05a149.9,149.9,0,0,1-21-2.68c-2.46-.5-4.83-1.08-7.16-1.74-1.32-.36-2.62-.78-3.89-1.22a66.06,66.06,0,0,1-23.28-13.6c-.74-.66-1.49-1.38-2.24-2.1l-1.82-1.85a68.94,68.94,0,0,1-7.93-9.43l-.05-.06c-.67-1-1.21-1.92-1.7-2.81l0-.08,6-6.25L280.8,99V84.5l6.57-6.8V58.54L296,49.59h4.86l10.59-11h15.15l6.21-6.44h11.23l10.69,10.5h0Z"/><path class="cls-12" d="M354.76,42.7,344.07,32.2H332.84l-6.21,6.44H311.48l-10.59,11H296l-8.66,8.95V77.7l-6.57,6.8V99l7.65,7.91-6.05,6.27a32.48,32.48,0,0,0,1.74,2.88l6.55-6.78,5.64,5.84h10.5l8.38-8.66h19.24l3.65-3.78a3.81,3.81,0,0,0,1.3.22,3.61,3.61,0,0,0,2.65-1.11,4,4,0,0,0,0-5.47,3.71,3.71,0,0,0-5.28,0,3.87,3.87,0,0,0-.86,4.06l-2.71,2.82H313.88l-8.37,8.65h-7.94L283.92,97.71V85.8l15.59-16.12a3.85,3.85,0,0,0,1.3.22,3.63,3.63,0,0,0,2.65-1.1,4,4,0,0,0,0-5.48,3.68,3.68,0,0,0-5.28,0,3.9,3.9,0,0,0-1.08,2.74,4.48,4.48,0,0,0,.23,1.33l-6.86,7.1V59.92l6.86-7.1H310a3.82,3.82,0,1,0,3.42-5.56,3.82,3.82,0,0,0-3.42,2.3h-4.68l7.52-7.69h10.73l-2.71,2.82v13.6l-7.66,7.91v8.29h-6.58l-8.29,8.57v8.29a4,4,0,0,0-2.21,3.54,3.79,3.79,0,1,0,5.36-3.54v-7l6.44-6.67h5.28v6.44l7.71,8.21a4.31,4.31,0,0,0-.22,1.33,3.85,3.85,0,0,0,1.08,2.74,3.59,3.59,0,0,0,2.65,1.1,3.64,3.64,0,0,0,2.66-1.1,4,4,0,0,0,0-5.48,3.55,3.55,0,0,0-3.93-.88L316.29,83V67.66l7.21-7.46,9.29-9.62h3.76a5.3,5.3,0,0,0,.77,1.11,3.64,3.64,0,0,0,2.66,1.1,3.93,3.93,0,0,0,0-7.85,3.82,3.82,0,0,0-3.43,2.3h-5.06l-7.57,7.85V46l10.22-10.64h8.66L351.72,44V63L348.1,66.2l-4.42-4.59h-8.9l-6.66,6.91a3.91,3.91,0,0,0-3.93.88,4,4,0,0,0,0,5.48,3.75,3.75,0,0,0,5.31,0,4,4,0,0,0,.86-4.07l5.72-5.91h6.27L351.7,74v9.7l-4.21,3.79-5.14-5.33h-4.72a3.82,3.82,0,1,0-3.43,5.55,3.73,3.73,0,0,0,3.43-2.29h3.42l10.48,10.42V110l-7.91,7.63h-6.49a3.82,3.82,0,1,0-3.43,5.55,3.84,3.84,0,0,0,3.43-2.29h7.79l2.3-2.38,4.34,3.93v11.6l-5.2,4.81-7.52-7.76h-6.71l-9.87-10.2-.14-2.38a3.76,3.76,0,0,0,2.16-3.48,3.79,3.79,0,1,0-7.58,0,3.94,3.94,0,0,0,2.21,3.54v3.48l3.57,3.7,8.37,8.65h6.72l14,13.91v.36c1.05,0,2.1.11,3.15.13V147l-5.58-5.78,5.58-5.77V121.12L350,116.23l4.73-4.89v-17l-4.51-4.67L354.71,85V72.53l-3.93-4.07,4-4.14V42.7ZM338.93,98.57a.47.47,0,0,1,.44-.23.78.78,0,0,1,.41.23.65.65,0,0,1,0,1,.47.47,0,0,1-.41.22c-.14,0-.36,0-.44-.22A.61.61,0,0,1,338.93,98.57ZM300.39,65.48a.47.47,0,0,1,.42-.22.86.86,0,0,1,.41.22.67.67,0,0,1,0,1,.47.47,0,0,1-.41.22.44.44,0,0,1-.42-.31.48.48,0,0,1-.22-.44A.85.85,0,0,1,300.39,65.48Zm13-14.93a.66.66,0,0,1,.63.67.64.64,0,1,1-1.27,0A.64.64,0,0,1,313.39,50.55Zm-13.58,45a.65.65,0,0,1-.63-.67.64.64,0,0,1,.63-.66.65.65,0,0,1,.64.66A.66.66,0,0,1,299.81,95.53ZM324,93a.48.48,0,0,1,.44-.22.74.74,0,0,1,.42.22.67.67,0,0,1,0,1,.47.47,0,0,1-.42.22A.92.92,0,0,1,324,94a.48.48,0,0,1-.22-.44A.7.7,0,0,1,324,93Zm16-44.75a.66.66,0,0,1,.45.22.62.62,0,0,1,.22.44.66.66,0,0,1-.64.67.47.47,0,0,1-.41-.23.7.7,0,0,1-.22-.44A.57.57,0,0,1,340,48.26ZM327.26,72.75a.48.48,0,0,1-.44.22.84.84,0,0,1-.42-.22.68.68,0,0,1,0-1,.47.47,0,0,1,.42-.22.46.46,0,0,1,.44.3.49.49,0,0,1,.22.45A1.07,1.07,0,0,1,327.26,72.75Zm6.94,11.69a.65.65,0,0,1-.64-.66.66.66,0,0,1,.64-.67.65.65,0,0,1,.63.67A.64.64,0,0,1,334.2,84.44Zm-.36,35.49a.66.66,0,1,1,.64-.66A.63.63,0,0,1,333.84,119.93Zm-13.21-4.14a.66.66,0,0,1-.64-.67.65.65,0,0,1,.64-.66.64.64,0,0,1,.63.66A.63.63,0,0,1,320.63,115.79Z"/><path class="cls-12" d="M319.47,143.07v-6.86l-10.09-10.42h-9.65l-3.56,3.67c-.75-.69-1.5-1.38-2.24-2.1l4.58-4.75h12.22l11.86,12.28v8.57l.69.83C322,143.93,320.74,143.48,319.47,143.07Z"/></g><g id="Upper_Brain_-right" data-name="Upper Brain -right"><path id="BG-1-2" data-name="BG-1" class="cls-11" d="M432.93,99.09,425.28,107l5.66,5.86c-.55.88-1.16,1.79-1.82,2.76v0a96.33,96.33,0,0,1-8.34,10.1c-.44.44-.86.88-1.3,1.3-.74.74-1.49,1.43-2.24,2.13a60.54,60.54,0,0,1-17.71,11.41c-1.75.72-3.52,1.38-5.26,2-1.13.39-2.24.77-3.37,1.13a110.12,110.12,0,0,1-28.77,5.06h0c-1,0-2.08.08-3.12.08v-1.79l6.13-5.78L359,135.52V121.18l5.27-4.9L359,111.39v-17l4.5-4.68L359,85V72.58l3.92-4.06-4-4.15V42.7l10.7-10.5H380.8L387,38.64h15.15l10.59,11h4.86l8.65,8.95V77.7l6.58,6.8h.08Z"/><path class="cls-12" d="M432.85,84.5l-6.58-6.8V58.54l-8.65-8.95h-4.86l-10.59-11H387L380.8,32.2H369.58l-10.7,10.5V64.37l4,4.15L359,72.58V85l4.5,4.67L359,94.36v17l5.28,4.89-5.28,4.9v14.34l6.13,5.78L359,147.08v1.82l3.15-.08v-.39l14-13.9h6.72l8.38-8.65,3.56-3.71v-3.48a3.88,3.88,0,1,0-5.36-3.54,3.79,3.79,0,0,0,2.15,3.48l-.13,2.38-9.87,10.2h-6.72L367.31,139l-5.19-4.81V122.56l4.34-3.93,2.29,2.38h7.8A3.81,3.81,0,0,0,380,123.3a3.93,3.93,0,1,0-3.42-5.55h-6.5l-7.91-7.63V95.91l10.51-10.42h3.43a3.73,3.73,0,0,0,3.42,2.3,3.93,3.93,0,1,0-3.42-5.56h-4.73l-5.14,5.33L362,83.78v-9.7l9.34-9.1h6.3l5.72,5.92a4.35,4.35,0,0,0-.22,1.32A3.89,3.89,0,0,0,384.23,75a3.56,3.56,0,0,0,2.65,1.11A3.61,3.61,0,0,0,389.54,75a4,4,0,0,0,0-5.47,3.9,3.9,0,0,0-3.93-.89L379,61.72h-8.87l-4.43,4.59-3.62-3.18v-19L371,35.46h8.65L389.87,46.1v9.1l-7.58-7.85h-5.08a3.83,3.83,0,0,0-3.43-2.3,3.93,3.93,0,0,0,0,7.85,3.6,3.6,0,0,0,2.65-1.1,4.42,4.42,0,0,0,.78-1.11H381l9.28,9.62,7.22,7.46V83.09l-6.86,7.1a3.54,3.54,0,0,0-3.92.89,4,4,0,0,0,0,5.47,3.74,3.74,0,0,0,5.3,0,3.9,3.9,0,0,0,1.08-2.74,3.38,3.38,0,0,0-.22-1.33l7.71-8.2V77.83h5.28l6.44,6.67v7A3.84,3.84,0,0,0,410.1,95a3.79,3.79,0,1,0,7.58,0,4,4,0,0,0-2.22-3.54V83.17l-8.29-8.57h-6.71V66.31L392.8,58.4V44.8L390.09,42h10.72l7.52,7.69h-4.64a3.83,3.83,0,0,0-3.43-2.3,3.93,3.93,0,1,0,3.43,5.56h12.66L423.2,60V74.6l-6.85-7.1a4.46,4.46,0,0,0,.22-1.33,3.85,3.85,0,0,0-1.08-2.74,3.68,3.68,0,0,0-5.28,0,4,4,0,0,0,0,5.48,3.59,3.59,0,0,0,2.66,1.1,3.85,3.85,0,0,0,1.3-.22l15.58,16.12V97.82L416.1,111.94h-7.93l-8.38-8.65H380.55l-2.71-2.82a3.83,3.83,0,0,0-.85-4.06,3.71,3.71,0,0,0-5.28,0,4,4,0,0,0,0,5.47,3.56,3.56,0,0,0,2.65,1.11,3.85,3.85,0,0,0,1.3-.22l3.65,3.78h19.24l8.37,8.66h10.51l5.64-5.84,6.08,6.31c.66-1,1.27-1.88,1.82-2.8L425.28,107l7.65-7.91V84.5Zm-39.83,30a.65.65,0,0,1,.64.66.64.64,0,1,1-1.28,0A.65.65,0,0,1,393,114.46Zm-13.24,4.15a.66.66,0,1,1-.64.66A.67.67,0,0,1,379.78,118.61Zm-.33-35.52a.66.66,0,0,1,0,1.32.66.66,0,0,1,0-1.32Zm6.91-11.23a.45.45,0,0,1,.44-.3.44.44,0,0,1,.41.22.67.67,0,0,1,0,1,.78.78,0,0,1-.41.22.53.53,0,0,1-.44-.22.81.81,0,0,1-.22-.44A.61.61,0,0,1,386.36,71.86Zm-12.27-22.5a.63.63,0,0,1-.45.23.65.65,0,0,1-.63-.67.62.62,0,0,1,.22-.44.61.61,0,0,1,.41-.22.65.65,0,0,1,.64.66A.75.75,0,0,1,374.09,49.36ZM389.65,94a.81.81,0,0,1-.44.22.52.52,0,0,1-.45-.22.68.68,0,0,1,0-1,.81.81,0,0,1,.45-.22.54.54,0,0,1,.44.22.7.7,0,0,1,.22.53A.54.54,0,0,1,389.65,94Zm24.18.22a.65.65,0,0,1,.64.66.66.66,0,0,1-.64.67.65.65,0,0,1-.63-.67A.64.64,0,0,1,413.83,94.2Zm-13.6-42.32a.64.64,0,0,1-.63-.66.65.65,0,0,1,.63-.67.66.66,0,0,1,.64.67A.63.63,0,0,1,400.23,51.88Zm13,14.48a.45.45,0,0,1-.44.31.5.5,0,0,1-.44-.22.67.67,0,0,1,0-1,.81.81,0,0,1,.44-.22.52.52,0,0,1,.44.22.81.81,0,0,1,.22.44A.48.48,0,0,1,413.25,66.36ZM374.72,99.53c-.05.22-.28.22-.44.22a.5.5,0,0,1-.44-.22.65.65,0,0,1,0-1,.81.81,0,0,1,.44-.23.49.49,0,0,1,.44.23A.65.65,0,0,1,374.72,99.53Z"/><path class="cls-12" d="M419.47,127c-.73.73-1.49,1.44-2.24,2.12L414,125.79h-9.65l-10.08,10.42v6.39c-1.11.39-2.24.78-3.38,1.14l.22-.28v-8.57l11.86-12.28h12.22Z"/></g></g></g></g></svg>