<svg xmlns="http://www.w3.org/2000/svg" viewBox="0 0 776.24 277.11"><defs><style>.cls-1{font-size:246px;font-family:Roboto-Light, Roboto;font-weight:300;letter-spacing:-0.05em;}.cls-1,.cls-12{fill:#0097d9;}.cls-2{fill:#51abed;}.cls-3{fill:#239fe2;}.cls-4{fill:#66b7f3;}.cls-5{fill:#38a9e7;}.cls-6{fill:#7ac4f9;}.cls-7{fill:#5cb8f2;}.cls-8{fill:#8fd0ff;}.cls-9{fill:#ab332b;}.cls-10{fill:#d8392e;}.cls-11{fill:#fff;}</style></defs><title>MIQA Logo with name -2</title><g id="Layer_2" data-name="Layer 2"><g id="Miqa"><text class="cls-1" transform="translate(218.26 210.45)">MIQA</text><g id="mark"><g id="brain"><path id="_4" data-name="4" class="cls-2" d="M92.15,152.3a118.46,118.46,0,0,1,.28,12.59c-.35,10.27-2.14,14.17-1,20.29.9,8.5,1.71,26.54-.33,30.41-1.69,3.16-5,3.48-7.68,4.51-3.52,1.35-8.6,1.33-13.76.56l-1.44-.23-.48-.09-1-.18c-.48-.09-1-.2-1.43-.3l-1-.22-.93-.23-.93-.24-.9-.25-.9-.26c-1.17-.35-2.3-.73-3.35-1.12l-.78-.29-1.22-.49-.59-.26h0c-.45-.21-.89-.41-1.29-.61s-1-.51-1.4-.76l-.48-.3a11.91,11.91,0,0,1-1-.73c-8.55-7.17-13.5-9.7-20.75-14.37l-.36-.25-.33-.25a1.67,1.67,0,0,1-.16-.12,17.79,17.79,0,0,1-1.77-1.65l-.37-.4,0,0-.08-.08c-3.81-4.3-7.34-11.17-9.66-15.39-2.6-5-5.22-8.19-7.16-13.52q-.36-.9-.66-1.77c-.13-.37-.26-.74-.37-1.1l-.14-.44-.27-.92-.15-.58h0l-.15-.58c0-.19-.09-.39-.14-.58-.24-1.08-.43-2.14-.58-3.18,0-.17,0-.34-.07-.51l-.06-.51c0-.12,0-.25,0-.38s0-.32,0-.48l0-.31,0-.33c0-.53-.08-1.05-.11-1.58l0-.51c0-.55,0-1.09,0-1.63,0-.36,0-.72,0-1.09-.07-5.88.35-11.79-1-18.91a51.42,51.42,0,0,1-.71-7.1A100.47,100.47,0,0,1,8,101.05a23.84,23.84,0,0,0,2.48,6.7A35.49,35.49,0,0,0,12.41,111q.66,1,1.44,2c.17.24.35.47.53.71a90.48,90.48,0,0,0,6.92,7.84c.68.71,1.36,1.39,2,2.08.84.8,1.68,1.61,2.51,2.35A72.84,72.84,0,0,0,41,136.52q.75.4,1.53.78a80.23,80.23,0,0,0,9.39,3.9c1.42.49,2.88,1,4.37,1.36,2.6.74,5.26,1.39,8,1.95l1.28.26,2.39.45q7.88,1.42,15.63,2.05l.29,0c1.14.09,2.28.16,3.42.23s2.35.12,3.53.15l1.07,0C92,149.27,92.09,150.8,92.15,152.3Z"/><path id="_3s" data-name="3s" class="cls-3" d="M92.15,152.3c-.06-1.5-.13-3-.22-4.6l-1.07,0c-1.18,0-2.35-.09-3.53-.15s-2.28-.14-3.42-.23l-.29,0q-7.75-.61-15.63-2.05l-2.39-.45-1.28-.26c-2.76-.56-5.42-1.21-8-1.95-1.49-.4-2.95-.87-4.37-1.36a80.23,80.23,0,0,1-9.39-3.9q-.78-.37-1.53-.78A72.84,72.84,0,0,1,25.85,126c-.83-.74-1.67-1.55-2.51-2.35-.68-.69-1.36-1.37-2-2.08a90.48,90.48,0,0,1-6.92-7.84c-.18-.24-.36-.47-.53-.71q-.78-1-1.44-2a35.49,35.49,0,0,1-1.95-3.22A23.84,23.84,0,0,1,8,101.05a100.47,100.47,0,0,0-2.61,24.49,51.42,51.42,0,0,0,.71,7.1c1.33,7.12.91,13,1,18.91,0,.37,0,.73,0,1.09,0,.54,0,1.08,0,1.63l0,.51c0,.53.06,1.05.11,1.58l0,.33,0,.31c0,.16,0,.32,0,.48s0,.26,0,.38l.06.51c0,.17,0,.34.07.51.15,1,.34,2.1.58,3.18,0,.19.09.39.14.58l.15.58h0l.15.58.27.92.14.44c.11.36.24.73.37,1.1q.3.87.66,1.77c1.94,5.33,4.56,8.54,7.16,13.52,2.32,4.22,5.85,11.09,9.66,15.39l.08.08,0,0,.37.4a17.79,17.79,0,0,0,1.77,1.65,1.67,1.67,0,0,0,.16.12l.33.25.36.25c7.25,4.67,12.2,7.2,20.75,14.37a11.91,11.91,0,0,0,1,.73l.48.3c.42.25.89.5,1.4.76s.83.4,1.29.61h0l.59.26,1.22.49.78.29c1,.39,2.18.77,3.35,1.12l.9.26.9.25q.47.14.93.24l.93.23,1,.22c.47.1,1,.21,1.43.3l1,.18.48.09,1.44.23c5.16.77,10.24.79,13.76-.56,2.67-1,6-1.35,7.68-4.51,2-3.87,1.23-21.91.33-30.41-1.18-6.12.61-10,1-20.29A118.46,118.46,0,0,0,92.15,152.3ZM66.43,163.42c1.59,4.65.52,10.41,2.14,13.89h0a5.56,5.56,0,0,0,.43.76c.83,1.37,3.45,4.38,4.6,7.94a9.27,9.27,0,0,1,.11,5.94c-1.33,3.44-4.92,5.12-8.48,5.09a19.23,19.23,0,0,1-9.7-3.22c-4.83-2.47-15.86-7.14-15.08-18.88,0-2.07.74-4.5.11-6.23s-1.91-3.13-3.19-4.87a5.85,5.85,0,0,1-1.44-4.45c.48-2.65,3.87-3.62,6.53-1.45,1,.7,4.17,4.19,6.46,2.14a6.06,6.06,0,0,0,1.22-1.87,4.89,4.89,0,0,1,4-2.57,11.19,11.19,0,0,1,11.29,5.65,10.37,10.37,0,0,1,.53,1C66.14,162.64,66.29,163,66.43,163.42ZM26.82,135a21.89,21.89,0,0,1,1.55,6.23c.42,1.65,4.71,6.54,5.88,9.91a2.76,2.76,0,0,1-.08,2.64,2.07,2.07,0,0,1-1.08.63c-2.22.65-3.48-2-7.68-8.88l-.32-.53c-1.59-2.78-1.88-6.59-5.1-8.35a9.55,9.55,0,0,1-2.58-1.41c-1.93-1.4-1.91-3.48-.28-4.5a2.1,2.1,0,0,1,.26-.13C19.78,129.44,24.67,130.61,26.82,135Z"/><path id="_3" data-name="3" class="cls-4" d="M92.15,152.3c-.06-1.5-.13-3-.22-4.6l-1.07,0c-1.18,0-2.35-.09-3.53-.15s-2.28-.14-3.42-.23l-.29,0q-7.75-.61-15.63-2.05l-2.39-.45-1.28-.26c-2.76-.56-5.42-1.21-8-1.95-1.49-.4-2.95-.87-4.37-1.36a80.23,80.23,0,0,1-9.39-3.9q-.78-.37-1.53-.78A72.84,72.84,0,0,1,25.85,126c-.83-.74-1.67-1.55-2.51-2.35-.68-.69-1.36-1.37-2-2.08a90.48,90.48,0,0,1-6.92-7.84c-.18-.24-.36-.47-.53-.71q-.78-1-1.44-2a35.49,35.49,0,0,1-1.95-3.22A23.84,23.84,0,0,1,8,101.05a100.47,100.47,0,0,0-2.61,24.49,51.42,51.42,0,0,0,.71,7.1c1.33,7.12.91,13,1,18.91,0,.37,0,.73,0,1.09,0,.54,0,1.08,0,1.63l0,.51c0,.53.06,1.05.11,1.58l0,.33,0,.31c0,.16,0,.32,0,.48s0,.26,0,.38l.06.51c0,.17,0,.34.07.51.15,1,.34,2.1.58,3.18,0,.19.09.39.14.58l.15.58h0l.15.58.27.92.14.44c.11.36.24.73.37,1.1s.22.7.34,1.06c1.93,5.68,4.55,8.89,7.15,13.87,2.39,4.33,6.05,11.49,10,15.75l.08.08,0,0h0c.13.13.25.27.37.4a17.79,17.79,0,0,0,1.77,1.65,1.67,1.67,0,0,0,.16.12l.33.25.36.25c7.25,4.67,12.2,7.2,20.75,14.37a11.91,11.91,0,0,0,1,.73l.48.3c.42.25.89.5,1.4.76s.83.4,1.29.61h0l.59.26,1.22.49.78.29c1,.39,2.18.77,3.35,1.12l.9.26.9.25q.47.14.93.24l.93.23,1,.22c.47.1,1,.21,1.43.3l1,.18.48.09,1.44.23c5.16.77,10.24.79,13.76-.56,2.67-1,6-1.35,7.68-4.51,2-3.87,1.23-21.91.33-30.41-1.18-6.12.61-10,1-20.29A118.46,118.46,0,0,0,92.15,152.3Zm-26.32,10a12.55,12.55,0,0,1,.6,1.15c2,4.37,1.11,10,2.14,13.89h0a7.28,7.28,0,0,0,.93,2.16A45.48,45.48,0,0,1,73.6,186a10.33,10.33,0,0,1,.72,7.66c-1.36,3.52-5,5.25-8.68,5.21a19.67,19.67,0,0,1-9.92-3.29c-4.95-2.53-16.23-7.7-15.44-19.71,0-2.12.61-4.4,0-6.18s-1.86-3-3.18-4.82c-1.68-2.26-1.83-4.19-1.14-5.49,1-2,4-2.49,6.37-.55,1,.72,4.27,4.29,6.61,2.19.73-.57,1-1.66,1.74-2.65a5.19,5.19,0,0,1,3.62-1.89,11.45,11.45,0,0,1,11.54,5.75ZM26.29,135.33a22.62,22.62,0,0,1,1.59,6.38c.39,1.49,3.87,5.59,5.49,8.91a5.75,5.75,0,0,1,.8,3.13,1.79,1.79,0,0,1-1.45,1.45c-2.33.68-3.63-2.16-8.2-9.64-.2-.35-.38-.73-.56-1.11-1.19-2.68-1.77-5.85-4.65-7.43a9.49,9.49,0,0,1-2.65-1.44c-2-1.44-1.95-3.56-.28-4.6a3.5,3.5,0,0,1,1-.4C20,129.92,24.3,131.28,26.29,135.33Z"/><path id="_2s" data-name="2s" class="cls-5" d="M92.15,152.3c-.06-1.5-.13-3-.22-4.6l-1.07,0c-1.18,0-2.35-.09-3.53-.15s-2.28-.14-3.42-.23l-.29,0q-7.75-.61-15.63-2.05l-2.39-.45a38.79,38.79,0,0,1-5.11-.7c-8.93-1.62-14.26-4-18-6.77q-.78-.37-1.53-.78A72.84,72.84,0,0,1,25.85,126c-.83-.74-1.67-1.55-2.51-2.35-.68-.69-1.36-1.37-2-2.08a90.48,90.48,0,0,1-6.92-7.84c-.18-.24-.36-.47-.53-.71q-.78-1-1.44-2a35.49,35.49,0,0,1-1.95-3.22A23.84,23.84,0,0,1,8,101.05a100.47,100.47,0,0,0-2.61,24.49,51.42,51.42,0,0,0,.71,7.1c1.33,7.12.91,13,1,18.91,0,.37,0,.73,0,1.09,0,.54,0,1.08,0,1.63l0,.51c0,.53.06,1.05.11,1.58l0,.33,0,.31c0,.16,0,.32,0,.48s0,.26,0,.38l.06.51c0,.17,0,.34.07.51.15,1,.34,2.1.58,3.18,0,.19.09.39.14.58l.15.58h0l.15.58.27.92.14.44c.11.36.24.73.37,1.1q.3.87.66,1.77c1.94,5.33,4.56,8.54,7.16,13.52,2.32,4.22,5.85,11.09,9.66,15.39l.08.08,0,0,.37.4a17.79,17.79,0,0,0,1.77,1.65,1.67,1.67,0,0,0,.16.12l.33.25.36.25c7.25,4.67,12.2,7.2,20.75,14.37a11.91,11.91,0,0,0,1,.73l.48.3c.42.25.89.5,1.4.76s.83.4,1.29.61h0l.59.26,1.22.49.78.29c1,.39,2.18.77,3.35,1.12l.9.26.9.25q.47.14.93.24l.93.23,1,.22c.47.1,1,.21,1.43.3l1,.18.48.09,1.44.23c5.16.77,10.24.79,13.76-.56,2.67-1,6-1.35,7.68-4.51,2-3.87,1.23-21.91.33-30.41-1.18-6.12.61-10,1-20.29A118.46,118.46,0,0,0,92.15,152.3ZM30,131.94c1.27,2.1,2.88,4.2,4.16,6.64a16.18,16.18,0,0,0,2.23,4.88c8,9.46,27.06-1.5,37.71,7.64a14.36,14.36,0,0,1,2.6,3.07,12.61,12.61,0,0,1,1.83,9.47c0,.17-.07.33-.12.49-.82,3.27-3.22,6.24-3.25,9.54-.07,6.59,7.06,16.64,6.33,23.22-.36,3.47-3.65,7.25-11.15,7.52-16.61.52-35-14.95-34.9-21.2h0c0-1.41.73-2.67,1.07-4.34a9.91,9.91,0,0,0-1.13-6.6c-3.19-6.63-11.34-9.27-14.2-15.9-1.59-3.48-.12-8.1-1.39-11.58a76.78,76.78,0,0,0-4.19-7.16c-2.22-3.83-3.81-7.91-.85-11.4a4.74,4.74,0,0,1,2.9-1.72C21,123.82,26.05,125.59,30,131.94Z"/><path id="_2" data-name="2" class="cls-6" d="M92.15,152.3c-.06-1.5-.13-3-.22-4.6l-1.07,0c-1.18,0-2.35-.09-3.53-.15s-2.28-.14-3.42-.23l-.29,0q-7.75-.61-15.63-2.05a27.8,27.8,0,0,1-7.28-.68c-10.3-1.87-15.91-4.79-19.7-8A72.84,72.84,0,0,1,25.85,126c-.83-.74-1.67-1.55-2.51-2.35-.68-.69-1.36-1.37-2-2.08a90.48,90.48,0,0,1-6.92-7.84c-.18-.24-.36-.47-.53-.71q-.78-1-1.44-2a35.49,35.49,0,0,1-1.95-3.22A23.84,23.84,0,0,1,8,101.05a100.47,100.47,0,0,0-2.61,24.49,51.42,51.42,0,0,0,.71,7.1c1.33,7.12.91,13,1,18.91,0,.37,0,.73,0,1.09,0,.54,0,1.08,0,1.63l0,.51c0,.53.06,1.05.11,1.58l0,.33,0,.31c0,.16,0,.32,0,.48s0,.26,0,.38l.06.51c0,.17,0,.34.07.51.15,1,.34,2.1.58,3.18,0,.19.09.39.14.58l.15.58h0l.15.58.27.92.14.44c.11.36.24.73.37,1.1s.22.7.34,1.06c1.93,5.68,4.55,8.89,7.15,13.87,2.39,4.33,6.05,11.49,10,15.75l.08.08,0,0h0c.13.13.25.27.37.4a17.79,17.79,0,0,0,1.77,1.65,1.67,1.67,0,0,0,.16.12l.33.25.36.25c7.25,4.67,12.2,7.2,20.75,14.37a11.91,11.91,0,0,0,1,.73l.48.3c.42.25.89.5,1.4.76s.83.4,1.29.61h0l.59.26,1.22.49.78.29c1,.39,2.18.77,3.35,1.12l.9.26.9.25q.47.14.93.24l.93.23,1,.22c.47.1,1,.21,1.43.3l1,.18.48.09,1.44.23c5.16.77,10.24.79,13.76-.56,2.67-1,6-1.35,7.68-4.51,2-3.87,1.23-21.91.33-30.41-1.18-6.12.61-10,1-20.29A118.46,118.46,0,0,0,92.15,152.3ZM17.66,124.51c3.39-.39,8.18,1.56,12,7.67,1.31,2.14,2.94,4.28,4.25,6.77a16.53,16.53,0,0,0,2.27,5c8.19,9.64,27.52-1.48,38.38,7.83a14.67,14.67,0,0,1,2.17,2.42,13.09,13.09,0,0,1,2.4,10c0,.1,0,.21-.07.32-.7,3.52-3.38,6.68-3.42,10.21-.07,6.72,7.2,16.86,6.46,23.57-.37,3.53-3.73,7.38-11.36,7.66-16.93.52-35.39-15.73-35.33-22.09,0-.23,0-.45.06-.67h0c.21-1.38.93-2.58,1.07-4.34a10.77,10.77,0,0,0-1.35-5.6c-3.24-6.76-11.53-9.47-14.45-16.23-1.62-3.55-.15-8.23-1.44-11.78-1.12-2.63-3.62-5.82-5.27-9.1s-2.45-6.79.1-9.8A5.07,5.07,0,0,1,17.66,124.51Z"/><path id="_1s" data-name="1s" class="cls-7" d="M92.15,152.3c-.06-1.5-.13-3-.22-4.6l-1.07,0c-1.18,0-2.35-.09-3.53-.15s-2.28-.14-3.42-.23l-.29,0a19.31,19.31,0,0,1,2.46,6.49c.45,3.3-1,7-2.36,10.83s-2.7,7.56-2.09,11c.91,5.55,2.62,18.61,3.53,24.16,1.51,11.1-9.57,11.62-20.27,9.09a55.15,55.15,0,0,1-12.59-4.44c-18.74-10.59-23.2-16.36-32.38-39a108.37,108.37,0,0,1-7.27-30.58h0c-.63-7.52-.31-15,1.73-21.18-.18-.24-.36-.47-.53-.71q-.78-1-1.44-2a35.49,35.49,0,0,1-1.95-3.22A23.84,23.84,0,0,1,8,101.05a100.47,100.47,0,0,0-2.61,24.49,51.42,51.42,0,0,0,.71,7.1c1.33,7.12.91,13,1,18.91,0,.37,0,.73,0,1.09,0,.54,0,1.08,0,1.63l0,.51c0,.53.06,1.05.11,1.58l0,.33,0,.31c0,.16,0,.32,0,.48s0,.26,0,.38l.06.51c0,.17,0,.34.07.51.15,1,.34,2.1.58,3.18,0,.19.09.39.14.58l.15.58h0l.15.58.27.92.14.44c.11.36.24.73.37,1.1q.3.87.66,1.77c1.94,5.33,4.56,8.54,7.16,13.52,2.32,4.22,5.85,11.09,9.66,15.39l.08.08,0,0,.37.4a17.79,17.79,0,0,0,1.77,1.65,1.67,1.67,0,0,0,.16.12l.33.25.36.25c7.25,4.67,12.2,7.2,20.75,14.37a11.91,11.91,0,0,0,1,.73l.48.3c.42.25.89.5,1.4.76s.83.4,1.29.61h0l.59.26,1.22.49.78.29c1,.39,2.18.77,3.35,1.12l.9.26.9.25q.47.14.93.24l.93.23,1,.22c.47.1,1,.21,1.43.3l1,.18.48.09,1.44.23c5.16.77,10.24.79,13.76-.56,2.67-1,6-1.35,7.68-4.51,2-3.87,1.23-21.91.33-30.41-1.18-6.12.61-10,1-20.29A118.46,118.46,0,0,0,92.15,152.3Z"/><path id="_1" data-name="1" class="cls-8" d="M92.15,152.3c-.06-1.5-.13-3-.22-4.6l-1.07,0c-1.18,0-2.35-.09-3.53-.15s-2.28-.14-3.42-.23a21.56,21.56,0,0,1,2.79,7.19c.42,3.12-.78,6.61-2.07,10.17-1.49,4.1-3.1,8.28-2.43,12.08.94,5.67,2.69,18.85,3.62,24.51,1.54,11.33-9.66,12-20.58,9.45a55.41,55.41,0,0,1-12.8-4.52C33.3,195.35,28.75,189.49,19.37,166.4a111.28,111.28,0,0,1-7.56-32.34c-.55-7.53-.12-15,2-21.08q-.78-1-1.44-2a35.49,35.49,0,0,1-1.95-3.22A23.84,23.84,0,0,1,8,101.05a100.47,100.47,0,0,0-2.61,24.49,51.42,51.42,0,0,0,.71,7.1c1.33,7.12.91,13,1,18.91,0,.37,0,.73,0,1.09,0,.54,0,1.08,0,1.63l0,.51c0,.53.06,1.05.11,1.58l0,.33,0,.31c0,.16,0,.32,0,.48s0,.26,0,.38l.06.51c0,.17,0,.34.07.51.15,1,.34,2.1.58,3.18,0,.19.09.39.14.58l.15.58h0l.15.58.27.92.14.44c.11.36.24.73.37,1.1q.3.87.66,1.77c1.94,5.33,4.56,8.54,7.16,13.52,2.32,4.22,5.85,11.09,9.66,15.39l.08.08,0,0,.37.4a17.79,17.79,0,0,0,1.77,1.65,1.67,1.67,0,0,0,.16.12l.33.25.36.25c7.25,4.67,12.2,7.2,20.75,14.37a11.91,11.91,0,0,0,1,.73l.48.3c.42.25.89.5,1.4.76s.83.4,1.29.61h0l.59.26,1.22.49.78.29c1,.39,2.18.77,3.35,1.12l.9.26.9.25q.47.14.93.24l.93.23,1,.22c.47.1,1,.21,1.43.3l1,.18.48.09,1.44.23c5.16.77,10.24.79,13.76-.56,2.67-1,6-1.35,7.68-4.51,2-3.87,1.23-21.91.33-30.41-1.18-6.12.61-10,1-20.29A118.46,118.46,0,0,0,92.15,152.3Z"/></g><g id="brain-2" data-name="brain"><path id="_4-2" data-name="4" class="cls-2" d="M182.41,123.71c0,.21,0,.42,0,.63v.34a.22.22,0,0,1,0,.08c0,.19,0,.38,0,.57v.24c0,.17,0,.34,0,.51s0,.48,0,.71,0,.55-.05.82l0,.39-.06.76-.09.89a.77.77,0,0,0,0,.15c0,.28-.06.55-.1.81a1.1,1.1,0,0,1,0,.18l-.12.84c0,.34-.1.67-.16,1-1.21,6.47-1,12-1,17.32,0,.53,0,1.06,0,1.59,0,.37,0,.73,0,1.09s0,.54,0,.81,0,.55,0,.82a4.36,4.36,0,0,1,0,.51c0,.26,0,.52,0,.78l-.06.8,0,.33,0,.31-.06.56c0,.15,0,.31,0,.47l0,.21c0,.31-.08.63-.13.95-.14.95-.32,1.9-.54,2.87,0,.19-.09.39-.13.58l-.15.58h0c0,.19-.1.38-.16.58s-.17.61-.27.92c0,.15-.09.29-.13.44-.12.36-.24.73-.37,1.1,0,.14-.1.29-.16.44s-.11.29-.16.44-.23.59-.35.89-.3.82-.46,1.21l-.18.42c-.07.18-.14.35-.22.52s-.14.32-.22.48l-.24.52-.24.49c-.07.16-.15.32-.23.48a.56.56,0,0,0-.05.08l-.36.7c-.91,1.68-1.87,3.24-2.87,4.91l-.34.59a.21.21,0,0,0,0,.06l-.63,1.09-.38.67c-.1.2-.22.39-.32.6l-.38.7-.22.4c-.05.1-.1.2-.16.3-1.28,2.35-2.87,5.34-4.65,8.25l-.38.6c-.58.92-1.18,1.83-1.79,2.7l-.26.36a34.06,34.06,0,0,1-2.19,2.78l-.08.08,0,0-.19.2a1.8,1.8,0,0,1-.19.2l-.54.56-.23.22-.23.21-.21.2-.39.32-.17.14a1.58,1.58,0,0,1-.15.12l-.22.17-.11.08-.36.25-.07,0-1.27.81-.71.45-1.2.76c-1.69,1.05-3.28,2-4.88,3.05l-1.12.72c-1.72,1.11-3.47,2.3-5.36,3.69l-.65.48-.35.27c-.34.25-.67.5-1,.77l-.8.62-.65.51-.75.6-.76.62h0l-.6.5-.58.48-.22.18c-.22.18-.49.36-.77.55l-.49.3c-.41.25-.88.5-1.39.76l-.63.3-.66.31-.7.3-.55.23-.56.22-.78.29-.4.15-1.23.43-.85.27-.88.27-.89.26-.91.25c-.3.09-.61.16-.92.24l-.93.23h0l-.94.22-.11,0-.6.13-.72.15-1,.18-.48.09-1.44.23H118l-1.58.21h-.08l-.68.07-.24,0-.71.07c-.58,0-1.16.08-1.73.11l-.59,0h-.91a20.5,20.5,0,0,1-7.18-1.09c-2.67-1-6-1.35-7.68-4.51-2-3.87-1.23-21.91-.33-30.41a22.11,22.11,0,0,0,.37-5.36c0-.13,0-.26,0-.4,0-.45-.06-.91-.11-1.37,0-.16,0-.32,0-.47s0-.32,0-.48,0-.32,0-.48v-.08c0-.14,0-.28,0-.42h0c0-.25,0-.5-.08-.75-.07-.51-.13-1-.2-1.6,0-.27-.06-.55-.1-.84-.12-1.06-.24-2.2-.35-3.45l-.09-1.2q-.06-.95-.12-2v-.12l0-.58,0-.72c0-.27,0-.54,0-.82,0-.84,0-1.72,0-2.64,0-.49,0-1,0-1.52s0-1,0-1.6c0-1.29.09-2.64.17-4.09,0-.61.08-1.25.13-1.9,0-.42,0-.84,0-1.27,0-.85.08-1.71.13-2.59,0-.24,0-.48,0-.73h1c1.18,0,2.36-.06,3.54-.09s2.3-.12,3.45-.2l.3,0a118.6,118.6,0,0,0,15.59-2.19c.65-.13,1.29-.27,1.94-.42q5.19-1.17,10.37-2.84c1.27-.4,2.51-.84,3.78-1.27,1.95-.71,3.93-1.45,5.88-2.26s3.57-1.58,5.26-2.47l1.18-.63a70,70,0,0,0,13.41-9.69c.84-.77,1.67-1.55,2.51-2.39.5-.46,1-1,1.46-1.45,3-3.29,5.56-6.24,7.62-9,.17-.24.35-.47.52-.7.42-.57.83-1.13,1.21-1.69.74-1.08,1.42-2.1,2-3.09a42.83,42.83,0,0,0,3-5.82c.27,1.23.52,2.48.75,3.72.07.38.14.76.2,1.13l.18,1c0,.08,0,.16,0,.24.06.33.11.66.16,1s.12.76.17,1.13c.12.8.23,1.6.33,2.39,0,.21.05.41.07.62s.07.51.09.77.07.63.1.94.06.55.08.82c.09.92.16,1.84.22,2.75,0,.31,0,.61.05.91s0,.34,0,.5,0,.5,0,.75,0,.25,0,.37l0,.93C182.41,122.27,182.42,123,182.41,123.71Z"/><path id="_3s-2" data-name="3s" class="cls-3" d="M182.4,121.53l0-.93c0-.12,0-.25,0-.37s0-.5,0-.75,0-.33,0-.5,0-.6-.05-.91c-.06-.91-.13-1.83-.22-2.75,0-.27-.05-.55-.08-.82s-.06-.63-.1-.94-.06-.51-.09-.77,0-.41-.07-.62c-.1-.79-.21-1.59-.33-2.39-.05-.37-.11-.75-.17-1.13s-.1-.66-.16-1c0-.08,0-.16,0-.24l-.18-1c-.06-.37-.13-.75-.2-1.13-.23-1.24-.48-2.49-.75-3.72a42.83,42.83,0,0,1-3,5.82c-.62,1-1.3,2-2,3.09-.38.56-.79,1.12-1.21,1.69-.17.23-.35.46-.52.7-2.06,2.71-4.58,5.66-7.62,9-.5.49-1,1-1.46,1.45-.84.84-1.67,1.62-2.51,2.39a70,70,0,0,1-13.41,9.69l-1.18.63c-1.69.89-3.45,1.71-5.26,2.47s-3.93,1.55-5.88,2.26c-1.27.43-2.51.87-3.78,1.27q-5.19,1.68-10.37,2.84c-.65.15-1.29.29-1.94.42a118.6,118.6,0,0,1-15.59,2.19l-.3,0c-1.15.08-2.3.15-3.45.2s-2.36.09-3.54.09h-1c0,.25,0,.49,0,.73,0,.88-.09,1.74-.13,2.59,0,.43,0,.85,0,1.27,0,.65-.09,1.29-.13,1.9-.08,1.45-.13,2.81-.17,4.09,0,.55,0,1.08,0,1.6s0,1,0,1.52c0,.92,0,1.8,0,2.64,0,.28,0,.55,0,.82l0,.72,0,.58v.12q.06,1,.12,2l.09,1.2c.11,1.25.23,2.39.35,3.45,0,.29.07.57.1.84.07.56.13,1.09.2,1.6,0,.25.06.5.08.75h0c0,.14,0,.28,0,.42v.08c0,.16,0,.32,0,.48s0,.32,0,.48,0,.31,0,.47c0,.46.08.92.11,1.37,0,.14,0,.27,0,.4a22.11,22.11,0,0,1-.37,5.36c-.9,8.5-1.71,26.54.33,30.41,1.69,3.16,5,3.48,7.68,4.51a20.5,20.5,0,0,0,7.18,1.09h.91l.59,0c.57,0,1.15-.06,1.73-.11l.71-.07.24,0,.68-.07h.08l1.58-.21H118l1.44-.23.48-.09,1-.18.72-.15.6-.13.11,0,.94-.22h0l.93-.23c.31-.08.62-.15.92-.24l.91-.25.89-.26.88-.27.85-.27,1.23-.43.4-.15.78-.29.56-.22.55-.23.7-.3.66-.31.63-.3c.51-.26,1-.51,1.39-.76l.49-.3c.28-.19.55-.37.77-.55l.22-.18.58-.48.6-.5h0l.76-.62.75-.6.65-.51.8-.62c.34-.27.67-.52,1-.77l.35-.27.65-.48c1.89-1.39,3.64-2.58,5.36-3.69l1.12-.72c1.6-1,3.19-2,4.88-3.05l1.2-.76.71-.45,1.27-.81.07,0,.36-.25.11-.08.22-.17a1.58,1.58,0,0,0,.15-.12l.17-.14.39-.32.21-.2.23-.21.23-.22.54-.56a1.8,1.8,0,0,0,.19-.2l.19-.2,0,0,.08-.08a34.06,34.06,0,0,0,2.19-2.78l.26-.36c.61-.87,1.21-1.78,1.79-2.7l.38-.6c1.78-2.91,3.37-5.9,4.65-8.25.06-.1.11-.2.16-.3l.22-.4.38-.7c.1-.2.22-.4.32-.6l.38-.67.63-1.09a.21.21,0,0,1,0-.06l.34-.59c1-1.67,2-3.23,2.87-4.91l.36-.7a.56.56,0,0,1,.05-.08c.08-.16.16-.32.23-.48l.24-.49.24-.52c.08-.16.15-.32.22-.48s.15-.34.22-.52l.18-.42c.16-.39.31-.79.46-1.21s.24-.6.35-.89.11-.29.16-.44.11-.3.16-.44c.13-.37.25-.74.37-1.1,0-.15.09-.29.13-.44.1-.31.19-.61.27-.92s.11-.39.16-.58h0l.15-.58c0-.19.09-.39.13-.58.22-1,.4-1.92.54-2.87.05-.32.09-.64.13-.95l0-.21c0-.16,0-.32,0-.47l.06-.56,0-.31,0-.33.06-.8c0-.26,0-.52,0-.78a4.36,4.36,0,0,0,0-.51c0-.27,0-.55,0-.82s0-.54,0-.81,0-.72,0-1.09c0-.53,0-1.06,0-1.59,0-5.37-.24-10.85,1-17.32.06-.34.11-.67.16-1l.12-.84a1.1,1.1,0,0,0,0-.18c0-.26.07-.53.1-.81a.77.77,0,0,1,0-.15l.09-.89.06-.76,0-.39c0-.27,0-.54.05-.82s0-.47,0-.71,0-.34,0-.51v-.24c0-.19,0-.38,0-.57a.22.22,0,0,0,0-.08v-.34c0-.21,0-.42,0-.63C182.42,123,182.41,122.27,182.4,121.53Zm-63.23,55.78c1.62-3.47.54-9.25,2.15-13.91a10.21,10.21,0,0,1,.46-1.15,9.85,9.85,0,0,1,.51-1,11.19,11.19,0,0,1,11.29-5.65c4.22.65,3.93,3.41,5.24,4.44,2.29,2,5.49-1.44,6.46-2.14,2.66-2.17,6-1.2,6.53,1.45a5.85,5.85,0,0,1-1.44,4.45c-1.28,1.74-2.56,3.13-3.19,4.87s.08,4.16.11,6.23a14.82,14.82,0,0,1-2.89,10.12c-3.45,4.69-9.09,7.18-12.2,8.76a19.2,19.2,0,0,1-9.69,3.22c-3.57,0-7.15-1.65-8.48-5.09a9.21,9.21,0,0,1,.11-5.94c1.14-3.56,3.77-6.57,4.6-7.94a5.08,5.08,0,0,0,.42-.76Zm51.44-46.6c1.63,1,1.65,3.1-.28,4.5a9.7,9.7,0,0,1-2.58,1.41c-3.22,1.76-3.51,5.57-5.1,8.35-.31.5-.61,1-.89,1.46-2.16,3.58-3.49,5.88-4.64,7.07a2.31,2.31,0,0,1-2.47.88,2.07,2.07,0,0,1-1.08-.63c-2.08-2.52,5.24-10.37,5.8-12.55a21.89,21.89,0,0,1,1.55-6.23c2.14-4.36,7-5.53,9.43-4.39Z"/><path id="_3-2" data-name="3" class="cls-4" d="M182.4,121.53l0-.93c0-.12,0-.25,0-.37s0-.5,0-.75,0-.33,0-.5,0-.6-.05-.91c-.06-.91-.13-1.83-.22-2.75,0-.27-.05-.55-.08-.82s-.06-.63-.1-.94-.06-.51-.09-.77,0-.41-.07-.62c-.1-.79-.21-1.59-.33-2.39-.05-.37-.11-.75-.17-1.13s-.1-.66-.16-1c0-.08,0-.16,0-.24l-.18-1c-.06-.37-.13-.75-.2-1.13-.23-1.24-.48-2.49-.75-3.72a42.83,42.83,0,0,1-3,5.82c-.62,1-1.3,2-2,3.09-.38.56-.79,1.12-1.21,1.69-.17.23-.35.46-.52.7-2.06,2.71-4.58,5.66-7.62,9-.5.49-1,1-1.46,1.45-.84.84-1.67,1.62-2.51,2.39a70,70,0,0,1-13.41,9.69l-1.18.63c-1.69.89-3.45,1.71-5.26,2.47s-3.93,1.55-5.88,2.26c-1.27.43-2.51.87-3.78,1.27q-5.19,1.68-10.37,2.84c-.65.15-1.29.29-1.94.42a118.6,118.6,0,0,1-15.59,2.19l-.3,0c-1.15.08-2.3.15-3.45.2s-2.36.09-3.54.09h-1c0,.25,0,.49,0,.73,0,.88-.09,1.74-.13,2.59,0,.43,0,.85,0,1.27,0,.65-.09,1.29-.13,1.9-.08,1.45-.13,2.81-.17,4.09,0,.55,0,1.08,0,1.6s0,1,0,1.52c0,.92,0,1.8,0,2.64,0,.28,0,.55,0,.82l0,.72,0,.58v.12q.06,1,.12,2l.09,1.2c.11,1.25.23,2.39.35,3.45,0,.29.07.57.1.84.07.56.13,1.09.2,1.6,0,.25.06.5.08.75h0c0,.14,0,.28,0,.42v.08c0,.16,0,.32,0,.48s0,.32,0,.48,0,.31,0,.47c0,.46.08.92.11,1.37,0,.14,0,.27,0,.4a22.11,22.11,0,0,1-.37,5.36c-.9,8.5-1.71,26.54.33,30.41,1.69,3.16,5,3.48,7.68,4.51a20.5,20.5,0,0,0,7.18,1.09h.91l.59,0c.57,0,1.15-.06,1.73-.11l.71-.07.24,0,.68-.07h.08l1.58-.21H118l1.44-.23.48-.09,1-.18.72-.15.6-.13.11,0,.94-.22h0l.93-.23c.31-.08.62-.15.92-.24l.91-.25.89-.26.88-.27.85-.27,1.23-.43.4-.15.78-.29.56-.22.55-.23.7-.3.66-.31.63-.3c.51-.26,1-.51,1.39-.76l.49-.3c.28-.19.55-.37.77-.55l.22-.18.58-.48.6-.5h0l.76-.62.75-.6.65-.51.8-.62c.34-.27.67-.52,1-.77l.35-.27.65-.48c1.89-1.39,3.64-2.58,5.36-3.69l1.12-.72c1.6-1,3.19-2,4.88-3.05l1.2-.76.71-.45,1.27-.81.07,0,.36-.25.11-.08.22-.17a1.58,1.58,0,0,0,.15-.12l.17-.14.39-.32.21-.2.23-.21.23-.22.54-.56c.13-.13.25-.27.37-.4h0l0,0,.08-.08c3.94-4.26,7.6-11.42,10-15.75,1.76-3.37,3.52-5.93,5.08-9a36.17,36.17,0,0,0,2.07-4.88c.12-.36.23-.71.34-1.06s.25-.74.37-1.1c0-.15.09-.29.13-.44.1-.31.19-.61.27-.92s.11-.39.16-.58h0l.15-.58c0-.19.09-.39.13-.58.22-1,.4-1.92.54-2.87.05-.32.09-.64.13-.95l0-.21c0-.16,0-.32,0-.47l.06-.56,0-.31,0-.33.06-.8c0-.26,0-.52,0-.78a4.36,4.36,0,0,0,0-.51c0-.27,0-.55,0-.82s0-.54,0-.81,0-.72,0-1.09c0-.53,0-1.06,0-1.59,0-5.37-.24-10.85,1-17.32.06-.34.11-.67.16-1l.12-.84a1.1,1.1,0,0,0,0-.18c0-.26.07-.53.1-.81a.77.77,0,0,1,0-.15l.09-.89.06-.76,0-.39c0-.27,0-.54.05-.82s0-.47,0-.71,0-.34,0-.51v-.24c0-.19,0-.38,0-.57a.22.22,0,0,0,0-.08v-.34c0-.21,0-.42,0-.63C182.42,123,182.41,122.27,182.4,121.53Zm-64.16,57.94a7,7,0,0,0,.92-2.16h0c1-3.88.17-9.54,2.15-13.91a11.07,11.07,0,0,1,.59-1.13h0a11.45,11.45,0,0,1,11.55-5.78c4.33.66,4,3.49,5.36,4.54,2.35,2.1,5.63-1.47,6.62-2.19,2.37-1.94,5.32-1.42,6.37.55.69,1.29.54,3.22-1.15,5.49-1.31,1.78-2.53,3.05-3.17,4.82s-.05,4.06,0,6.18a15.7,15.7,0,0,1-2.5,9.81c-3.47,5.33-9.62,8.21-12.94,9.9a19.67,19.67,0,0,1-9.92,3.29c-3.65,0-7.32-1.69-8.69-5.21a10.33,10.33,0,0,1,.73-7.66A45.48,45.48,0,0,1,118.24,179.47ZM171.35,131c1.67,1,1.7,3.16-.28,4.6a9.44,9.44,0,0,1-2.64,1.44c-3.17,1.74-3.56,5.41-5,8.22l-.18.32c-2.65,4.34-4.19,7.12-5.49,8.55-.92,1-1.72,1.37-2.7,1.09a1.76,1.76,0,0,1-1.45-1.45c-.51-3.15,5.76-10,6.28-12a22.31,22.31,0,0,1,1.6-6.38c2-4.05,6.29-5.41,8.9-4.75A3.43,3.43,0,0,1,171.35,131Z"/><path id="_2s-2" data-name="2s" class="cls-5" d="M182.4,121.53l0-.93c0-.12,0-.25,0-.37s0-.5,0-.75,0-.33,0-.5,0-.6-.05-.91c-.06-.91-.13-1.83-.22-2.75,0-.27-.05-.55-.08-.82s-.06-.63-.1-.94-.06-.51-.09-.77,0-.41-.07-.62c-.1-.79-.21-1.59-.33-2.39-.05-.37-.11-.75-.17-1.13s-.1-.66-.16-1c0-.08,0-.16,0-.24l-.18-1c-.06-.37-.13-.75-.2-1.13-.23-1.24-.48-2.49-.75-3.72a42.83,42.83,0,0,1-3,5.82c-.62,1-1.3,2-2,3.09-.38.56-.79,1.12-1.21,1.69-.17.23-.35.46-.52.7-2.06,2.71-4.58,5.66-7.62,9-.5.49-1,1-1.46,1.45-.84.84-1.67,1.62-2.51,2.39a70,70,0,0,1-13.41,9.69l-1.18.63c-3.72,3.28-23.39,8.81-25.29,8.84-.65.15-1.29.29-1.94.42a118.6,118.6,0,0,1-15.59,2.19l-.3,0c-1.15.08-2.3.15-3.45.2s-2.36.09-3.54.09h-1c0,.25,0,.49,0,.73,0,.88-.09,1.74-.13,2.59,0,.43,0,.85,0,1.27,0,.65-.09,1.29-.13,1.9-.08,1.45-.13,2.81-.17,4.09,0,.55,0,1.08,0,1.6s0,1,0,1.52c0,.92,0,1.8,0,2.64,0,.28,0,.55,0,.82l0,.72,0,.58v.12q.06,1,.12,2l.09,1.2c.11,1.25.23,2.39.35,3.45,0,.29.07.57.1.84.07.56.13,1.09.2,1.6,0,.25.06.5.08.75h0c0,.14,0,.28,0,.42v.08c0,.16,0,.32,0,.48s0,.32,0,.48,0,.31,0,.47c0,.46.08.92.11,1.37,0,.14,0,.27,0,.4a22.11,22.11,0,0,1-.37,5.36c-.9,8.5-1.71,26.54.33,30.41,1.69,3.16,5,3.48,7.68,4.51a20.5,20.5,0,0,0,7.18,1.09h.91l.59,0c.57,0,1.15-.06,1.73-.11l.71-.07.24,0,.68-.07h.08l1.58-.21H118l1.44-.23.48-.09,1-.18.72-.15.6-.13.11,0,.94-.22h0l.93-.23c.31-.08.62-.15.92-.24l.91-.25.89-.26.88-.27.85-.27,1.23-.43.4-.15.78-.29.56-.22.55-.23.7-.3.66-.31.63-.3c.51-.26,1-.51,1.39-.76l.49-.3c.28-.19.55-.37.77-.55l.22-.18.58-.48.6-.5h0l.76-.62.75-.6.65-.51.8-.62c.34-.27.67-.52,1-.77l.35-.27.65-.48c1.89-1.39,3.64-2.58,5.36-3.69l1.12-.72c1.6-1,3.19-2,4.88-3.05l1.2-.76.71-.45,1.27-.81.07,0,.36-.25.11-.08.22-.17a1.58,1.58,0,0,0,.15-.12l.17-.14.39-.32.21-.2.23-.21.23-.22.54-.56a1.8,1.8,0,0,0,.19-.2l.19-.2,0,0,.08-.08a34.06,34.06,0,0,0,2.19-2.78l.26-.36c.61-.87,1.21-1.78,1.79-2.7l.38-.6c1.78-2.91,3.37-5.9,4.65-8.25.06-.1.11-.2.16-.3l.22-.4.38-.7c.1-.2.22-.4.32-.6l.38-.67.63-1.09a.21.21,0,0,1,0-.06l.34-.59c1-1.67,2-3.23,2.87-4.91l.36-.7a.56.56,0,0,1,.05-.08c.08-.16.16-.32.23-.48l.24-.49.24-.52c.08-.16.15-.32.22-.48s.15-.34.22-.52l.18-.42c.16-.39.31-.79.46-1.21s.24-.6.35-.89.11-.29.16-.44.11-.3.16-.44c.13-.37.25-.74.37-1.1,0-.15.09-.29.13-.44.1-.31.19-.61.27-.92s.11-.39.16-.58h0l.15-.58c0-.19.09-.39.13-.58.22-1,.4-1.92.54-2.87.05-.32.09-.64.13-.95l0-.21c0-.16,0-.32,0-.47l.06-.56,0-.31,0-.33.06-.8c0-.26,0-.52,0-.78a4.36,4.36,0,0,0,0-.51c0-.27,0-.55,0-.82s0-.54,0-.81,0-.72,0-1.09c0-.53,0-1.06,0-1.59,0-5.37-.24-10.85,1-17.32.06-.34.11-.67.16-1l.12-.84a1.1,1.1,0,0,0,0-.18c0-.26.07-.53.1-.81a.77.77,0,0,1,0-.15l.09-.89.06-.76,0-.39c0-.27,0-.54.05-.82s0-.47,0-.71,0-.34,0-.51v-.24c0-.19,0-.38,0-.57a.22.22,0,0,0,0-.08v-.34c0-.21,0-.42,0-.63C182.42,123,182.41,122.27,182.4,121.53ZM111,154.22a14.29,14.29,0,0,1,2.64-3.12c10.64-9.14,29.67,1.82,37.71-7.64a16.43,16.43,0,0,0,2.23-4.88c1.27-2.44,2.88-4.54,4.16-6.64,4-6.35,9-8.12,12.35-7.43a4.74,4.74,0,0,1,2.9,1.72c3,3.6,1.27,7.81-1.06,11.74a70.14,70.14,0,0,0-4,6.82c-1.26,3.48.21,8.1-1.38,11.58a14,14,0,0,1-2.54,3.87c-3.66,4.11-9.18,6.85-11.67,12a9.89,9.89,0,0,0-1.12,6.6c.34,1.67,1.05,2.93,1.07,4.34h0c0,1.69-1.32,4.06-3.61,6.6-6.15,6.85-19.18,15-31.29,14.6-7.5-.27-10.79-4-11.16-7.52-.72-6.58,6.4-16.63,6.33-23.22,0-3.38-2.53-6.39-3.29-9.74,0-.1,0-.19-.07-.29a12.61,12.61,0,0,1,1.79-9.42Z"/><path id="_2-2" data-name="2" class="cls-6" d="M182.4,121.53l0-.93c0-.12,0-.25,0-.37s0-.5,0-.75,0-.33,0-.5,0-.6-.05-.91c-.06-.91-.13-1.83-.22-2.75,0-.27-.05-.55-.08-.82s-.06-.63-.1-.94-.06-.51-.09-.77,0-.41-.07-.62c-.1-.79-.21-1.59-.33-2.39-.05-.37-.11-.75-.17-1.13s-.1-.66-.16-1c0-.08,0-.16,0-.24l-.18-1c-.06-.37-.13-.75-.2-1.13-.23-1.24-.48-2.49-.75-3.72a42.83,42.83,0,0,1-3,5.82c-.62,1-1.3,2-2,3.09-.38.56-.79,1.12-1.21,1.69-.17.23-.35.46-.52.7-2.06,2.71-4.58,5.66-7.62,9-.5.49-1,1-1.46,1.45-.84.84-1.67,1.62-2.51,2.39a70,70,0,0,1-13.41,9.69c-3.8,3.71-9.46,7.13-21,9.23a27.33,27.33,0,0,1-7.38.66,118.6,118.6,0,0,1-15.59,2.19l-.3,0c-1.15.08-2.3.15-3.45.2s-2.36.09-3.54.09h-1c0,.25,0,.49,0,.73,0,.88-.09,1.74-.13,2.59,0,.43,0,.85,0,1.27,0,.65-.09,1.29-.13,1.9-.08,1.45-.13,2.81-.17,4.09,0,.55,0,1.08,0,1.6s0,1,0,1.52c0,.92,0,1.8,0,2.64,0,.28,0,.55,0,.82l0,.72,0,.58v.12q.06,1,.12,2l.09,1.2c.11,1.25.23,2.39.35,3.45,0,.29.07.57.1.84.07.56.13,1.09.2,1.6,0,.25.06.5.08.75h0c0,.14,0,.28,0,.42v.08c0,.16,0,.32,0,.48s0,.32,0,.48,0,.31,0,.47c0,.46.08.92.11,1.37,0,.14,0,.27,0,.4a22.11,22.11,0,0,1-.37,5.36c-.9,8.5-1.71,26.54.33,30.41,1.69,3.16,5,3.48,7.68,4.51a20.5,20.5,0,0,0,7.18,1.09h.91l.59,0c.57,0,1.15-.06,1.73-.11l.71-.07.24,0,.68-.07h.08l1.58-.21H118l1.44-.23.48-.09,1-.18.72-.15.6-.13.11,0,.94-.22h0l.93-.23c.31-.08.62-.15.92-.24l.91-.25.89-.26.88-.27.85-.27,1.23-.43.4-.15.78-.29.56-.22.55-.23.7-.3.66-.31.63-.3c.51-.26,1-.51,1.39-.76l.49-.3c.28-.19.55-.37.77-.55l.22-.18.58-.48.6-.5h0l.76-.62.75-.6.65-.51.8-.62c.34-.27.67-.52,1-.77l.35-.27.65-.48c1.89-1.39,3.64-2.58,5.36-3.69l1.12-.72c1.6-1,3.19-2,4.88-3.05l1.2-.76.71-.45,1.27-.81.07,0,.36-.25.11-.08.22-.17a1.58,1.58,0,0,0,.15-.12l.17-.14.39-.32.21-.2.23-.21.23-.22.54-.56c.13-.13.25-.27.37-.4h0l0,0,.08-.08c3.94-4.26,7.6-11.42,10-15.75,1.76-3.37,3.52-5.93,5.08-9a36.17,36.17,0,0,0,2.07-4.88c.12-.36.23-.71.34-1.06s.25-.74.37-1.1c0-.15.09-.29.13-.44.1-.31.19-.61.27-.92s.11-.39.16-.58h0l.15-.58c0-.19.09-.39.13-.58.22-1,.4-1.92.54-2.87.05-.32.09-.64.13-.95l0-.21c0-.16,0-.32,0-.47l.06-.56,0-.31,0-.33.06-.8c0-.26,0-.52,0-.78a4.36,4.36,0,0,0,0-.51c0-.27,0-.55,0-.82s0-.54,0-.81,0-.72,0-1.09c0-.53,0-1.06,0-1.59,0-5.37-.24-10.85,1-17.32.06-.34.11-.67.16-1l.12-.84a1.1,1.1,0,0,0,0-.18c0-.26.07-.53.1-.81a.77.77,0,0,1,0-.15l.09-.89.06-.76,0-.39c0-.27,0-.54.05-.82s0-.47,0-.71,0-.34,0-.51v-.24c0-.19,0-.38,0-.57a.22.22,0,0,0,0-.08v-.34c0-.21,0-.42,0-.63C182.42,123,182.41,122.27,182.4,121.53ZM111,154.22h0a14.79,14.79,0,0,1,2.21-2.47c10.85-9.31,30.19,1.81,38.38-7.83a16.53,16.53,0,0,0,2.27-5c1.3-2.49,2.94-4.63,4.24-6.77,3.81-6.11,8.59-8.06,12-7.67a5.07,5.07,0,0,1,3.55,1.85c2.54,3,1.78,6.42.12,9.76s-4.17,6.49-5.29,9.14c-1.29,3.55.18,8.23-1.44,11.78a14.58,14.58,0,0,1-2.43,3.77c-3.72,4.29-9.46,7.11-12,12.46a10.74,10.74,0,0,0-1.34,5.6c.13,1.76.86,3,1.07,4.34h0a4.91,4.91,0,0,1,.05.67c0,1.63-1.18,3.9-3.25,6.38-6,7.2-19.47,16.1-32.07,15.71-7.64-.28-11-4.13-11.37-7.66-.73-6.71,6.54-16.85,6.47-23.57,0-3.53-2.72-6.69-3.43-10.21,0-.18-.07-.35-.1-.53A13.1,13.1,0,0,1,111,154.22Z"/><path id="_1s-2" data-name="1s" class="cls-7" d="M182.4,121.53l0-.93c0-.12,0-.25,0-.37s0-.5,0-.75,0-.33,0-.5,0-.6-.05-.91c-.06-.91-.13-1.83-.22-2.75,0-.27-.05-.55-.08-.82s-.06-.63-.1-.94-.06-.51-.09-.77,0-.41-.07-.62c-.1-.79-.21-1.59-.33-2.39-.05-.37-.11-.75-.17-1.13s-.1-.66-.16-1c0-.08,0-.16,0-.24l-.18-1c-.06-.37-.13-.75-.2-1.13-.23-1.24-.48-2.49-.75-3.72a42.83,42.83,0,0,1-3,5.82c-.62,1-1.3,2-2,3.09-.38.56-.79,1.12-1.21,1.69-.17.23-.35.46-.52.7,2.28,6.25,2.68,14,2.05,21.81a110.31,110.31,0,0,1-6.87,29.81c-.14.35-.28.68-.42,1-5.67,14-9.54,21.51-16.09,27.73-4,3.85-9.13,7.19-16.29,11.24a55.15,55.15,0,0,1-12.59,4.44c-10.7,2.53-21.78,2-20.28-9.09.92-5.55,2.63-18.61,3.54-24.16.62-3.5-.75-7.35-2.14-11.16s-2.76-7.43-2.31-10.7a18.8,18.8,0,0,1,2.4-6.36l-.3,0c-1.15.08-2.3.15-3.45.2s-2.36.09-3.54.09h-1c0,.25,0,.49,0,.73,0,.88-.09,1.74-.13,2.59,0,.43,0,.85,0,1.27,0,.65-.09,1.29-.13,1.9-.08,1.45-.13,2.81-.17,4.09,0,.55,0,1.08,0,1.6s0,1,0,1.52c0,.92,0,1.8,0,2.64,0,.28,0,.55,0,.82l0,.72,0,.58v.12q.06,1,.12,2l.09,1.2c.11,1.25.23,2.39.35,3.45,0,.29.07.57.1.84.07.56.13,1.09.2,1.6,0,.25.06.5.08.75h0c0,.14,0,.28,0,.42v.08c0,.16,0,.32,0,.48s0,.32,0,.48,0,.31,0,.47c0,.46.08.92.11,1.37,0,.14,0,.27,0,.4a22.11,22.11,0,0,1-.37,5.36c-.9,8.5-1.71,26.54.33,30.41,1.69,3.16,5,3.48,7.68,4.51a20.5,20.5,0,0,0,7.18,1.09h.91l.59,0c.57,0,1.15-.06,1.73-.11l.71-.07.24,0,.68-.07h.08l1.58-.21H118l1.44-.23.48-.09,1-.18.72-.15.6-.13.11,0,.94-.22h0l.93-.23c.31-.08.62-.15.92-.24l.91-.25.89-.26.88-.27.85-.27,1.23-.43.4-.15.78-.29.56-.22.55-.23.7-.3.66-.31.63-.3c.51-.26,1-.51,1.39-.76l.49-.3c.28-.19.55-.37.77-.55l.22-.18.58-.48.6-.5h0l.76-.62.75-.6.65-.51.8-.62c.34-.27.67-.52,1-.77l.35-.27.65-.48c1.89-1.39,3.64-2.58,5.36-3.69l1.12-.72c1.6-1,3.19-2,4.88-3.05l1.2-.76.71-.45,1.27-.81.07,0,.36-.25.11-.08.22-.17a1.58,1.58,0,0,0,.15-.12l.17-.14.39-.32.21-.2.23-.21.23-.22.54-.56a1.8,1.8,0,0,0,.19-.2l.19-.2,0,0,.08-.08a34.06,34.06,0,0,0,2.19-2.78l.26-.36c.61-.87,1.21-1.78,1.79-2.7l.38-.6c1.78-2.91,3.37-5.9,4.65-8.25.06-.1.11-.2.16-.3l.22-.4.38-.7c.1-.2.22-.4.32-.6l.38-.67.63-1.09a.21.21,0,0,1,0-.06l.34-.59c1-1.67,2-3.23,2.87-4.91l.36-.7a.56.56,0,0,1,.05-.08c.08-.16.16-.32.23-.48l.24-.49.24-.52c.08-.16.15-.32.22-.48s.15-.34.22-.52l.18-.42c.16-.39.31-.79.46-1.21s.24-.6.35-.89.11-.29.16-.44.11-.3.16-.44c.13-.37.25-.74.37-1.1,0-.15.09-.29.13-.44.1-.31.19-.61.27-.92s.11-.39.16-.58h0l.15-.58c0-.19.09-.39.13-.58.22-1,.4-1.92.54-2.87.05-.32.09-.64.13-.95l0-.21c0-.16,0-.32,0-.47l.06-.56,0-.31,0-.33.06-.8c0-.26,0-.52,0-.78a4.36,4.36,0,0,0,0-.51c0-.27,0-.55,0-.82s0-.54,0-.81,0-.72,0-1.09c0-.53,0-1.06,0-1.59,0-5.37-.24-10.85,1-17.32.06-.34.11-.67.16-1l.12-.84a1.1,1.1,0,0,0,0-.18c0-.26.07-.53.1-.81a.77.77,0,0,1,0-.15l.09-.89.06-.76,0-.39c0-.27,0-.54.05-.82s0-.47,0-.71,0-.34,0-.51v-.24c0-.19,0-.38,0-.57a.22.22,0,0,0,0-.08v-.34c0-.21,0-.42,0-.63C182.42,123,182.41,122.27,182.4,121.53Z"/><path id="_1-2" data-name="1" class="cls-8" d="M182.4,121.53l0-.93c0-.12,0-.25,0-.37s0-.5,0-.75,0-.33,0-.5,0-.6-.05-.91c-.06-.91-.13-1.83-.22-2.75,0-.27-.05-.55-.08-.82s-.06-.63-.1-.94-.06-.51-.09-.77,0-.41-.07-.62c-.1-.79-.21-1.59-.33-2.39-.05-.37-.11-.75-.17-1.13s-.1-.66-.16-1c0-.08,0-.16,0-.24l-.18-1c-.06-.37-.13-.75-.2-1.13-.23-1.24-.48-2.49-.75-3.72a42.83,42.83,0,0,1-3,5.82c-.62,1-1.3,2-2,3.09-.38.56-.79,1.12-1.21,1.69,2.38,6.15,2.91,13.8,2.37,21.55a112.8,112.8,0,0,1-7,31.44l-.53,1.28c-5.61,13.81-9.5,21.46-15.81,27.69-4.24,4.19-9.57,7.73-17.26,12.08a55.41,55.41,0,0,1-12.8,4.52c-10.92,2.59-22.12,1.88-20.58-9.45.93-5.66,2.68-18.84,3.62-24.51.67-3.84-1-8.07-2.48-12.21-1.27-3.51-2.44-7-2-10a21.12,21.12,0,0,1,2.72-7.07c-1.15.08-2.3.15-3.45.2s-2.36.09-3.54.09h-1c0,.25,0,.49,0,.73,0,.88-.09,1.74-.13,2.59,0,.43,0,.85,0,1.27,0,.65-.09,1.29-.13,1.9-.08,1.45-.13,2.81-.17,4.09,0,.55,0,1.08,0,1.6s0,1,0,1.52c0,.92,0,1.8,0,2.64,0,.28,0,.55,0,.82l0,.72,0,.58v.12q.06,1,.12,2l.09,1.2c.11,1.25.23,2.39.35,3.45,0,.29.07.57.1.84.07.56.13,1.09.2,1.6,0,.25.06.5.08.75h0c0,.14,0,.28,0,.42v.08c0,.16,0,.32,0,.48s0,.32,0,.48,0,.31,0,.47c0,.46.08.92.11,1.37,0,.14,0,.27,0,.4a22.11,22.11,0,0,1-.37,5.36c-.9,8.5-1.71,26.54.33,30.41,1.69,3.16,5,3.48,7.68,4.51a20.5,20.5,0,0,0,7.18,1.09h.91l.59,0c.57,0,1.15-.06,1.73-.11l.71-.07.24,0,.68-.07h.08l1.58-.21H118l1.44-.23.48-.09,1-.18.72-.15.6-.13.11,0,.94-.22h0l.93-.23c.31-.08.62-.15.92-.24l.91-.25.89-.26.88-.27.85-.27,1.23-.43.4-.15.78-.29.56-.22.55-.23.7-.3.66-.31.63-.3c.51-.26,1-.51,1.39-.76l.49-.3c.28-.19.55-.37.77-.55l.22-.18.58-.48.6-.5h0l.76-.62.75-.6.65-.51.8-.62c.34-.27.67-.52,1-.77l.35-.27.65-.48c1.89-1.39,3.64-2.58,5.36-3.69l1.12-.72c1.6-1,3.19-2,4.88-3.05l1.2-.76.71-.45,1.27-.81.07,0,.36-.25.11-.08.22-.17a1.58,1.58,0,0,0,.15-.12l.17-.14.39-.32.21-.2.23-.21.23-.22.54-.56a1.8,1.8,0,0,0,.19-.2l.19-.2,0,0,.08-.08a34.06,34.06,0,0,0,2.19-2.78l.26-.36c.61-.87,1.21-1.78,1.79-2.7l.38-.6c1.78-2.91,3.37-5.9,4.65-8.25.06-.1.11-.2.16-.3l.22-.4.38-.7c.1-.2.22-.4.32-.6l.38-.67.63-1.09a.21.21,0,0,1,0-.06l.34-.59c1-1.67,2-3.23,2.87-4.91l.36-.7a.56.56,0,0,1,.05-.08c.08-.16.16-.32.23-.48l.24-.49.24-.52c.08-.16.15-.32.22-.48s.15-.34.22-.52l.18-.42c.16-.39.31-.79.46-1.21s.24-.6.35-.89.11-.29.16-.44.11-.3.16-.44c.13-.37.25-.74.37-1.1,0-.15.09-.29.13-.44.1-.31.19-.61.27-.92s.11-.39.16-.58h0l.15-.58c0-.19.09-.39.13-.58.22-1,.4-1.92.54-2.87.05-.32.09-.64.13-.95l0-.21c0-.16,0-.32,0-.47l.06-.56,0-.31,0-.33.06-.8c0-.26,0-.52,0-.78a4.36,4.36,0,0,0,0-.51c0-.27,0-.55,0-.82s0-.54,0-.81,0-.72,0-1.09c0-.53,0-1.06,0-1.59,0-5.37-.24-10.85,1-17.32.06-.34.11-.67.16-1l.12-.84a1.1,1.1,0,0,0,0-.18c0-.26.07-.53.1-.81a.77.77,0,0,1,0-.15l.09-.89.06-.76,0-.39c0-.27,0-.54.05-.82s0-.47,0-.71,0-.34,0-.51v-.24c0-.19,0-.38,0-.57a.22.22,0,0,0,0-.08v-.34c0-.21,0-.42,0-.63C182.42,123,182.41,122.27,182.4,121.53Z"/></g><g id="Magnifying_glass" data-name="Magnifying glass"><path class="cls-9" d="M4.62,88.06a26.83,26.83,0,0,1,4-4.6V91.8l7.84,8.1S5.91,103.22,2.27,118.22A43.52,43.52,0,0,1,.83,97.51,24.17,24.17,0,0,1,4.62,88.06Z"/><path class="cls-9" d="M185.77,117.38c-3.63-15-14.3-17.62-14.3-17.62l7.59-7.84V80.79C189,89.22,190.24,103.18,185.77,117.38Z"/><path class="cls-10" d="M193.12,203.2c-3.62,6.1-11.86,11.49-19,9.72a18.15,18.15,0,0,1-9.17-5.35c-2.41-2.6-4.81-5.19-7.19-7.8q-2.61-2.84-5.19-5.68l-.83-.91-2.64-2.92-.41-.45L145,185.69l-.56-.63q-9.18-10.2-18.3-20.45a6.07,6.07,0,0,0-4.19-2.34l-.13,0a10.93,10.93,0,0,0-3,.25c-3.22.59-6.4,1.06-9.56,1.43l-.68.07q-2.32.27-4.62.45l-.91.07c-2.59.19-5.18.3-7.76.35-1,0-1.91,0-2.87,0-2.6,0-5.21-.09-7.8-.24l-.91-.06c-1.54-.1-3.07-.23-4.61-.38l-.69-.08q-6.21-.65-12.45-1.86l-.16,0c-3-.59-6.06-1.27-9.11-2.06q-3.09-.81-6.05-1.8l-.51-.17a93.63,93.63,0,0,1-15.89-7.1l-.88-.49q-4.09-2.37-8-5.12c-.48-.34-1-.69-1.45-1.05q-4.3-3.18-8.35-6.82c-.53-.48-1.07-1-1.6-1.47s-.91-.85-1.36-1.29h0l-.84-.81s0,0-.05-.05a35.79,35.79,0,0,1-6.39-8.47c-7.63-13.78-7.6-32.73,3.14-42-.4,7-1.65,12-.53,17.52H8a23.84,23.84,0,0,0,2.48,6.7A35.49,35.49,0,0,0,12.41,111q.66,1,1.44,2c.17.24.35.47.53.71a90.48,90.48,0,0,0,6.92,7.84c.68.71,1.36,1.39,2,2.08.84.8,1.68,1.61,2.51,2.35A72.84,72.84,0,0,0,41,136.52q.75.4,1.53.78a80.23,80.23,0,0,0,9.39,3.9c1.42.49,2.88,1,4.37,1.36,2.6.74,5.26,1.39,8,1.95l1.28.26,2.39.45c5.25.95,10.46,1.59,15.62,2l.3,0c1.14.08,2.28.17,3.42.23s2.35.14,3.53.17l1.07,0c1.3,0,2.58,0,3.88,0h1c1.18,0,2.36-.09,3.54-.12s2.3-.09,3.45-.17l.3,0a118.6,118.6,0,0,0,15.59-2.19c.65-.13,1.29-.27,1.94-.42q5.19-1.17,10.37-2.84c1.27-.4,2.51-.84,3.78-1.27,1.95-.71,3.93-1.45,5.88-2.26s3.57-1.58,5.26-2.47l1.18-.63a70,70,0,0,0,13.41-9.69c.84-.77,1.67-1.55,2.51-2.39.5-.46,1-1,1.46-1.45,3-3.29,5.56-6.24,7.62-9,.17-.24.35-.47.52-.7.42-.57.83-1.13,1.21-1.69.74-1.08,1.42-2.1,2-3.09a42.83,42.83,0,0,0,3-5.82h0c3.86-9.28.2-13.28-.42-20.4,8.79,5.66,14.21,24.16,3,43.56a59.42,59.42,0,0,1-6.45,9l-.84,1c-.44.49-.9,1-1.36,1.48s-1.2,1.23-1.83,1.85a83.43,83.43,0,0,1-8.53,7.27c-.53.4-1.08.79-1.63,1.19q-3.18,2.26-6.82,4.46c-.27.16.72,1.14,2.18,2.61l.6.61a1.21,1.21,0,0,1,.16.16q3.1,2.94,6.13,6l.58.57,3.65,3.64.66.67q3.49,3.51,7,7a.12.12,0,0,0,0,.05c3.05,3,6.13,6,9.32,9C194.89,189.11,197.58,196.17,193.12,203.2Z"/><path class="cls-11" d="M170.78,185.44c-11.27-10.35-22.76-24.9-33.85-34.88a4.11,4.11,0,0,0-3.44-.37c-10.13,2.88-18.15,3.81-28.49,6.88,5.73.37,11.61-.25,17.59-.37,3.84-.1,6.81.46,9,2.69,8.8,8.83,18.55,22,27.72,30.66,1.36,1.36,2.79,2.11,4.58,1C166.78,188.87,167.34,188.32,170.78,185.44Z"/><ellipse class="cls-11" cx="181.92" cy="201.35" rx="12.81" ry="8.22" transform="translate(-84.16 148.09) rotate(-36.58)"/></g><g id="Upper_Brain_-Left" data-name="Upper Brain -Left"><path id="BG-1" class="cls-11" d="M91.51,53,87,57.61l4.4,4.55V76.1l-5,5.23,5,5.24v19.07l-5.3,5.49,5.3,5.48v16.07l-6.26,6.47,6.26,6.48v2c-1.16,0-2.31-.09-3.47-.15h-.06a164.14,164.14,0,0,1-23.57-3c-2.76-.56-5.42-1.21-8-1.95-1.49-.4-2.95-.87-4.37-1.36A74.18,74.18,0,0,1,25.85,126c-.83-.74-1.67-1.55-2.51-2.35-.68-.68-1.36-1.37-2-2.08A78.58,78.58,0,0,1,12.41,111l-.05-.07a36.13,36.13,0,0,1-1.9-3.15.3.3,0,0,1,0-.08l6.76-7L8.6,91.8V75.57L16,68V46.49l9.7-10h5.45L43,24.19H60l7-7.21H79.49l12,11.76h0Z"/><path class="cls-12" d="M91.48,28.74,79.49,17H66.92l-7,7.22H43L31.12,36.45H25.67l-9.7,10V68L8.6,75.57V91.8l8.58,8.86-6.78,7a36.92,36.92,0,0,0,1.95,3.22l7.34-7.59L26,109.85H37.78l9.38-9.69H68.72l4.08-4.24a4.51,4.51,0,0,0,1.46.25,4.07,4.07,0,0,0,3-1.24,4.51,4.51,0,0,0,0-6.14,4.16,4.16,0,0,0-5.91,0,4.33,4.33,0,0,0-1,4.56l-3,3.16H45.67l-9.38,9.69H27.4L12.1,90.37V77L29.57,59a4.2,4.2,0,0,0,1.45.25A4,4,0,0,0,34,58a4.49,4.49,0,0,0,0-6.13,4.11,4.11,0,0,0-5.92,0,4.37,4.37,0,0,0-1.21,3.06,5.17,5.17,0,0,0,.25,1.49l-7.68,8V48l7.68-8H41.31a4.28,4.28,0,1,0,3.84-6.23,4.3,4.3,0,0,0-3.84,2.57H36.07l8.43-8.61h12l-3,3.16V46.21L44.9,55.07v9.29H37.53L28.24,74v9.29a4.52,4.52,0,0,0-2.48,4,4.25,4.25,0,1,0,6-4v-7.8L39,68H44.9V75.2l8.64,9.2a4.64,4.64,0,0,0-.25,1.48A4.34,4.34,0,0,0,54.5,89a4,4,0,0,0,3,1.24,4,4,0,0,0,3-1.24,4.49,4.49,0,0,0,0-6.13,4,4,0,0,0-4.4-1l-7.68-8V56.71l8.08-8.36L66.86,37.57h4.21a5.85,5.85,0,0,0,.87,1.24,4.07,4.07,0,0,0,3,1.24,4.4,4.4,0,0,0,0-8.8,4.3,4.3,0,0,0-3.84,2.57H65.4l-8.48,8.8V32.43L68.38,20.51h9.69l10,9.69V51.51l-4,3.56-5-5.14h-10l-7.47,7.74a4.32,4.32,0,0,0-4.39,1,4.49,4.49,0,0,0,0,6.13,4.18,4.18,0,0,0,5.94,0,4.32,4.32,0,0,0,1.21-3.06,4.09,4.09,0,0,0-.25-1.49l6.41-6.63h7L88,63.8V74.67l-4.71,4.25-5.76-6H72.28a4.28,4.28,0,1,0-3.84,6.22,4.18,4.18,0,0,0,3.84-2.57h3.84L87.86,88.27v15.92L79,112.73H71.72A4.28,4.28,0,1,0,67.88,119a4.28,4.28,0,0,0,3.84-2.57h8.73L83,113.73l4.87,4.39v13l-5.83,5.39-8.42-8.7H66.11l-11-11.43-.16-2.66a4.22,4.22,0,0,0,2.42-3.91,4.25,4.25,0,1,0-8.49,0,4.43,4.43,0,0,0,2.48,4v3.9l4,4.15,9.38,9.69h7.53l15.67,15.58v.4c1.18.06,2.35.13,3.53.16v-2l-6.26-6.48,6.26-6.47V116.61l-5.3-5.49,5.3-5.48V86.56l-5-5.23,5-5.23V62.16L87,57.61,91.51,53V28.74ZM73.73,91.33a.56.56,0,0,1,.5-.24.85.85,0,0,1,.46.24.75.75,0,0,1,0,1.09.51.51,0,0,1-.46.25.46.46,0,0,1-.5-.25A.71.71,0,0,1,73.73,91.33ZM30.56,54.26A.53.53,0,0,1,31,54a1,1,0,0,1,.47.24.76.76,0,0,1,0,1.09.54.54,0,0,1-.47.24.49.49,0,0,1-.46-.34.53.53,0,0,1-.25-.49A.89.89,0,0,1,30.56,54.26ZM45.12,37.54a.73.73,0,0,1,.71.74.72.72,0,1,1-1.43,0A.71.71,0,0,1,45.12,37.54ZM29.91,87.93a.75.75,0,1,1,.71-.75A.73.73,0,0,1,29.91,87.93ZM57,85.11a.53.53,0,0,1,.49-.25.83.83,0,0,1,.47.25.74.74,0,0,1,0,1.08.53.53,0,0,1-.47.25,1,1,0,0,1-.49-.25.53.53,0,0,1-.25-.49A.77.77,0,0,1,57,85.11ZM74.94,35a.69.69,0,0,1,.5.25.67.67,0,0,1,.24.49.73.73,0,0,1-.71.74.55.55,0,0,1-.46-.24.87.87,0,0,1-.25-.5A.65.65,0,0,1,74.94,35ZM60.66,62.41a.53.53,0,0,1-.49.25,1.07,1.07,0,0,1-.47-.25.76.76,0,0,1,0-1.09.54.54,0,0,1,.47-.24c.09,0,.31,0,.49.34a.53.53,0,0,1,.25.49A1.17,1.17,0,0,1,60.66,62.41Zm7.78,13.1a.75.75,0,1,1,.71-.74A.73.73,0,0,1,68.44,75.51ZM68,115.27a.74.74,0,1,1,.72-.74A.71.71,0,0,1,68,115.27Zm-14.8-4.64a.75.75,0,1,1,.71-.74A.71.71,0,0,1,53.23,110.63Z"/><path class="cls-12" d="M51.93,141.2v-7.68l-11.3-11.68H29.82l-4,4.11c-.83-.78-1.67-1.55-2.51-2.36l5.14-5.31H42.14L55.43,132v9.6l.78.94C54.75,142.17,53.35,141.66,51.93,141.2Z"/></g><g id="Upper_Brain_-right" data-name="Upper Brain -right"><path id="BG-1-2" data-name="BG-1" class="cls-11" d="M179.06,91.92l-8.58,8.86,6.35,6.57c-.62,1-1.3,2-2,3.09v0a108.41,108.41,0,0,1-9.34,11.32c-.5.49-1,1-1.46,1.45-.84.84-1.67,1.62-2.51,2.39a67.75,67.75,0,0,1-19.85,12.79c-2,.81-3.93,1.55-5.88,2.26-1.27.43-2.51.87-3.78,1.27a123.65,123.65,0,0,1-32.24,5.67h0c-1.17,0-2.34.09-3.5.09v-2l6.87-6.47-6.87-6.48V116.67l5.91-5.48-5.91-5.48V86.63l5-5.24-5-5.23V62.22l4.39-4.55L96.09,53V28.74l12-11.76h12.57l7,7.21h17l11.86,12.27h5.46l9.69,10V68L179,75.57h.09Z"/><path class="cls-12" d="M179,75.57,171.6,68V46.49l-9.69-10h-5.46L144.59,24.19h-17l-7-7.22H108.08l-12,11.77V53l4.49,4.65-4.39,4.55V76.16l5,5.23-5,5.24V105.7l5.91,5.49-5.91,5.48v16.07l6.87,6.47-6.87,6.48v2l3.53-.09v-.44l15.67-15.57h7.52l9.39-9.7,4-4.15v-3.9a4.35,4.35,0,1,0-6-4,4.27,4.27,0,0,0,2.42,3.9l-.15,2.66-11.06,11.43H114l-8.42,8.7-5.82-5.39v-13l4.86-4.4,2.57,2.66h8.73a4.28,4.28,0,0,0,3.84,2.57,4.4,4.4,0,1,0-3.84-6.22h-7.27l-8.86-8.55V88.36l11.77-11.67h3.84a4.19,4.19,0,0,0,3.84,2.57A4.4,4.4,0,1,0,115.36,73h-5.3l-5.76,6-4.71-4.24V63.89l10.47-10.18h7.06l6.41,6.62a5.15,5.15,0,0,0-.24,1.49,4.38,4.38,0,0,0,1.2,3.07,4,4,0,0,0,3,1.23,4.07,4.07,0,0,0,3-1.23,4.51,4.51,0,0,0,0-6.14,4.4,4.4,0,0,0-4.4-1l-7.43-7.71h-9.94l-5,5.14-4-3.56V30.32l10-9.69h9.69l11.46,11.92V42.74L122.33,34h-5.7a4.28,4.28,0,0,0-3.84-2.57,4.4,4.4,0,0,0,0,8.79,4,4,0,0,0,3-1.24,5,5,0,0,0,.87-1.24h4.24l10.41,10.78,8.08,8.36V74l-7.68,8a4,4,0,0,0-4.4,1,4.49,4.49,0,0,0,0,6.13,4,4,0,0,0,3,1.24,4,4,0,0,0,3-1.24,4.36,4.36,0,0,0,1.2-3.06,4,4,0,0,0-.24-1.49l8.64-9.2V68.11h5.91L156,75.57v7.8a4.41,4.41,0,0,0,1.76,8.37,4.35,4.35,0,0,0,4.25-4.4,4.55,4.55,0,0,0-2.48-4V74.08l-9.29-9.6h-7.53V55.19l-8.58-8.86V31.1l-3-3.16h12l8.42,8.61h-5.2A4.28,4.28,0,0,0,142.46,34a4.4,4.4,0,1,0,3.84,6.22h14.18l7.68,8V64.48l-7.68-8a4.79,4.79,0,0,0,.25-1.48A4.3,4.3,0,0,0,159.52,52a4.11,4.11,0,0,0-5.91,0,4.49,4.49,0,0,0,0,6.13,4,4,0,0,0,3,1.24,4.2,4.2,0,0,0,1.45-.25L175.5,77.15V90.5l-15.3,15.82h-8.89l-9.38-9.69H120.37l-3-3.16a4.3,4.3,0,0,0-1-4.55,4.18,4.18,0,0,0-5.92,0,4.49,4.49,0,0,0,0,6.13,4,4,0,0,0,3,1.24,4.2,4.2,0,0,0,1.45-.25l4.09,4.24h21.56l9.38,9.7h11.77l6.32-6.54,6.81,7.06c.74-1.08,1.42-2.1,2-3.12l-6.38-6.6,8.58-8.86V75.57Zm-44.63,33.57a.75.75,0,1,1-.71.75A.73.73,0,0,1,134.34,109.14Zm-14.83,4.65a.74.74,0,1,1-.72.74A.75.75,0,0,1,119.51,113.79ZM119.14,74a.75.75,0,1,1-.72.74A.73.73,0,0,1,119.14,74Zm7.74-12.57a.49.49,0,0,1,.49-.34.51.51,0,0,1,.47.24.76.76,0,0,1,0,1.09,1,1,0,0,1-.47.25.58.58,0,0,1-.49-.25.89.89,0,0,1-.25-.5A.71.71,0,0,1,126.88,61.42ZM113.13,36.21a.72.72,0,0,1-.5.24.73.73,0,0,1-.71-.74.64.64,0,0,1,.25-.49.65.65,0,0,1,.46-.25.73.73,0,0,1,.71.74A.86.86,0,0,1,113.13,36.21Zm17.43,50a.87.87,0,0,1-.49.25.58.58,0,0,1-.5-.25.74.74,0,0,1,0-1.08.92.92,0,0,1,.5-.25.58.58,0,0,1,.49.25.77.77,0,0,1,.25.59A.58.58,0,0,1,130.56,86.19Zm27.1.25a.75.75,0,1,1-.71.74A.73.73,0,0,1,157.66,86.44ZM142.43,39a.74.74,0,0,1-.72-.75.72.72,0,1,1,1.43,0A.72.72,0,0,1,142.43,39ZM157,55.25a.49.49,0,0,1-.49.34.58.58,0,0,1-.5-.24.76.76,0,0,1,0-1.09.94.94,0,0,1,.5-.24.59.59,0,0,1,.49.24.92.92,0,0,1,.25.5A.53.53,0,0,1,157,55.25ZM113.84,92.42c-.06.25-.31.25-.5.25a.55.55,0,0,1-.49-.25.75.75,0,0,1,0-1.09.91.91,0,0,1,.49-.24.58.58,0,0,1,.5.24A.75.75,0,0,1,113.84,92.42Z"/><path class="cls-12" d="M164,123.23c-.82.83-1.67,1.62-2.51,2.39l-3.65-3.78H147L135.7,133.52v7.15c-1.23.44-2.5.87-3.77,1.27l.24-.31V132l13.29-13.75h13.69Z"/></g></g></g></g></svg>