<svg xmlns="http://www.w3.org/2000/svg" viewBox="0 0 630.34 659.38"><defs><style>.cls-1{fill:#51abed;}.cls-2{fill:#239fe2;}.cls-3{fill:#66b7f3;}.cls-4{fill:#38a9e7;}.cls-5{fill:#7ac4f9;}.cls-6{fill:#5cb8f2;}.cls-7{fill:#8fd0ff;}.cls-8{fill:#ab332b;}.cls-9{fill:#d8392e;}.cls-10{fill:#fff;}.cls-11{fill:#0097d9;}</style></defs><title>MIQA Logo Mark</title><g id="Layer_2" data-name="Layer 2"><g id="Logo_Mark" data-name="Logo Mark"><g id="mark"><g id="Lower_brain" data-name="Lower brain"><g id="brain"><path id="_4" data-name="4" class="cls-1" d="M297.55,437a385.53,385.53,0,0,1,.91,40.66c-1.14,33.15-6.93,45.73-3.12,65.5,2.92,27.44,5.52,85.7-1,98.19-5.46,10.22-16.19,11.25-24.8,14.58-11.37,4.35-27.77,4.27-44.42,1.8-1.56-.23-3.11-.48-4.67-.75l-1.55-.28c-1-.19-2.07-.38-3.1-.59-1.55-.3-3.09-.63-4.62-1l-3-.7-3-.74c-1-.26-2-.51-3-.78s-2-.53-2.93-.81l-2.88-.84c-3.8-1.14-7.44-2.35-10.84-3.61l-2.51-1c-1.36-.52-2.67-1.06-3.93-1.59l-1.91-.83h0c-1.46-.65-2.86-1.3-4.17-2q-2.46-1.23-4.5-2.45c-.55-.33-1.07-.65-1.56-1a32.14,32.14,0,0,1-3.22-2.37c-27.61-23.13-43.6-31.3-67-46.39-.39-.26-.78-.52-1.17-.81s-.71-.51-1.07-.79c-.16-.13-.33-.25-.49-.39a53.79,53.79,0,0,1-5.72-5.33c-.4-.42-.8-.86-1.2-1.3l-.08-.09a3,3,0,0,0-.24-.26C74.32,567.24,62.93,545,55.45,531.42c-8.4-16.08-16.86-26.44-23.11-43.64q-1.17-2.89-2.16-5.73c-.42-1.19-.81-2.37-1.18-3.54-.15-.48-.3-.95-.44-1.42-.31-1-.6-2-.87-3-.18-.63-.34-1.26-.51-1.88h0c-.16-.63-.32-1.26-.47-1.88s-.3-1.25-.44-1.87c-.79-3.48-1.4-6.91-1.88-10.29-.08-.54-.15-1.09-.22-1.64s-.14-1.08-.2-1.63-.1-.82-.14-1.23-.11-1-.16-1.54c0-.34-.07-.69-.1-1s-.07-.71-.09-1.06c-.15-1.7-.27-3.39-.35-5.08,0-.56-.07-1.11-.09-1.67-.09-1.75-.15-3.5-.19-5.26,0-1.17-.05-2.33-.06-3.5-.23-19,1.13-38.09-3.16-61.08a169.4,169.4,0,0,1-2.3-22.91c-.9-24.83,2.6-52.43,8.43-79.08a78.08,78.08,0,0,0,8,21.63,111.1,111.1,0,0,0,6.3,10.4c1.43,2.11,3,4.27,4.64,6.5.55.75,1.13,1.5,1.72,2.27A290.23,290.23,0,0,0,68.78,337.6c2.2,2.3,4.4,4.5,6.6,6.7,2.7,2.6,5.4,5.2,8.1,7.6A234.62,234.62,0,0,0,132.42,386q2.45,1.29,4.93,2.52a259.16,259.16,0,0,0,30.33,12.58c4.6,1.6,9.3,3.1,14.1,4.4,8.4,2.4,17,4.5,25.9,6.3l4.13.83q3.87.75,7.72,1.45A508.53,508.53,0,0,0,270,420.7l.94.08q5.54.42,11.05.72c3.8.2,7.6.4,11.4.5l3.46.09Q297.26,429.7,297.55,437Z"/><path id="_3s" data-name="3s" class="cls-2" d="M297.55,437q-.29-7.26-.71-14.86l-3.46-.09c-3.8-.1-7.6-.3-11.4-.5s-7.36-.44-11.05-.72l-.94-.08a508.53,508.53,0,0,1-50.46-6.62q-3.85-.7-7.72-1.45l-4.13-.83c-8.9-1.8-17.5-3.9-25.9-6.3-4.8-1.3-9.5-2.8-14.1-4.4a259.16,259.16,0,0,1-30.33-12.58q-2.49-1.23-4.93-2.52a234.62,234.62,0,0,1-48.94-34.1c-2.7-2.4-5.4-5-8.1-7.6-2.2-2.2-4.4-4.4-6.6-6.7a290.23,290.23,0,0,1-22.34-25.33c-.59-.77-1.17-1.52-1.72-2.27-1.67-2.23-3.21-4.39-4.64-6.5a111.1,111.1,0,0,1-6.3-10.4,78.08,78.08,0,0,1-8-21.63c-5.83,26.65-9.33,54.25-8.43,79.08a169.4,169.4,0,0,0,2.3,22.91c4.29,23,2.93,42.09,3.16,61.08,0,1.17,0,2.33.06,3.5,0,1.76.1,3.51.19,5.26,0,.56.05,1.11.09,1.67.08,1.69.2,3.38.35,5.08,0,.35.06.71.09,1.06s.06.69.1,1c0,.51.1,1,.16,1.54s.09.82.14,1.23.13,1.09.2,1.63.14,1.1.22,1.64c.48,3.38,1.09,6.81,1.88,10.29.14.62.29,1.24.44,1.87s.31,1.25.47,1.88h0c.17.62.33,1.25.51,1.88.27,1,.56,2,.87,3,.14.47.29.94.44,1.42.37,1.17.76,2.35,1.18,3.54q1,2.83,2.16,5.73c6.25,17.2,14.71,27.56,23.11,43.64,7.48,13.62,18.87,35.82,31.19,49.7a3,3,0,0,1,.24.26l.08.09c.4.44.8.88,1.2,1.3a53.79,53.79,0,0,0,5.72,5.33c.16.14.33.26.49.39.36.28.71.54,1.07.79s.78.55,1.17.81c23.41,15.09,39.4,23.26,67,46.39a32.14,32.14,0,0,0,3.22,2.37c.49.32,1,.64,1.56,1q2,1.21,4.5,2.45,2,1,4.17,2h0l1.91.83c1.26.53,2.57,1.07,3.93,1.59l2.51,1c3.4,1.26,7,2.47,10.84,3.61q1.42.43,2.88.84c1,.28,1.95.55,2.93.81s2,.53,3,.78l3,.74,3,.7c1.53.34,3.07.67,4.62,1,1,.21,2.06.4,3.1.59l1.55.28c1.56.27,3.11.52,4.67.75,16.65,2.47,33.05,2.55,44.42-1.8,8.61-3.33,19.34-4.36,24.8-14.58,6.57-12.49,4-70.75,1-98.19-3.81-19.77,2-32.35,3.12-65.5A385.53,385.53,0,0,0,297.55,437Zm-83.06,35.9c5.14,15,1.7,33.63,6.92,44.84v0a17.25,17.25,0,0,0,1.37,2.46c2.69,4.41,11.16,14.14,14.86,25.64,2,6.06,2.6,12.62.36,19.15-4.31,11.11-15.88,16.56-27.4,16.44s-21.93-4.7-31.29-10.38c-15.62-8-51.21-23.07-48.71-61,.08-6.69,2.39-14.52.36-20.12s-6.17-10.11-10.3-15.73-5.36-10.52-4.66-14.36c1.56-8.54,12.5-11.7,21.09-4.69,3.11,2.26,13.46,13.53,20.86,6.91,1.73-1.35,2.59-3.64,3.94-6,1.95-3.44,4.91-7.07,13-8.3,13.64-2.08,29.27,4.77,36.45,18.24a31.14,31.14,0,0,1,1.69,3.17A34.86,34.86,0,0,1,214.49,472.85ZM86.59,381c3.07,6.72,4,13.42,5,20.13,1.36,5.33,15.21,21.1,19,32,1.22,3.51,1.38,6.52-.26,8.51a6.62,6.62,0,0,1-3.47,2c-7.17,2.1-11.24-6.39-24.79-28.69q-.53-.84-1-1.71c-5.14-9-6.06-21.26-16.46-27a30.13,30.13,0,0,1-8.33-4.55c-6.24-4.52-6.16-11.22-.9-14.51a9.28,9.28,0,0,1,.83-.44C63.88,363.13,79.67,366.91,86.59,381Z"/><path id="_3" data-name="3" class="cls-3" d="M297.55,437q-.29-7.26-.71-14.86l-3.46-.09c-3.8-.1-7.6-.3-11.4-.5s-7.36-.44-11.05-.72l-.94-.08a508.53,508.53,0,0,1-50.46-6.62q-3.85-.7-7.72-1.45l-4.13-.83c-8.9-1.8-17.5-3.9-25.9-6.3-4.8-1.3-9.5-2.8-14.1-4.4a259.16,259.16,0,0,1-30.33-12.58q-2.49-1.23-4.93-2.52a234.62,234.62,0,0,1-48.94-34.1c-2.7-2.4-5.4-5-8.1-7.6-2.2-2.2-4.4-4.4-6.6-6.7a290.23,290.23,0,0,1-22.34-25.33c-.59-.77-1.17-1.52-1.72-2.27-1.67-2.23-3.21-4.39-4.64-6.5a111.1,111.1,0,0,1-6.3-10.4,78.08,78.08,0,0,1-8-21.63c-5.83,26.65-9.33,54.25-8.43,79.08a169.4,169.4,0,0,0,2.3,22.91c4.29,23,2.93,42.09,3.16,61.08,0,1.17,0,2.33.06,3.5,0,1.76.1,3.51.19,5.26,0,.56.05,1.11.09,1.67.08,1.69.2,3.38.35,5.08,0,.35.06.71.09,1.06s.06.69.1,1c0,.51.1,1,.16,1.54s.09.82.14,1.23.13,1.09.2,1.63.14,1.1.22,1.64c.48,3.38,1.09,6.81,1.88,10.29.14.62.29,1.24.44,1.87s.31,1.25.47,1.88h0c.17.62.33,1.25.51,1.88.27,1,.56,2,.87,3,.14.47.29.94.44,1.42.37,1.17.76,2.35,1.18,3.54s.72,2.28,1.11,3.43c6.23,18.34,14.7,28.71,23.1,44.78,7.69,14,19.51,37.09,32.25,50.86a3,3,0,0,1,.24.26l.08.09h0l1.19,1.3a53.79,53.79,0,0,0,5.72,5.33c.16.14.33.26.49.39.36.28.71.54,1.07.79s.78.55,1.17.81c23.41,15.09,39.4,23.26,67,46.39a32.14,32.14,0,0,0,3.22,2.37c.49.32,1,.64,1.56,1q2,1.21,4.5,2.45,2,1,4.17,2h0l1.91.83c1.26.53,2.57,1.07,3.93,1.59l2.51,1c3.4,1.26,7,2.47,10.84,3.61q1.42.43,2.88.84c1,.28,1.95.55,2.93.81s2,.53,3,.78l3,.74,3,.7c1.53.34,3.07.67,4.62,1,1,.21,2.06.4,3.1.59l1.55.28c1.56.27,3.11.52,4.67.75,16.65,2.47,33.05,2.55,44.42-1.8,8.61-3.33,19.34-4.36,24.8-14.58,6.57-12.49,4-70.75,1-98.19-3.81-19.77,2-32.35,3.12-65.5A385.53,385.53,0,0,0,297.55,437Zm-85,32.2a32.56,32.56,0,0,1,1.94,3.7c6.36,14.1,3.6,32.31,6.92,44.84v0a23.34,23.34,0,0,0,3,7c2.36,3.84,9,11.64,13.25,21.13,3.39,7.54,5.27,16.15,2.34,24.71-4.41,11.37-16.26,17-28,16.82s-22.45-4.8-32-10.61c-16-8.17-52.41-24.85-49.85-63.64.07-6.85,2-14.22-.1-20s-6-9.8-10.25-15.55c-5.45-7.32-5.92-13.55-3.7-17.74,3.37-6.36,12.9-8,20.59-1.78,3.18,2.32,13.77,13.85,21.34,7.08,2.35-1.84,3.14-5.37,5.6-8.56,2.08-2.69,5.34-5.12,11.71-6.1,13.92-2.13,29.88,4.86,37.25,18.58Zm-127.66-87C88,389,89,395.89,90,402.76c1.24,4.82,12.49,18,17.72,28.75,1.9,3.88,3,7.42,2.56,10.12-.36,2.23-1.78,3.89-4.68,4.68-7.52,2.2-11.71-7-26.45-31.11-.66-1.15-1.25-2.36-1.81-3.6-3.84-8.64-5.73-18.89-15-24A31.46,31.46,0,0,1,53.81,383c-6.38-4.64-6.3-11.49-.91-14.86a11.8,11.8,0,0,1,3.25-1.29C64.58,364.7,78.47,369.09,84.89,382.15Z"/><path id="_2s" data-name="2s" class="cls-4" d="M297.55,437q-.29-7.26-.71-14.86l-3.46-.09c-3.8-.1-7.6-.3-11.4-.5s-7.36-.44-11.05-.72l-.94-.08a508.53,508.53,0,0,1-50.46-6.62q-3.85-.7-7.72-1.45a121.44,121.44,0,0,1-16.49-2.26c-28.83-5.23-46.06-13-58-21.85q-2.49-1.23-4.93-2.52a234.62,234.62,0,0,1-48.94-34.1c-2.7-2.4-5.4-5-8.1-7.6-2.2-2.2-4.4-4.4-6.6-6.7a290.23,290.23,0,0,1-22.34-25.33c-.59-.77-1.17-1.52-1.72-2.27-1.67-2.23-3.21-4.39-4.64-6.5a111.1,111.1,0,0,1-6.3-10.4,78.08,78.08,0,0,1-8-21.63c-5.83,26.65-9.33,54.25-8.43,79.08a169.4,169.4,0,0,0,2.3,22.91c4.29,23,2.93,42.09,3.16,61.08,0,1.17,0,2.33.06,3.5,0,1.76.1,3.51.19,5.26,0,.56.05,1.11.09,1.67.08,1.69.2,3.38.35,5.08,0,.35.06.71.09,1.06s.06.69.1,1c0,.51.1,1,.16,1.54s.09.82.14,1.23.13,1.09.2,1.63.14,1.1.22,1.64c.48,3.38,1.09,6.81,1.88,10.29.14.62.29,1.24.44,1.87s.31,1.25.47,1.88h0c.17.62.33,1.25.51,1.88.27,1,.56,2,.87,3,.14.47.29.94.44,1.42.37,1.17.76,2.35,1.18,3.54q1,2.83,2.16,5.73c6.25,17.2,14.71,27.56,23.11,43.64,7.48,13.62,18.87,35.82,31.19,49.7a3,3,0,0,1,.24.26l.08.09c.4.44.8.88,1.2,1.3a53.79,53.79,0,0,0,5.72,5.33c.16.14.33.26.49.39.36.28.71.54,1.07.79s.78.55,1.17.81c23.41,15.09,39.4,23.26,67,46.39a32.14,32.14,0,0,0,3.22,2.37c.49.32,1,.64,1.56,1q2,1.21,4.5,2.45,2,1,4.17,2h0l1.91.83c1.26.53,2.57,1.07,3.93,1.59l2.51,1c3.4,1.26,7,2.47,10.84,3.61q1.42.43,2.88.84c1,.28,1.95.55,2.93.81s2,.53,3,.78l3,.74,3,.7c1.53.34,3.07.67,4.62,1,1,.21,2.06.4,3.1.59l1.55.28c1.56.27,3.11.52,4.67.75,16.65,2.47,33.05,2.55,44.42-1.8,8.61-3.33,19.34-4.36,24.8-14.58,6.57-12.49,4-70.75,1-98.19-3.81-19.77,2-32.35,3.12-65.5A385.53,385.53,0,0,0,297.55,437ZM96.89,371.22c4.13,6.76,9.32,13.54,13.44,21.44,2,5.62,3,10.11,7.19,15.75,26,30.54,87.4-4.84,121.78,24.66a47,47,0,0,1,8.4,9.91c5.79,9.17,8.26,20.19,5.89,30.59-.11.53-.23,1.07-.37,1.59-2.65,10.55-10.39,20.12-10.49,30.79-.22,21.29,22.78,53.72,20.44,75-1.17,11.2-11.81,23.41-36,24.27-53.63,1.67-112.88-48.28-112.69-68.45h0c0-4.53,2.36-8.6,3.45-14s1-11.84-3.64-21.32C104,480,77.65,471.5,68.41,450.1,63.28,438.85,68,423.93,64,412.69c-2.89-6.8-8.68-14.77-13.53-23.11-7.19-12.37-12.3-25.53-2.76-36.82A15.35,15.35,0,0,1,57,347.23C67.83,345,84.11,350.71,96.89,371.22Z"/><path id="_2" data-name="2" class="cls-5" d="M297.55,437q-.29-7.26-.71-14.86l-3.46-.09c-3.8-.1-7.6-.3-11.4-.5s-7.36-.44-11.05-.72l-.94-.08a508.53,508.53,0,0,1-50.46-6.62c-7.73.65-16-.78-23.51-2.2-33.25-6-51.36-15.44-63.6-25.88a234.62,234.62,0,0,1-48.94-34.1c-2.7-2.4-5.4-5-8.1-7.6-2.2-2.2-4.4-4.4-6.6-6.7a290.23,290.23,0,0,1-22.34-25.33c-.59-.77-1.17-1.52-1.72-2.27-1.67-2.23-3.21-4.39-4.64-6.5a111.1,111.1,0,0,1-6.3-10.4,78.08,78.08,0,0,1-8-21.63c-5.83,26.65-9.33,54.25-8.43,79.08a169.4,169.4,0,0,0,2.3,22.91c4.29,23,2.93,42.09,3.16,61.08,0,1.17,0,2.33.06,3.5,0,1.76.1,3.51.19,5.26,0,.56.05,1.11.09,1.67.08,1.69.2,3.38.35,5.08,0,.35.06.71.09,1.06s.06.69.1,1c0,.51.1,1,.16,1.54s.09.82.14,1.23.13,1.09.2,1.63.14,1.1.22,1.64c.48,3.38,1.09,6.81,1.88,10.29.14.62.29,1.24.44,1.87s.31,1.25.47,1.88h0c.17.62.33,1.25.51,1.88.27,1,.56,2,.87,3,.14.47.29.94.44,1.42.37,1.17.76,2.35,1.18,3.54s.72,2.28,1.11,3.43c6.23,18.34,14.7,28.71,23.1,44.78,7.69,14,19.51,37.09,32.25,50.86a3,3,0,0,1,.24.26l.08.09h0l1.19,1.3a53.79,53.79,0,0,0,5.72,5.33c.16.14.33.26.49.39.36.28.71.54,1.07.79s.78.55,1.17.81c23.41,15.09,39.4,23.26,67,46.39a32.14,32.14,0,0,0,3.22,2.37c.49.32,1,.64,1.56,1q2,1.21,4.5,2.45,2,1,4.17,2h0l1.91.83c1.26.53,2.57,1.07,3.93,1.59l2.51,1c3.4,1.26,7,2.47,10.84,3.61q1.42.43,2.88.84c1,.28,1.95.55,2.93.81s2,.53,3,.78l3,.74,3,.7c1.53.34,3.07.67,4.62,1,1,.21,2.06.4,3.1.59l1.55.28c1.56.27,3.11.52,4.67.75,16.65,2.47,33.05,2.55,44.42-1.8,8.61-3.33,19.34-4.36,24.8-14.58,6.57-12.49,4-70.75,1-98.19-3.81-19.77,2-32.35,3.12-65.5A385.53,385.53,0,0,0,297.55,437ZM57,347.23c11-1.27,26.4,5,38.69,24.76,4.22,6.89,9.49,13.8,13.7,21.84,2.08,5.73,3.1,10.31,7.33,16.07,26.45,31.11,88.88-4.8,123.93,25.27a47.24,47.24,0,0,1,7,7.81c6.77,9.47,9.95,21.24,7.75,32.41-.07.34-.14.69-.22,1-2.26,11.39-10.94,21.57-11.06,33-.23,21.69,23.25,54.41,20.87,76.08-1.19,11.4-12,23.85-36.69,24.73-54.67,1.7-114.28-50.77-114.06-71.32a15.22,15.22,0,0,1,.18-2.16h0c.67-4.44,3-8.33,3.45-14,.35-4.51-.5-10.15-4.34-18.09-10.48-21.81-37.26-30.58-46.67-52.38-5.24-11.47-.5-26.6-4.65-38-3.61-8.5-11.7-18.8-17-29.37-5.43-10.83-7.93-21.93.31-31.67C48,350,52,347.81,57,347.23Z"/><path id="_1s" data-name="1s" class="cls-6" d="M297.55,437q-.29-7.26-.71-14.86l-3.46-.09c-3.8-.1-7.6-.3-11.4-.5s-7.36-.44-11.05-.72l-.94-.08c3.88,7.15,7.12,14.22,7.95,20.95,1.47,10.67-3.15,22.76-7.61,35s-8.73,24.42-6.76,35.59c3,17.92,8.46,60.09,11.42,78,4.86,35.84-30.92,37.53-65.45,29.34C198,617.2,179.3,611,168.87,605.24,108.37,571.05,94,552.42,64.31,479.42c-9.1-21.32-20.22-60.06-23.47-98.75h0c-2-24.26-1-48.49,5.6-68.39-.59-.77-1.17-1.52-1.72-2.27-1.67-2.23-3.21-4.39-4.64-6.5a111.1,111.1,0,0,1-6.3-10.4,78.08,78.08,0,0,1-8-21.63c-5.83,26.65-9.33,54.25-8.43,79.08a169.4,169.4,0,0,0,2.3,22.91c4.29,23,2.93,42.09,3.16,61.08,0,1.17,0,2.33.06,3.5,0,1.76.1,3.51.19,5.26,0,.56.05,1.11.09,1.67.08,1.69.2,3.38.35,5.08,0,.35.06.71.09,1.06s.06.69.1,1c0,.51.1,1,.16,1.54s.09.82.14,1.23.13,1.09.2,1.63.14,1.1.22,1.64c.48,3.38,1.09,6.81,1.88,10.29.14.62.29,1.24.44,1.87s.31,1.25.47,1.88h0c.17.62.33,1.25.51,1.88.27,1,.56,2,.87,3,.14.47.29.94.44,1.42.37,1.17.76,2.35,1.18,3.54q1,2.83,2.16,5.73c6.25,17.2,14.71,27.56,23.11,43.64,7.48,13.62,18.87,35.82,31.19,49.7a3,3,0,0,1,.24.26l.08.09c.4.44.8.88,1.2,1.3a53.79,53.79,0,0,0,5.72,5.33c.16.14.33.26.49.39.36.28.71.54,1.07.79s.78.55,1.17.81c23.41,15.09,39.4,23.26,67,46.39a32.14,32.14,0,0,0,3.22,2.37c.49.32,1,.64,1.56,1q2,1.21,4.5,2.45,2,1,4.17,2h0l1.91.83c1.26.53,2.57,1.07,3.93,1.59l2.51,1c3.4,1.26,7,2.47,10.84,3.61q1.42.43,2.88.84c1,.28,1.95.55,2.93.81s2,.53,3,.78l3,.74,3,.7c1.53.34,3.07.67,4.62,1,1,.21,2.06.4,3.1.59l1.55.28c1.56.27,3.11.52,4.67.75,16.65,2.47,33.05,2.55,44.42-1.8,8.61-3.33,19.34-4.36,24.8-14.58,6.57-12.49,4-70.75,1-98.19-3.81-19.77,2-32.35,3.12-65.5A385.53,385.53,0,0,0,297.55,437Z"/><path id="_1" data-name="1" class="cls-7" d="M297.55,437q-.29-7.26-.71-14.86l-3.46-.09c-3.8-.1-7.6-.3-11.4-.5s-7.36-.44-11.05-.72c4.33,7.92,8.09,15.76,9,23.2,1.38,10.08-2.52,21.35-6.69,32.83-4.81,13.25-10,26.76-7.82,39,3,18.3,8.67,60.85,11.69,79.15,5,36.59-31.19,38.88-66.46,30.51-11.77-2.41-30.69-8.79-41.34-14.61C107.54,576,92.82,557,62.54,482.47,53,460,41.11,418.72,38.14,378.06c-1.78-24.31-.38-48.38,6.58-68.06-1.67-2.23-3.21-4.39-4.64-6.5a111.1,111.1,0,0,1-6.3-10.4,78.08,78.08,0,0,1-8-21.63c-5.83,26.65-9.33,54.25-8.43,79.08a169.4,169.4,0,0,0,2.3,22.91c4.29,23,2.93,42.09,3.16,61.08,0,1.17,0,2.33.06,3.5,0,1.76.1,3.51.19,5.26,0,.56.05,1.11.09,1.67.08,1.69.2,3.38.35,5.08,0,.35.06.71.09,1.06s.06.69.1,1c0,.51.1,1,.16,1.54s.09.82.14,1.23.13,1.09.2,1.63.14,1.1.22,1.64c.48,3.38,1.09,6.81,1.88,10.29.14.62.29,1.24.44,1.87s.31,1.25.47,1.88h0c.17.62.33,1.25.51,1.88.27,1,.56,2,.87,3,.14.47.29.94.44,1.42.37,1.17.76,2.35,1.18,3.54q1,2.83,2.16,5.73c6.25,17.2,14.71,27.56,23.11,43.64,7.48,13.62,18.87,35.82,31.19,49.7a3,3,0,0,1,.24.26l.08.09c.4.44.8.88,1.2,1.3a53.79,53.79,0,0,0,5.72,5.33c.16.14.33.26.49.39.36.28.71.54,1.07.79s.78.55,1.17.81c23.41,15.09,39.4,23.26,67,46.39a32.14,32.14,0,0,0,3.22,2.37c.49.32,1,.64,1.56,1q2,1.21,4.5,2.45,2,1,4.17,2h0l1.91.83c1.26.53,2.57,1.07,3.93,1.59l2.51,1c3.4,1.26,7,2.47,10.84,3.61q1.42.43,2.88.84c1,.28,1.95.55,2.93.81s2,.53,3,.78l3,.74,3,.7c1.53.34,3.07.67,4.62,1,1,.21,2.06.4,3.1.59l1.55.28c1.56.27,3.11.52,4.67.75,16.65,2.47,33.05,2.55,44.42-1.8,8.61-3.33,19.34-4.36,24.8-14.58,6.57-12.49,4-70.75,1-98.19-3.81-19.77,2-32.35,3.12-65.5A385.53,385.53,0,0,0,297.55,437Z"/></g><g id="brain-2" data-name="brain"><path id="_4-2" data-name="4" class="cls-1" d="M589,344.65q0,1,0,2c0,.38,0,.75,0,1.12a1.93,1.93,0,0,1,0,.24c0,.62,0,1.24,0,1.85l0,.78c0,.55,0,1.1-.07,1.65,0,.77-.07,1.53-.11,2.29s-.11,1.76-.17,2.64l-.09,1.25c-.07.83-.14,1.64-.21,2.45-.09,1-.19,1.94-.29,2.9,0,.16,0,.32,0,.48-.1.88-.21,1.75-.32,2.62,0,.19,0,.38-.07.57-.12.9-.25,1.8-.38,2.7-.17,1.09-.34,2.18-.53,3.26-3.9,20.91-3.13,38.6-3.13,55.92,0,1.72,0,3.45,0,5.16,0,1.17,0,2.33-.06,3.5,0,.88-.05,1.76-.08,2.63s-.07,1.76-.11,2.63c0,.56,0,1.11-.09,1.67q-.06,1.25-.15,2.49c0,.86-.12,1.72-.2,2.59,0,.35-.06.71-.09,1.06s-.06.69-.1,1l-.18,1.78-.18,1.52c0,.23,0,.45-.09.68-.12,1-.26,2.05-.41,3.08-.46,3.05-1,6.14-1.74,9.27-.14.62-.29,1.24-.44,1.87s-.31,1.25-.47,1.88h0c-.17.62-.33,1.25-.51,1.88-.27,1-.56,2-.87,3-.14.47-.29.94-.44,1.42-.37,1.17-.76,2.35-1.18,3.54-.16.47-.33.95-.51,1.42s-.35.95-.53,1.43c-.36,1-.73,1.91-1.12,2.88-.48,1.34-1,2.63-1.5,3.89q-.27.7-.57,1.38c-.23.57-.47,1.12-.72,1.67s-.45,1-.69,1.54-.52,1.13-.79,1.69-.5,1.05-.76,1.57-.51,1-.77,1.54c0,.09-.09.17-.14.26-.39.76-.78,1.52-1.18,2.26-2.92,5.43-6,10.47-9.25,15.88-.37.62-.74,1.24-1.11,1.88a1.59,1.59,0,0,0-.13.22c-.68,1.15-1.36,2.32-2,3.51-.4.71-.81,1.43-1.21,2.16s-.71,1.27-1.06,1.93-.8,1.49-1.2,2.26l-.71,1.3-.53,1c-4.12,7.58-9.28,17.26-15,26.63l-1.21,1.94c-1.87,3-3.81,5.93-5.79,8.74l-.82,1.16a112.71,112.71,0,0,1-7.1,9,3,3,0,0,0-.24.26l-.08.09-.6.66-.6.64c-.58.62-1.17,1.22-1.75,1.79l-.74.72c-.25.24-.49.47-.74.69s-.47.43-.7.63c-.41.37-.83.72-1.24,1-.18.16-.37.3-.55.45s-.32.26-.49.39l-.7.53-.37.26c-.39.29-.78.55-1.17.81l-.23.15c-1.39.89-2.74,1.76-4.08,2.6-.78.5-1.55,1-2.31,1.46l-3.88,2.44c-5.44,3.39-10.58,6.56-15.75,9.86-1.2.76-2.4,1.53-3.61,2.32-5.54,3.6-11.19,7.43-17.31,11.93-.7.51-1.4,1-2.1,1.55l-1.14.86c-1.07.8-2.15,1.62-3.25,2.47l-2.59,2-2.1,1.66-2.41,1.94-2.44,2h0l-1.94,1.6-1.86,1.55c-.22.19-.46.39-.71.58-.74.59-1.58,1.19-2.51,1.79-.49.32-1,.64-1.56,1-1.35.81-2.86,1.63-4.5,2.45-.66.33-1.33.66-2,1s-1.41.66-2.14,1-1.49.66-2.26,1l-1.77.73-1.82.72-2.51,1-1.28.47q-2,.69-4,1.38c-.9.3-1.82.6-2.75.89s-1.87.58-2.82.87l-2.88.84c-1,.28-1.94.55-2.93.81s-2,.52-3,.78l-3,.74h0l-3,.7-.38.08-1.93.42-2.32.47c-1,.21-2.06.4-3.09.59l-1.56.28c-1.55.27-3.11.52-4.66.75l-.17,0c-1.71.26-3.42.49-5.12.68l-.25,0-2.2.24-.76.07c-.77.08-1.53.15-2.3.21-1.88.16-3.74.27-5.58.35l-1.93.06h-.65l-2.27,0c-8.76,0-16.78-1-23.2-3.5-8.61-3.33-19.34-4.36-24.8-14.58-6.57-12.49-4-70.75-1-98.19a71.89,71.89,0,0,0,1.19-17.3l-.06-1.28c-.09-1.46-.2-2.94-.34-4.45l-.15-1.52c-.05-.5-.11-1-.16-1.53s-.11-1-.17-1.57l0-.24c-.05-.45-.1-.9-.16-1.35a.07.07,0,0,0,0,0c-.09-.79-.18-1.59-.28-2.41-.21-1.66-.42-3.37-.63-5.16-.11-.89-.21-1.8-.32-2.73-.4-3.42-.79-7.1-1.13-11.13-.1-1.26-.2-2.55-.29-3.88-.15-2-.28-4.16-.39-6.39,0-.13,0-.25,0-.38,0-.62-.06-1.25-.08-1.88s-.06-1.54-.09-2.33-.06-1.75-.08-2.65c-.07-2.7-.11-5.53-.11-8.51,0-1.59,0-3.23,0-4.9s.06-3.42.11-5.19c.11-4.14.3-8.52.57-13.18q.17-3,.39-6.15c.05-1.36.11-2.72.17-4.1.13-2.75.26-5.53.41-8.35,0-.79.08-1.57.13-2.36l3.13,0c3.8,0,7.6-.2,11.4-.3s7.45-.38,11.17-.65c.31,0,.63,0,.94-.07a382.75,382.75,0,0,0,50.35-7q3.14-.65,6.27-1.36,16.74-3.78,33.47-9.18c4.1-1.3,8.1-2.7,12.2-4.1,6.3-2.3,12.7-4.7,19-7.3q8.79-3.68,17-8c1.27-.67,2.53-1.35,3.79-2a225.23,225.23,0,0,0,43.31-31.29c2.7-2.5,5.4-5,8.1-7.7,1.6-1.5,3.1-3.1,4.7-4.7,9.84-10.61,18-20.16,24.61-28.91.57-.75,1.13-1.5,1.67-2.24,1.38-1.85,2.68-3.67,3.92-5.45,2.4-3.5,4.6-6.8,6.6-10A139.14,139.14,0,0,0,580.76,273q1.29,6,2.41,12,.35,1.83.66,3.66c.2,1.12.39,2.24.58,3.36,0,.25.09.5.12.76.19,1.07.36,2.13.52,3.2.2,1.22.38,2.44.56,3.66q.57,3.85,1,7.7l.24,2c.1.83.2,1.66.28,2.48.12,1,.23,2,.33,3s.18,1.76.26,2.64q.42,4.47.7,8.9c.06,1,.12,2,.17,2.93,0,.54.06,1.08.07,1.61,0,.81.08,1.61.11,2.41,0,.4,0,.8,0,1.2,0,1,.07,2,.08,3C589,340,589,342.33,589,344.65Z"/><path id="_3s-2" data-name="3s" class="cls-2" d="M588.94,337.61c0-1,0-2-.08-3,0-.4,0-.8,0-1.2,0-.8-.06-1.6-.11-2.41,0-.53,0-1.07-.07-1.61,0-1-.11-1.95-.17-2.93q-.29-4.43-.7-8.9c-.08-.88-.17-1.76-.26-2.64s-.21-2-.33-3c-.08-.82-.18-1.65-.28-2.48l-.24-2q-.48-3.84-1-7.7c-.18-1.22-.36-2.44-.56-3.66-.16-1.07-.33-2.13-.52-3.2,0-.26-.08-.51-.12-.76-.19-1.12-.38-2.24-.58-3.36s-.43-2.44-.66-3.66q-1.11-6-2.41-12A139.14,139.14,0,0,1,571,291.8c-2,3.2-4.2,6.5-6.6,10-1.24,1.78-2.54,3.6-3.92,5.45-.54.74-1.1,1.49-1.67,2.24-6.64,8.75-14.77,18.3-24.61,28.91-1.6,1.6-3.1,3.2-4.7,4.7-2.7,2.7-5.4,5.2-8.1,7.7a225.23,225.23,0,0,1-43.31,31.29c-1.26.69-2.52,1.37-3.79,2q-8.22,4.31-17,8c-6.3,2.6-12.7,5-19,7.3-4.1,1.4-8.1,2.8-12.2,4.1q-16.74,5.42-33.47,9.18-3.14.72-6.27,1.36a382.75,382.75,0,0,1-50.35,7c-.31,0-.63.06-.94.07q-5.58.41-11.17.65c-3.8.1-7.6.3-11.4.3l-3.13,0c-.05.79-.09,1.57-.13,2.36-.15,2.82-.28,5.6-.41,8.35-.06,1.38-.12,2.74-.17,4.1q-.22,3.15-.39,6.15c-.27,4.66-.45,9-.57,13.18-.05,1.77-.08,3.5-.11,5.19s0,3.31,0,4.9c0,3,0,5.81.11,8.51,0,.9.05,1.78.08,2.65s.06,1.56.09,2.33.05,1.26.08,1.88c0,.13,0,.25,0,.38q.16,3.33.39,6.39c.09,1.33.19,2.62.29,3.88.34,4,.73,7.71,1.13,11.13.11.93.21,1.84.32,2.73.21,1.79.42,3.5.63,5.16.09.82.19,1.62.28,2.41a.07.07,0,0,1,0,0c0,.45.11.9.16,1.35l0,.24c.06.53.11,1,.17,1.57s.11,1,.16,1.53l.15,1.52c.14,1.51.25,3,.34,4.45l.06,1.28a71.89,71.89,0,0,1-1.19,17.3c-2.92,27.44-5.52,85.7,1,98.19,5.46,10.22,16.19,11.25,24.8,14.58,6.42,2.45,14.44,3.5,23.2,3.5l2.27,0h.65l1.93-.06c1.84-.08,3.7-.19,5.58-.35.77-.06,1.53-.13,2.3-.21l.76-.07,2.2-.24.25,0c1.7-.19,3.41-.42,5.12-.68l.17,0c1.55-.23,3.11-.48,4.66-.75l1.56-.28c1-.19,2.06-.38,3.09-.59l2.32-.47,1.93-.42.38-.08,3-.7h0l3-.74c1-.26,2-.51,3-.78s2-.53,2.93-.81l2.88-.84c.95-.29,1.89-.57,2.82-.87s1.85-.59,2.75-.89q2-.69,4-1.38l1.28-.47,2.51-1,1.82-.72,1.77-.73c.77-.32,1.53-.65,2.26-1s1.45-.65,2.14-1,1.37-.65,2-1c1.64-.82,3.15-1.64,4.5-2.45.55-.33,1.07-.65,1.56-1,.93-.6,1.77-1.2,2.51-1.79.25-.19.49-.39.71-.58l1.86-1.55,1.94-1.6h0l2.44-2,2.41-1.94,2.1-1.66,2.59-2c1.1-.85,2.18-1.67,3.25-2.47l1.14-.86c.7-.53,1.4-1,2.1-1.55,6.12-4.5,11.77-8.33,17.31-11.93,1.21-.79,2.41-1.56,3.61-2.32,5.17-3.3,10.31-6.47,15.75-9.86L503,594.3c.76-.47,1.53-1,2.31-1.46,1.34-.84,2.69-1.71,4.08-2.6l.23-.15c.39-.26.78-.52,1.17-.81l.37-.26.7-.53c.17-.13.33-.25.49-.39s.37-.29.55-.45c.41-.33.83-.68,1.24-1,.23-.2.47-.41.7-.63s.49-.45.74-.69l.74-.72c.58-.57,1.17-1.17,1.75-1.79l.6-.64.6-.66.08-.09a3,3,0,0,1,.24-.26,112.71,112.71,0,0,0,7.1-9l.82-1.16c2-2.81,3.92-5.75,5.79-8.74l1.21-1.94c5.75-9.37,10.91-19,15-26.63.18-.33.36-.64.53-1l.71-1.3c.4-.77.8-1.52,1.2-2.26s.71-1.3,1.06-1.93.81-1.45,1.21-2.16c.68-1.2,1.36-2.37,2-3.51a1.59,1.59,0,0,1,.13-.22l1.11-1.88c3.21-5.41,6.33-10.45,9.25-15.88.4-.74.79-1.5,1.18-2.26.05-.09.1-.17.14-.26.26-.51.52-1,.77-1.54s.51-1,.76-1.57.53-1.12.79-1.69.46-1,.69-1.54.49-1.1.72-1.67.39-.91.57-1.38c.52-1.26,1-2.55,1.5-3.89.39-1,.76-1.93,1.12-2.88.18-.48.36-.95.53-1.43s.35-1,.51-1.42c.42-1.19.81-2.37,1.18-3.54.15-.48.3-.95.44-1.42.31-1,.6-2,.87-3,.18-.63.34-1.26.51-1.88h0c.16-.63.32-1.26.47-1.88s.3-1.25.44-1.87c.71-3.13,1.28-6.22,1.74-9.27.15-1,.29-2.06.41-3.08,0-.23.06-.45.09-.68l.18-1.52.18-1.78c0-.34.07-.69.1-1s.07-.71.09-1.06c.08-.87.15-1.73.2-2.59s.11-1.66.15-2.49c0-.56.07-1.11.09-1.67,0-.87.08-1.75.11-2.63s.06-1.75.08-2.63c0-1.17,0-2.33.06-3.5,0-1.71,0-3.44,0-5.16,0-17.32-.77-35,3.13-55.92.19-1.08.36-2.17.53-3.26.13-.9.26-1.8.38-2.7,0-.19,0-.38.07-.57.11-.87.22-1.74.32-2.62,0-.16,0-.32,0-.48.1-1,.2-1.92.29-2.9.07-.81.14-1.62.21-2.45l.09-1.25c.06-.88.12-1.76.17-2.64s.08-1.52.11-2.29c0-.55.05-1.1.07-1.65l0-.78c0-.61,0-1.23,0-1.85a1.93,1.93,0,0,0,0-.24c0-.37,0-.74,0-1.12q0-1,0-2C589,342.33,589,340,588.94,337.61ZM384.78,517.7c5.23-11.21,1.76-29.85,6.94-44.9a35.9,35.9,0,0,1,1.49-3.71,32.13,32.13,0,0,1,1.67-3.11c7.18-13.47,22.81-20.33,36.45-18.24s12.68,11,16.9,14.32c7.4,6.62,17.75-4.65,20.86-6.91,8.59-7,19.52-3.86,21.09,4.68.7,3.84-.49,8.78-4.66,14.37s-8.26,10.13-10.3,15.73.28,13.43.36,20.12a48,48,0,0,1-9.32,32.69c-11.13,15.12-29.37,23.17-39.39,28.28-9.36,5.68-19.78,10.26-31.29,10.38s-23.09-5.33-27.4-16.44c-2.24-6.53-1.6-13.09.36-19.15,3.7-11.5,12.17-21.23,14.87-25.65a17.64,17.64,0,0,0,1.36-2.45ZM550.87,367.25c5.27,3.29,5.34,10-.89,14.51a30.41,30.41,0,0,1-8.33,4.55c-10.41,5.7-11.33,18-16.47,27L522.32,418c-7,11.57-11.29,19-15,22.84-2.69,2.82-5.08,3.7-8,2.85a6.62,6.62,0,0,1-3.47-2c-6.73-8.15,16.9-33.48,18.72-40.52,1-6.71,1.94-13.41,5-20.13,6.92-14.07,22.72-17.85,30.44-14.17A9.28,9.28,0,0,1,550.87,367.25Z"/><path id="_3-2" data-name="3" class="cls-3" d="M588.94,337.61c0-1,0-2-.08-3,0-.4,0-.8,0-1.2,0-.8-.06-1.6-.11-2.41,0-.53,0-1.07-.07-1.61,0-1-.11-1.95-.17-2.93q-.29-4.43-.7-8.9c-.08-.88-.17-1.76-.26-2.64s-.21-2-.33-3c-.08-.82-.18-1.65-.28-2.48l-.24-2q-.48-3.84-1-7.7c-.18-1.22-.36-2.44-.56-3.66-.16-1.07-.33-2.13-.52-3.2,0-.26-.08-.51-.12-.76-.19-1.12-.38-2.24-.58-3.36s-.43-2.44-.66-3.66q-1.11-6-2.41-12A139.14,139.14,0,0,1,571,291.8c-2,3.2-4.2,6.5-6.6,10-1.24,1.78-2.54,3.6-3.92,5.45-.54.74-1.1,1.49-1.67,2.24-6.64,8.75-14.77,18.3-24.61,28.91-1.6,1.6-3.1,3.2-4.7,4.7-2.7,2.7-5.4,5.2-8.1,7.7a225.23,225.23,0,0,1-43.31,31.29c-1.26.69-2.52,1.37-3.79,2q-8.22,4.31-17,8c-6.3,2.6-12.7,5-19,7.3-4.1,1.4-8.1,2.8-12.2,4.1q-16.74,5.42-33.47,9.18-3.14.72-6.27,1.36a382.75,382.75,0,0,1-50.35,7c-.31,0-.63.06-.94.07q-5.58.41-11.17.65c-3.8.1-7.6.3-11.4.3l-3.13,0c-.05.79-.09,1.57-.13,2.36-.15,2.82-.28,5.6-.41,8.35-.06,1.38-.12,2.74-.17,4.1q-.22,3.15-.39,6.15c-.27,4.66-.45,9-.57,13.18-.05,1.77-.08,3.5-.11,5.19s0,3.31,0,4.9c0,3,0,5.81.11,8.51,0,.9.05,1.78.08,2.65s.06,1.56.09,2.33.05,1.26.08,1.88c0,.13,0,.25,0,.38q.16,3.33.39,6.39c.09,1.33.19,2.62.29,3.88.34,4,.73,7.71,1.13,11.13.11.93.21,1.84.32,2.73.21,1.79.42,3.5.63,5.16.09.82.19,1.62.28,2.41a.07.07,0,0,1,0,0c0,.45.11.9.16,1.35l0,.24c.06.53.11,1,.17,1.57s.11,1,.16,1.53l.15,1.52c.14,1.51.25,3,.34,4.45l.06,1.28a71.89,71.89,0,0,1-1.19,17.3c-2.92,27.44-5.52,85.7,1,98.19,5.46,10.22,16.19,11.25,24.8,14.58,6.42,2.45,14.44,3.5,23.2,3.5l2.27,0h.65l1.93-.06c1.84-.08,3.7-.19,5.58-.35.77-.06,1.53-.13,2.3-.21l.76-.07,2.2-.24.25,0c1.7-.19,3.41-.42,5.12-.68l.17,0c1.55-.23,3.11-.48,4.66-.75l1.56-.28c1-.19,2.06-.38,3.09-.59l2.32-.47,1.93-.42.38-.08,3-.7h0l3-.74c1-.26,2-.51,3-.78s2-.53,2.93-.81l2.88-.84c.95-.29,1.89-.57,2.82-.87s1.85-.59,2.75-.89q2-.69,4-1.38l1.28-.47,2.51-1,1.82-.72,1.77-.73c.77-.32,1.53-.65,2.26-1s1.45-.65,2.14-1,1.37-.65,2-1c1.64-.82,3.15-1.64,4.5-2.45.55-.33,1.07-.65,1.56-1,.93-.6,1.77-1.2,2.51-1.79.25-.19.49-.39.71-.58l1.86-1.55,1.94-1.6h0l2.44-2,2.41-1.94,2.1-1.66,2.59-2c1.1-.85,2.18-1.67,3.25-2.47l1.14-.86c.7-.53,1.4-1,2.1-1.55,6.12-4.5,11.77-8.33,17.31-11.93,1.21-.79,2.41-1.56,3.61-2.32,5.17-3.3,10.31-6.47,15.75-9.86L503,594.3c.76-.47,1.53-1,2.31-1.46,1.34-.84,2.69-1.71,4.08-2.6l.23-.15c.39-.26.78-.52,1.17-.81l.37-.26.7-.53c.17-.13.33-.25.49-.39s.37-.29.55-.45c.41-.33.83-.68,1.24-1,.23-.2.47-.41.7-.63s.49-.45.74-.69l.74-.72c.58-.57,1.17-1.17,1.75-1.79.4-.43.8-.86,1.19-1.3h0l.08-.09a3,3,0,0,1,.24-.26c12.74-13.77,24.57-36.87,32.26-50.86,5.68-10.87,11.39-19.13,16.42-29a118,118,0,0,0,6.68-15.76c.38-1.15.75-2.29,1.1-3.43s.81-2.37,1.18-3.54c.15-.48.3-.95.44-1.42.31-1,.6-2,.87-3,.18-.63.34-1.26.51-1.88h0c.16-.63.32-1.26.47-1.88s.3-1.25.44-1.87c.71-3.13,1.28-6.22,1.74-9.27.15-1,.29-2.06.41-3.08,0-.23.06-.45.09-.68l.18-1.52.18-1.78c0-.34.07-.69.1-1s.07-.71.09-1.06c.08-.87.15-1.73.2-2.59s.11-1.66.15-2.49c0-.56.07-1.11.09-1.67,0-.87.08-1.75.11-2.63s.06-1.75.08-2.63c0-1.17,0-2.33.06-3.5,0-1.71,0-3.44,0-5.16,0-17.32-.77-35,3.13-55.92.19-1.08.36-2.17.53-3.26.13-.9.26-1.8.38-2.7,0-.19,0-.38.07-.57.11-.87.22-1.74.32-2.62,0-.16,0-.32,0-.48.1-1,.2-1.92.29-2.9.07-.81.14-1.62.21-2.45l.09-1.25c.06-.88.12-1.76.17-2.64s.08-1.52.11-2.29c0-.55.05-1.1.07-1.65l0-.78c0-.61,0-1.23,0-1.85a1.93,1.93,0,0,0,0-.24c0-.37,0-.74,0-1.12q0-1,0-2C589,342.33,589,340,588.94,337.61ZM381.79,524.68a22.83,22.83,0,0,0,3-7h0c3.32-12.54.55-30.79,6.94-44.9a32.58,32.58,0,0,1,1.92-3.65v0c7.36-13.77,23.35-20.78,37.29-18.65s13,11.28,17.31,14.66c7.57,6.77,18.16-4.76,21.35-7.08,7.68-6.27,17.2-4.59,20.58,1.77,2.22,4.19,1.76,10.42-3.7,17.75-4.23,5.75-8.17,9.83-10.25,15.55s-.16,13.11-.1,20a50.5,50.5,0,0,1-8.07,31.67c-11.19,17.21-31.07,26.51-41.78,32-9.59,5.81-20.25,10.49-32,10.61s-23.63-5.45-28-16.82c-2.93-8.56-1.05-17.17,2.34-24.71C372.8,536.32,379.43,528.52,381.79,524.68ZM553.29,368.1c5.39,3.37,5.47,10.22-.91,14.86a31.46,31.46,0,0,1-8.53,4.66c-10.25,5.6-11.51,17.46-16.28,26.53q-.27.54-.57,1.05c-8.55,14-13.55,23-17.72,27.6-3,3.35-5.57,4.43-8.73,3.51-2.9-.79-4.32-2.45-4.68-4.68-1.66-10.17,18.6-32.3,20.28-38.87,1-6.87,2-13.73,5.15-20.61,6.42-13.06,20.31-17.45,28.74-15.34A11.8,11.8,0,0,1,553.29,368.1Z"/><path id="_2s-2" data-name="2s" class="cls-4" d="M588.94,337.61c0-1,0-2-.08-3,0-.4,0-.8,0-1.2,0-.8-.06-1.6-.11-2.41,0-.53,0-1.07-.07-1.61,0-1-.11-1.95-.17-2.93q-.29-4.43-.7-8.9c-.08-.88-.17-1.76-.26-2.64s-.21-2-.33-3c-.08-.82-.18-1.65-.28-2.48l-.24-2q-.48-3.84-1-7.7c-.18-1.22-.36-2.44-.56-3.66-.16-1.07-.33-2.13-.52-3.2,0-.26-.08-.51-.12-.76-.19-1.12-.38-2.24-.58-3.36s-.43-2.44-.66-3.66q-1.11-6-2.41-12A139.14,139.14,0,0,1,571,291.8c-2,3.2-4.2,6.5-6.6,10-1.24,1.78-2.54,3.6-3.92,5.45-.54.74-1.1,1.49-1.67,2.24-6.64,8.75-14.77,18.3-24.61,28.91-1.6,1.6-3.1,3.2-4.7,4.7-2.7,2.7-5.4,5.2-8.1,7.7a225.23,225.23,0,0,1-43.31,31.29c-1.26.69-2.52,1.37-3.79,2-12,10.57-75.55,28.45-81.67,28.55q-3.14.72-6.27,1.36a382.75,382.75,0,0,1-50.35,7c-.31,0-.63.06-.94.07q-5.58.41-11.17.65c-3.8.1-7.6.3-11.4.3l-3.13,0c-.05.79-.09,1.57-.13,2.36-.15,2.82-.28,5.6-.41,8.35-.06,1.38-.12,2.74-.17,4.1q-.22,3.15-.39,6.15c-.27,4.66-.45,9-.57,13.18-.05,1.77-.08,3.5-.11,5.19s0,3.31,0,4.9c0,3,0,5.81.11,8.51,0,.9.05,1.78.08,2.65s.06,1.56.09,2.33.05,1.26.08,1.88c0,.13,0,.25,0,.38q.16,3.33.39,6.39c.09,1.33.19,2.62.29,3.88.34,4,.73,7.71,1.13,11.13.11.93.21,1.84.32,2.73.21,1.79.42,3.5.63,5.16.09.82.19,1.62.28,2.41a.07.07,0,0,1,0,0c0,.45.11.9.16,1.35l0,.24c.06.53.11,1,.17,1.57s.11,1,.16,1.53l.15,1.52c.14,1.51.25,3,.34,4.45l.06,1.28a71.89,71.89,0,0,1-1.19,17.3c-2.92,27.44-5.52,85.7,1,98.19,5.46,10.22,16.19,11.25,24.8,14.58,6.42,2.45,14.44,3.5,23.2,3.5l2.27,0h.65l1.93-.06c1.84-.08,3.7-.19,5.58-.35.77-.06,1.53-.13,2.3-.21l.76-.07,2.2-.24.25,0c1.7-.19,3.41-.42,5.12-.68l.17,0c1.55-.23,3.11-.48,4.66-.75l1.56-.28c1-.19,2.06-.38,3.09-.59l2.32-.47,1.93-.42.38-.08,3-.7h0l3-.74c1-.26,2-.51,3-.78s2-.53,2.93-.81l2.88-.84c.95-.29,1.89-.57,2.82-.87s1.85-.59,2.75-.89q2-.69,4-1.38l1.28-.47,2.51-1,1.82-.72,1.77-.73c.77-.32,1.53-.65,2.26-1s1.45-.65,2.14-1,1.37-.65,2-1c1.64-.82,3.15-1.64,4.5-2.45.55-.33,1.07-.65,1.56-1,.93-.6,1.77-1.2,2.51-1.79.25-.19.49-.39.71-.58l1.86-1.55,1.94-1.6h0l2.44-2,2.41-1.94,2.1-1.66,2.59-2c1.1-.85,2.18-1.67,3.25-2.47l1.14-.86c.7-.53,1.4-1,2.1-1.55,6.12-4.5,11.77-8.33,17.31-11.93,1.21-.79,2.41-1.56,3.61-2.32,5.17-3.3,10.31-6.47,15.75-9.86L503,594.3c.76-.47,1.53-1,2.31-1.46,1.34-.84,2.69-1.71,4.08-2.6l.23-.15c.39-.26.78-.52,1.17-.81l.37-.26.7-.53c.17-.13.33-.25.49-.39s.37-.29.55-.45c.41-.33.83-.68,1.24-1,.23-.2.47-.41.7-.63s.49-.45.74-.69l.74-.72c.58-.57,1.17-1.17,1.75-1.79l.6-.64.6-.66.08-.09a3,3,0,0,1,.24-.26,112.71,112.71,0,0,0,7.1-9l.82-1.16c2-2.81,3.92-5.75,5.79-8.74l1.21-1.94c5.75-9.37,10.91-19,15-26.63.18-.33.36-.64.53-1l.71-1.3c.4-.77.8-1.52,1.2-2.26s.71-1.3,1.06-1.93.81-1.45,1.21-2.16c.68-1.2,1.36-2.37,2-3.51a1.59,1.59,0,0,1,.13-.22l1.11-1.88c3.21-5.41,6.33-10.45,9.25-15.88.4-.74.79-1.5,1.18-2.26.05-.09.1-.17.14-.26.26-.51.52-1,.77-1.54s.51-1,.76-1.57.53-1.12.79-1.69.46-1,.69-1.54.49-1.1.72-1.67.39-.91.57-1.38c.52-1.26,1-2.55,1.5-3.89.39-1,.76-1.93,1.12-2.88.18-.48.36-.95.53-1.43s.35-1,.51-1.42c.42-1.19.81-2.37,1.18-3.54.15-.48.3-.95.44-1.42.31-1,.6-2,.87-3,.18-.63.34-1.26.51-1.88h0c.16-.63.32-1.26.47-1.88s.3-1.25.44-1.87c.71-3.13,1.28-6.22,1.74-9.27.15-1,.29-2.06.41-3.08,0-.23.06-.45.09-.68l.18-1.52.18-1.78c0-.34.07-.69.1-1s.07-.71.09-1.06c.08-.87.15-1.73.2-2.59s.11-1.66.15-2.49c0-.56.07-1.11.09-1.67,0-.87.08-1.75.11-2.63s.06-1.75.08-2.63c0-1.17,0-2.33.06-3.5,0-1.71,0-3.44,0-5.16,0-17.32-.77-35,3.13-55.92.19-1.08.36-2.17.53-3.26.13-.9.26-1.8.38-2.7,0-.19,0-.38.07-.57.11-.87.22-1.74.32-2.62,0-.16,0-.32,0-.48.1-1,.2-1.92.29-2.9.07-.81.14-1.62.21-2.45l.09-1.25c.06-.88.12-1.76.17-2.64s.08-1.52.11-2.29c0-.55.05-1.1.07-1.65l0-.78c0-.61,0-1.23,0-1.85a1.93,1.93,0,0,0,0-.24c0-.37,0-.74,0-1.12q0-1,0-2C589,342.33,589,340,588.94,337.61ZM358.39,443.15a46.48,46.48,0,0,1,8.5-10.08c34.38-29.5,95.82,5.88,121.78-24.66,4.14-5.64,5.15-10.13,7.19-15.75,4.12-7.9,9.31-14.68,13.45-21.44,12.78-20.51,29.05-26.24,39.85-24a15.35,15.35,0,0,1,9.37,5.53c9.83,11.62,4.11,25.24-3.41,37.92-4.71,7.94-10.12,15.51-12.88,22-4.08,11.24.67,26.16-4.46,37.41a46.18,46.18,0,0,1-8.19,12.48c-11.82,13.28-29.64,22.14-37.68,38.84-4.59,9.48-4.7,16-3.64,21.32s3.4,9.47,3.45,14h0c0,5.46-4.26,13.11-11.64,21.32C460.23,580.19,418.14,606.42,379,605.2c-24.2-.86-34.84-13.07-36-24.27-2.34-21.26,20.67-53.69,20.44-75-.11-10.9-8.17-20.64-10.65-31.45-.07-.31-.14-.62-.2-.93-2.36-10.33.06-21.28,5.77-30.41C358.38,443.15,358.38,443.15,358.39,443.15Z"/><path id="_2-2" data-name="2" class="cls-5" d="M588.94,337.61c0-1,0-2-.08-3,0-.4,0-.8,0-1.2,0-.8-.06-1.6-.11-2.41,0-.53,0-1.07-.07-1.61,0-1-.11-1.95-.17-2.93q-.29-4.43-.7-8.9c-.08-.88-.17-1.76-.26-2.64s-.21-2-.33-3c-.08-.82-.18-1.65-.28-2.48l-.24-2q-.48-3.84-1-7.7c-.18-1.22-.36-2.44-.56-3.66-.16-1.07-.33-2.13-.52-3.2,0-.26-.08-.51-.12-.76-.19-1.12-.38-2.24-.58-3.36s-.43-2.44-.66-3.66q-1.11-6-2.41-12A139.14,139.14,0,0,1,571,291.8c-2,3.2-4.2,6.5-6.6,10-1.24,1.78-2.54,3.6-3.92,5.45-.54.74-1.1,1.49-1.67,2.24-6.64,8.75-14.77,18.3-24.61,28.91-1.6,1.6-3.1,3.2-4.7,4.7-2.7,2.7-5.4,5.2-8.1,7.7a225.23,225.23,0,0,1-43.31,31.29c-12.27,12-30.53,23-67.89,29.79-7.64,1.44-16,2.89-23.84,2.16a382.75,382.75,0,0,1-50.35,7c-.31,0-.63.06-.94.07q-5.58.41-11.17.65c-3.8.1-7.6.3-11.4.3l-3.13,0c-.05.79-.09,1.57-.13,2.36-.15,2.82-.28,5.6-.41,8.35-.06,1.38-.12,2.74-.17,4.1q-.22,3.15-.39,6.15c-.27,4.66-.45,9-.57,13.18-.05,1.77-.08,3.5-.11,5.19s0,3.31,0,4.9c0,3,0,5.81.11,8.51,0,.9.05,1.78.08,2.65s.06,1.56.09,2.33.05,1.26.08,1.88c0,.13,0,.25,0,.38q.16,3.33.39,6.39c.09,1.33.19,2.62.29,3.88.34,4,.73,7.71,1.13,11.13.11.93.21,1.84.32,2.73.21,1.79.42,3.5.63,5.16.09.82.19,1.62.28,2.41a.07.07,0,0,1,0,0c0,.45.11.9.16,1.35l0,.24c.06.53.11,1,.17,1.57s.11,1,.16,1.53l.15,1.52c.14,1.51.25,3,.34,4.45l.06,1.28a71.89,71.89,0,0,1-1.19,17.3c-2.92,27.44-5.52,85.7,1,98.19,5.46,10.22,16.19,11.25,24.8,14.58,6.42,2.45,14.44,3.5,23.2,3.5l2.27,0h.65l1.93-.06c1.84-.08,3.7-.19,5.58-.35.77-.06,1.53-.13,2.3-.21l.76-.07,2.2-.24.25,0c1.7-.19,3.41-.42,5.12-.68l.17,0c1.55-.23,3.11-.48,4.66-.75l1.56-.28c1-.19,2.06-.38,3.09-.59l2.32-.47,1.93-.42.38-.08,3-.7h0l3-.74c1-.26,2-.51,3-.78s2-.53,2.93-.81l2.88-.84c.95-.29,1.89-.57,2.82-.87s1.85-.59,2.75-.89q2-.69,4-1.38l1.28-.47,2.51-1,1.82-.72,1.77-.73c.77-.32,1.53-.65,2.26-1s1.45-.65,2.14-1,1.37-.65,2-1c1.64-.82,3.15-1.64,4.5-2.45.55-.33,1.07-.65,1.56-1,.93-.6,1.77-1.2,2.51-1.79.25-.19.49-.39.71-.58l1.86-1.55,1.94-1.6h0l2.44-2,2.41-1.94,2.1-1.66,2.59-2c1.1-.85,2.18-1.67,3.25-2.47l1.14-.86c.7-.53,1.4-1,2.1-1.55,6.12-4.5,11.77-8.33,17.31-11.93,1.21-.79,2.41-1.56,3.61-2.32,5.17-3.3,10.31-6.47,15.75-9.86L503,594.3c.76-.47,1.53-1,2.31-1.46,1.34-.84,2.69-1.71,4.08-2.6l.23-.15c.39-.26.78-.52,1.17-.81l.37-.26.7-.53c.17-.13.33-.25.49-.39s.37-.29.55-.45c.41-.33.83-.68,1.24-1,.23-.2.47-.41.7-.63s.49-.45.74-.69l.74-.72c.58-.57,1.17-1.17,1.75-1.79.4-.43.8-.86,1.19-1.3h0l.08-.09a3,3,0,0,1,.24-.26c12.74-13.77,24.57-36.87,32.26-50.86,5.68-10.87,11.39-19.13,16.42-29a118,118,0,0,0,6.68-15.76c.38-1.15.75-2.29,1.1-3.43s.81-2.37,1.18-3.54c.15-.48.3-.95.44-1.42.31-1,.6-2,.87-3,.18-.63.34-1.26.51-1.88h0c.16-.63.32-1.26.47-1.88s.3-1.25.44-1.87c.71-3.13,1.28-6.22,1.74-9.27.15-1,.29-2.06.41-3.08,0-.23.06-.45.09-.68l.18-1.52.18-1.78c0-.34.07-.69.1-1s.07-.71.09-1.06c.08-.87.15-1.73.2-2.59s.11-1.66.15-2.49c0-.56.07-1.11.09-1.67,0-.87.08-1.75.11-2.63s.06-1.75.08-2.63c0-1.17,0-2.33.06-3.5,0-1.71,0-3.44,0-5.16,0-17.32-.77-35,3.13-55.92.19-1.08.36-2.17.53-3.26.13-.9.26-1.8.38-2.7,0-.19,0-.38.07-.57.11-.87.22-1.74.32-2.62,0-.16,0-.32,0-.48.1-1,.2-1.92.29-2.9.07-.81.14-1.62.21-2.45l.09-1.25c.06-.88.12-1.76.17-2.64s.08-1.52.11-2.29c0-.55.05-1.1.07-1.65l0-.78c0-.61,0-1.23,0-1.85a1.93,1.93,0,0,0,0-.24c0-.37,0-.74,0-1.12q0-1,0-2C589,342.33,589,340,588.94,337.61ZM358.38,443.16s0,0,0,0a46.92,46.92,0,0,1,7.13-8c35-30.07,97.47,5.84,123.92-25.27,4.23-5.76,5.25-10.34,7.33-16.07,4.21-8,9.49-14.95,13.7-21.84,12.29-19.72,27.74-26,38.69-24.76,5,.58,9.08,2.75,11.47,5.95,8.2,9.69,5.76,20.73.38,31.51-5.3,10.62-13.45,21-17.08,29.53-4.15,11.45.59,26.58-4.65,38a46.83,46.83,0,0,1-7.83,12.15c-12,13.86-30.54,23-38.84,40.23-3.84,7.94-4.69,13.58-4.34,18.09.44,5.67,2.78,9.56,3.45,14h0a15.35,15.35,0,0,1,.18,2.16c.06,5.26-3.81,12.61-10.51,20.61-19.46,23.25-62.87,52-103.54,50.71-24.66-.88-35.51-13.33-36.7-24.73-2.38-21.67,21.1-54.39,20.87-76.08-.12-11.42-8.79-21.6-11.06-33-.13-.56-.24-1.13-.34-1.69C348.67,463.83,351.82,452.41,358.38,443.16Z"/><path id="_1s-2" data-name="1s" class="cls-6" d="M588.94,337.61c0-1,0-2-.08-3,0-.4,0-.8,0-1.2,0-.8-.06-1.6-.11-2.41,0-.53,0-1.07-.07-1.61,0-1-.11-1.95-.17-2.93q-.29-4.43-.7-8.9c-.08-.88-.17-1.76-.26-2.64s-.21-2-.33-3c-.08-.82-.18-1.65-.28-2.48l-.24-2q-.48-3.84-1-7.7c-.18-1.22-.36-2.44-.56-3.66-.16-1.07-.33-2.13-.52-3.2,0-.26-.08-.51-.12-.76-.19-1.12-.38-2.24-.58-3.36s-.43-2.44-.66-3.66q-1.11-6-2.41-12A139.14,139.14,0,0,1,571,291.8c-2,3.2-4.2,6.5-6.6,10-1.24,1.78-2.54,3.6-3.92,5.45-.54.74-1.1,1.49-1.67,2.24,7.36,20.21,8.66,45.29,6.62,70.44-3,37.05-13.3,74.25-22.19,96.25-.45,1.12-.9,2.2-1.34,3.24-18.31,45.09-30.81,69.43-51.95,89.52-13.08,12.43-29.48,23.23-52.61,36.3-10.43,5.71-29.15,12-40.66,14.33-34.54,8.19-70.32,6.5-65.46-29.34,3-17.92,8.47-60.09,11.42-78,2-11.3-2.42-23.75-6.92-36-4.41-12.07-8.9-24-7.45-34.54.81-6.61,3.95-13.54,7.74-20.56-.31,0-.63.06-.94.07q-5.58.41-11.17.65c-3.8.1-7.6.3-11.4.3l-3.13,0c-.05.79-.09,1.57-.13,2.36-.15,2.82-.28,5.6-.41,8.35-.06,1.38-.12,2.74-.17,4.1q-.22,3.15-.39,6.15c-.27,4.66-.45,9-.57,13.18-.05,1.77-.08,3.5-.11,5.19s0,3.31,0,4.9c0,3,0,5.81.11,8.51,0,.9.05,1.78.08,2.65s.06,1.56.09,2.33.05,1.26.08,1.88c0,.13,0,.25,0,.38q.16,3.33.39,6.39c.09,1.33.19,2.62.29,3.88.34,4,.73,7.71,1.13,11.13.11.93.21,1.84.32,2.73.21,1.79.42,3.5.63,5.16.09.82.19,1.62.28,2.41a.07.07,0,0,1,0,0c0,.45.11.9.16,1.35l0,.24c.06.53.11,1,.17,1.57s.11,1,.16,1.53l.15,1.52c.14,1.51.25,3,.34,4.45l.06,1.28a71.89,71.89,0,0,1-1.19,17.3c-2.92,27.44-5.52,85.7,1,98.19,5.46,10.22,16.19,11.25,24.8,14.58,6.42,2.45,14.44,3.5,23.2,3.5l2.27,0h.65l1.93-.06c1.84-.08,3.7-.19,5.58-.35.77-.06,1.53-.13,2.3-.21l.76-.07,2.2-.24.25,0c1.7-.19,3.41-.42,5.12-.68l.17,0c1.55-.23,3.11-.48,4.66-.75l1.56-.28c1-.19,2.06-.38,3.09-.59l2.32-.47,1.93-.42.38-.08,3-.7h0l3-.74c1-.26,2-.51,3-.78s2-.53,2.93-.81l2.88-.84c.95-.29,1.89-.57,2.82-.87s1.85-.59,2.75-.89q2-.69,4-1.38l1.28-.47,2.51-1,1.82-.72,1.77-.73c.77-.32,1.53-.65,2.26-1s1.45-.65,2.14-1,1.37-.65,2-1c1.64-.82,3.15-1.64,4.5-2.45.55-.33,1.07-.65,1.56-1,.93-.6,1.77-1.2,2.51-1.79.25-.19.49-.39.71-.58l1.86-1.55,1.94-1.6h0l2.44-2,2.41-1.94,2.1-1.66,2.59-2c1.1-.85,2.18-1.67,3.25-2.47l1.14-.86c.7-.53,1.4-1,2.1-1.55,6.12-4.5,11.77-8.33,17.31-11.93,1.21-.79,2.41-1.56,3.61-2.32,5.17-3.3,10.31-6.47,15.75-9.86L503,594.3c.76-.47,1.53-1,2.31-1.46,1.34-.84,2.69-1.71,4.08-2.6l.23-.15c.39-.26.78-.52,1.17-.81l.37-.26.7-.53c.17-.13.33-.25.49-.39s.37-.29.55-.45c.41-.33.83-.68,1.24-1,.23-.2.47-.41.7-.63s.49-.45.74-.69l.74-.72c.58-.57,1.17-1.17,1.75-1.79l.6-.64.6-.66.08-.09a3,3,0,0,1,.24-.26,112.71,112.71,0,0,0,7.1-9l.82-1.16c2-2.81,3.92-5.75,5.79-8.74l1.21-1.94c5.75-9.37,10.91-19,15-26.63.18-.33.36-.64.53-1l.71-1.3c.4-.77.8-1.52,1.2-2.26s.71-1.3,1.06-1.93.81-1.45,1.21-2.16c.68-1.2,1.36-2.37,2-3.51a1.59,1.59,0,0,1,.13-.22l1.11-1.88c3.21-5.41,6.33-10.45,9.25-15.88.4-.74.79-1.5,1.18-2.26.05-.09.1-.17.14-.26.26-.51.52-1,.77-1.54s.51-1,.76-1.57.53-1.12.79-1.69.46-1,.69-1.54.49-1.1.72-1.67.39-.91.57-1.38c.52-1.26,1-2.55,1.5-3.89.39-1,.76-1.93,1.12-2.88.18-.48.36-.95.53-1.43s.35-1,.51-1.42c.42-1.19.81-2.37,1.18-3.54.15-.48.3-.95.44-1.42.31-1,.6-2,.87-3,.18-.63.34-1.26.51-1.88h0c.16-.63.32-1.26.47-1.88s.3-1.25.44-1.87c.71-3.13,1.28-6.22,1.74-9.27.15-1,.29-2.06.41-3.08,0-.23.06-.45.09-.68l.18-1.52.18-1.78c0-.34.07-.69.1-1s.07-.71.09-1.06c.08-.87.15-1.73.2-2.59s.11-1.66.15-2.49c0-.56.07-1.11.09-1.67,0-.87.08-1.75.11-2.63s.06-1.75.08-2.63c0-1.17,0-2.33.06-3.5,0-1.71,0-3.44,0-5.16,0-17.32-.77-35,3.13-55.92.19-1.08.36-2.17.53-3.26.13-.9.26-1.8.38-2.7,0-.19,0-.38.07-.57.11-.87.22-1.74.32-2.62,0-.16,0-.32,0-.48.1-1,.2-1.92.29-2.9.07-.81.14-1.62.21-2.45l.09-1.25c.06-.88.12-1.76.17-2.64s.08-1.52.11-2.29c0-.55.05-1.1.07-1.65l0-.78c0-.61,0-1.23,0-1.85a1.93,1.93,0,0,0,0-.24c0-.37,0-.74,0-1.12q0-1,0-2C589,342.33,589,340,588.94,337.61Z"/><path id="_1-2" data-name="1" class="cls-7" d="M588.94,337.61c0-1,0-2-.08-3,0-.4,0-.8,0-1.2,0-.8-.06-1.6-.11-2.41,0-.53,0-1.07-.07-1.61,0-1-.11-1.95-.17-2.93q-.29-4.43-.7-8.9c-.08-.88-.17-1.76-.26-2.64s-.21-2-.33-3c-.08-.82-.18-1.65-.28-2.48l-.24-2q-.48-3.84-1-7.7c-.18-1.22-.36-2.44-.56-3.66-.16-1.07-.33-2.13-.52-3.2,0-.26-.08-.51-.12-.76-.19-1.12-.38-2.24-.58-3.36s-.43-2.44-.66-3.66q-1.11-6-2.41-12A139.14,139.14,0,0,1,571,291.8c-2,3.2-4.2,6.5-6.6,10-1.24,1.78-2.54,3.6-3.92,5.45,7.7,19.84,9.4,44.54,7.67,69.57-2.64,38.68-13.43,78.12-22.78,101.51-.57,1.44-1.14,2.82-1.7,4.14-18.12,44.6-30.66,69.29-51,89.41-13.69,13.52-30.91,25-55.73,39-10.65,5.82-29.57,12.2-41.33,14.61-35.27,8.37-71.43,6.08-66.46-30.51,3-18.3,8.67-60.85,11.69-79.15,2.19-12.39-3.12-26.05-8-39.43-4.12-11.33-7.91-22.46-6.54-32.42.91-7.33,4.56-15,8.8-22.83q-5.58.41-11.17.65c-3.8.1-7.6.3-11.4.3l-3.13,0c-.05.79-.09,1.57-.13,2.36q-.23,4.23-.41,8.35c-.06,1.38-.12,2.74-.17,4.1q-.22,3.15-.39,6.15c-.27,4.66-.45,9-.57,13.18-.05,1.77-.08,3.5-.11,5.19s0,3.31,0,4.9c0,3,0,5.81.11,8.51,0,.9.05,1.78.08,2.65s.06,1.56.09,2.33.05,1.26.08,1.88c0,.13,0,.25,0,.38q.16,3.33.39,6.39c.09,1.33.19,2.62.29,3.88.34,4,.73,7.71,1.13,11.13.11.93.21,1.84.32,2.73.21,1.79.42,3.5.63,5.16.09.82.19,1.62.28,2.41a.07.07,0,0,1,0,0c0,.45.11.9.16,1.35l0,.24c.06.53.11,1,.17,1.57s.11,1,.16,1.53l.15,1.52c.14,1.51.25,3,.34,4.45l.06,1.28a71.89,71.89,0,0,1-1.19,17.3c-2.92,27.44-5.52,85.7,1,98.19,5.46,10.22,16.19,11.25,24.8,14.58,6.42,2.45,14.44,3.5,23.2,3.5l2.27,0h.65l1.93-.06c1.84-.08,3.7-.19,5.58-.35.77-.06,1.53-.13,2.3-.21l.76-.07,2.2-.24.25,0c1.7-.19,3.41-.42,5.12-.68l.17,0c1.55-.23,3.11-.48,4.66-.75l1.56-.28c1-.19,2.06-.38,3.09-.59l2.32-.47,1.93-.42.38-.08,3-.7h0l3-.74c1-.26,2-.51,3-.78s2-.53,2.93-.81l2.88-.84c.95-.29,1.89-.57,2.82-.87s1.85-.59,2.75-.89q2-.69,4-1.38l1.28-.47,2.51-1,1.82-.72,1.77-.73c.77-.32,1.53-.65,2.26-1s1.45-.65,2.14-1,1.37-.65,2-1c1.64-.82,3.15-1.64,4.5-2.45.55-.33,1.07-.65,1.56-1,.93-.6,1.77-1.2,2.51-1.79.25-.19.49-.39.71-.58l1.86-1.55,1.94-1.6h0l2.44-2,2.41-1.94,2.1-1.66,2.59-2c1.1-.85,2.18-1.67,3.25-2.47l1.14-.86c.7-.53,1.4-1,2.1-1.55,6.12-4.5,11.77-8.33,17.31-11.93,1.21-.79,2.41-1.56,3.61-2.32,5.17-3.3,10.31-6.47,15.75-9.86L503,594.3c.76-.47,1.53-1,2.31-1.46,1.34-.84,2.69-1.71,4.08-2.6l.23-.15c.39-.26.78-.52,1.17-.81l.37-.26.7-.53c.17-.13.33-.25.49-.39s.37-.29.55-.45c.41-.33.83-.68,1.24-1,.23-.2.47-.41.7-.63s.49-.45.74-.69l.74-.72c.58-.57,1.17-1.17,1.75-1.79l.6-.64.6-.66.08-.09a3,3,0,0,1,.24-.26,112.71,112.71,0,0,0,7.1-9l.82-1.16c2-2.81,3.92-5.75,5.79-8.74l1.21-1.94c5.75-9.37,10.91-19,15-26.63.18-.33.36-.64.53-1l.71-1.3c.4-.77.8-1.52,1.2-2.26s.71-1.3,1.06-1.93.81-1.45,1.21-2.16c.68-1.2,1.36-2.37,2-3.51a1.59,1.59,0,0,1,.13-.22l1.11-1.88c3.21-5.41,6.33-10.45,9.25-15.88.4-.74.79-1.5,1.18-2.26.05-.09.1-.17.14-.26.26-.51.52-1,.77-1.54s.51-1,.76-1.57.53-1.12.79-1.69.46-1,.69-1.54.49-1.1.72-1.67.39-.91.57-1.38c.52-1.26,1-2.55,1.5-3.89.39-1,.76-1.93,1.12-2.88.18-.48.36-.95.53-1.43s.35-1,.51-1.42c.42-1.19.81-2.37,1.18-3.54.15-.48.3-.95.44-1.42.31-1,.6-2,.87-3,.18-.63.34-1.26.51-1.88h0c.16-.63.32-1.26.47-1.88s.3-1.25.44-1.87c.71-3.13,1.28-6.22,1.74-9.27.15-1,.29-2.06.41-3.08,0-.23.06-.45.09-.68l.18-1.52.18-1.78c0-.34.07-.69.1-1s.07-.71.09-1.06c.08-.87.15-1.73.2-2.59s.11-1.66.15-2.49c0-.56.07-1.11.09-1.67,0-.87.08-1.75.11-2.63s.06-1.75.08-2.63c0-1.17,0-2.33.06-3.5,0-1.71,0-3.44,0-5.16,0-17.32-.77-35,3.13-55.92.19-1.08.36-2.17.53-3.26.13-.9.26-1.8.38-2.7,0-.19,0-.38.07-.57.11-.87.22-1.74.32-2.62,0-.16,0-.32,0-.48.1-1,.2-1.92.29-2.9.07-.81.14-1.62.21-2.45l.09-1.25c.06-.88.12-1.76.17-2.64s.08-1.52.11-2.29c0-.55.05-1.1.07-1.65l0-.78c0-.61,0-1.23,0-1.85a1.93,1.93,0,0,0,0-.24c0-.37,0-.74,0-1.12q0-1,0-2C589,342.33,589,340,588.94,337.61Z"/></g></g><g id="Magnifying_glass" data-name="Magnifying glass"><path class="cls-8" d="M14.91,229.53a86.48,86.48,0,0,1,12.87-14.87V241.6L53.1,267.74s-34,10.74-45.76,59.17C-.8,300.43-.55,276.86,2.67,260,5.37,246,9.13,238.83,14.91,229.53Z"/><path class="cls-8" d="M599.85,324.2c-11.74-48.43-46.18-56.89-46.18-56.89L578.18,242V206.06C610.18,233.26,614.28,278.34,599.85,324.2Z"/><path class="cls-9" d="M623.58,601.3c-11.7,19.7-38.3,37.1-61.4,31.4-10.5-2.5-22.2-8.7-29.6-17.3q-11.67-12.55-23.23-25.16-8.4-9.16-16.75-18.36-1.35-1.47-2.67-2.94c-2.86-3.13-5.7-6.28-8.54-9.42-.44-.48-.88-1-1.31-1.45q-6-6.65-12-13.32l-1.8-2q-29.67-33-59.08-66c-4.18-4.92-8.59-7.08-13.53-7.57l-.44,0a34.43,34.43,0,0,0-9.53.81q-15.56,2.82-30.87,4.6l-2.19.24q-7.49.86-14.92,1.44l-2.91.22q-12.59.92-25.06,1.13-4.64.09-9.27.08-12.63,0-25.21-.8l-2.92-.18q-7.44-.5-14.88-1.24l-2.23-.23q-20.07-2.1-40.22-6l-.5-.09q-14.66-2.87-29.42-6.66-10-2.61-19.54-5.82c-.55-.17-1.09-.36-1.64-.54a303.09,303.09,0,0,1-51.32-22.92l-2.82-1.61Q94.53,423.88,82.06,415q-2.36-1.65-4.68-3.38-13.9-10.25-27-22c-1.73-1.56-3.46-3.14-5.17-4.73q-2.22-2.07-4.41-4.18h0l-2.7-2.6L38,377.9a116.34,116.34,0,0,1-20.65-27.35C-7.29,306.05-7.19,244.85,27.48,214.9c-1.3,22.53-5.34,38.66-1.72,56.56h0a78.08,78.08,0,0,0,8,21.63,111.1,111.1,0,0,0,6.3,10.4c1.43,2.11,3,4.27,4.64,6.5.55.75,1.13,1.5,1.72,2.27A290.23,290.23,0,0,0,68.78,337.6c2.2,2.3,4.4,4.5,6.6,6.7,2.7,2.6,5.4,5.2,8.1,7.6A234.62,234.62,0,0,0,132.42,386q2.45,1.29,4.93,2.52a259.16,259.16,0,0,0,30.33,12.58c4.6,1.6,9.3,3.1,14.1,4.4,8.4,2.4,17,4.5,25.9,6.3l4.13.83q3.87.75,7.72,1.45A507.56,507.56,0,0,0,270,420.56l.94.08c3.69.28,7.38.55,11.06.75s7.59.45,11.39.55c1.16,0,2.32.08,3.47.1,4.18.09,8.33.14,12.51.1l3.13,0c3.8,0,7.59-.28,11.39-.38s7.46-.3,11.18-.57c.31,0,.63,0,.94-.07a382.75,382.75,0,0,0,50.35-7q3.14-.65,6.27-1.36,16.74-3.78,33.47-9.18c4.1-1.3,8.1-2.7,12.2-4.1,6.3-2.3,12.7-4.7,19-7.3q8.79-3.68,17-8c1.27-.67,2.53-1.35,3.79-2a225.23,225.23,0,0,0,43.31-31.29c2.7-2.5,5.4-5,8.1-7.7,1.6-1.5,3.1-3.1,4.7-4.7,9.84-10.61,18-20.16,24.61-28.91.57-.75,1.13-1.5,1.67-2.24,1.38-1.85,2.68-3.67,3.92-5.45,2.4-3.5,4.6-6.8,6.6-10A139.14,139.14,0,0,0,580.76,273h0c12.46-30,.65-42.89-1.37-65.89,28.39,18.27,45.89,78,9.55,140.67a191.43,191.43,0,0,1-20.81,29c-.89,1-1.8,2.07-2.72,3.11-1.43,1.59-2.89,3.18-4.4,4.76q-2.85,3-5.89,6a266.31,266.31,0,0,1-27.55,23.47c-1.71,1.28-3.47,2.56-5.25,3.83q-10.29,7.33-22,14.42c-.86.51,2.33,3.68,7,8.42.63.63,1.29,1.29,2,2,.17.16.33.33.5.5q10,9.51,19.81,19.28l1.86,1.84q5.89,5.85,11.77,11.76l2.13,2.15c7.54,7.57,15.08,15.17,22.7,22.73a1.53,1.53,0,0,0,.18.18c9.83,9.76,19.79,19.46,30.08,29C629.29,555.82,638,578.6,623.58,601.3Z"/><path class="cls-10" d="M551.43,544c-36.4-33.4-73.5-80.4-109.3-112.6-2.5-1.9-7.4-2.5-11.1-1.2-32.7,9.3-58.6,12.3-92,22.2,18.5,1.2,37.5-.8,56.8-1.2,12.4-.3,22,1.5,29,8.7,28.4,28.5,59.9,71.1,89.5,99,4.4,4.4,9,6.8,14.8,3.1C538.53,555.05,540.33,553.25,551.43,544Z"/><ellipse class="cls-10" cx="587.4" cy="595.33" rx="41.36" ry="26.53" transform="translate(-239.09 467.37) rotate(-36.58)"/></g><g id="Upper_Brain_-Left" data-name="Upper Brain -Left"><path id="BG-1" class="cls-10" d="M295.48,116.2l-14.5,15,14.2,14.7v45l-16.3,16.9,16.3,16.9v61.6L278.08,304l17.1,17.7v51.9L275,394.5l20.2,20.9V422c-3.74-.1-7.47-.29-11.21-.49h-.19a534.72,534.72,0,0,1-76.11-9.69c-8.9-1.8-17.5-3.9-25.9-6.3-4.8-1.3-9.5-2.8-14.1-4.4-31.1-10.7-58.8-26.3-84.2-49.2-2.7-2.4-5.4-5-8.1-7.6-2.2-2.2-4.4-4.4-6.6-6.7-12.8-13.1-22-24.2-28.7-34.1l-.16-.24a110.86,110.86,0,0,1-6.14-10.16l-.14-.26L55.48,270.2l-27.7-28.6V189.2l23.8-24.6V95.3l31.3-32.4h17.6l38.3-39.6h54.8L216.08,0h40.6l38.7,38h.1Z"/><path class="cls-11" d="M295.38,38,256.68,0h-40.6l-22.5,23.3h-54.8l-38.3,39.6H82.88L51.58,95.3v69.3l-23.8,24.6v52.4l27.7,28.6-21.9,22.7a111.1,111.1,0,0,0,6.3,10.4l23.7-24.5L84,299.9h38l30.3-31.3h69.6l13.2-13.7a14,14,0,0,0,4.7.8,13.07,13.07,0,0,0,9.6-4,14.52,14.52,0,0,0,0-19.8,13.46,13.46,0,0,0-19.1,0,14,14,0,0,0-3.1,14.7l-9.8,10.2h-69.9l-30.3,31.3H88.48L39.08,237V193.9l56.4-58.3a14,14,0,0,0,4.7.8,13.07,13.07,0,0,0,9.6-4,14.52,14.52,0,0,0,0-19.8,13.28,13.28,0,0,0-19.1,0,14.07,14.07,0,0,0-3.9,9.9,16.09,16.09,0,0,0,.8,4.8L62.78,153V100.3l24.8-25.7h45.8c2.3,4.8,7,8.3,12.4,8.3,7.5,0,13.7-6.4,13.7-14.2s-6.2-14.2-13.7-14.2a13.83,13.83,0,0,0-12.4,8.3h-16.9L143.68,35h38.8l-9.8,10.2V94.4L145,123v30h-23.8l-30,31v30a14.62,14.62,0,0,0-8,12.8c0,7.8,6.2,14.2,13.7,14.2s13.7-6.4,13.7-14.2a13.93,13.93,0,0,0-8-12.8V188.8l23.3-24.1H145V188l27.9,29.7a14.64,14.64,0,0,0-.8,4.8,13.9,13.9,0,0,0,3.9,9.9,12.91,12.91,0,0,0,9.6,4,13.07,13.07,0,0,0,9.6-4,14.52,14.52,0,0,0,0-19.8,12.82,12.82,0,0,0-14.2-3.2l-24.8-25.7V128.3l26.1-27,33.6-34.8h13.6a19.44,19.44,0,0,0,2.8,4,13.07,13.07,0,0,0,9.6,4c7.5,0,13.7-6.4,13.7-14.2s-6.2-14.2-13.7-14.2a13.83,13.83,0,0,0-12.4,8.3h-18.3l-27.4,28.4V49.9l37-38.5h31.3l32.3,31.3v68.8L271.28,123l-16-16.6h-32.2l-24.1,25a14.06,14.06,0,0,0-14.2,3.2,14.52,14.52,0,0,0,0,19.8,13.52,13.52,0,0,0,19.2,0,14.07,14.07,0,0,0,3.9-9.9,13.44,13.44,0,0,0-.8-4.8l20.7-21.4h22.7l33.8,32.9v35.1L269.08,200l-18.6-19.3h-17.1c-2.3-4.8-7-8.3-12.4-8.3-7.5,0-13.7,6.4-13.7,14.2s6.2,14.2,13.7,14.2a13.51,13.51,0,0,0,12.4-8.3h12.4l37.9,37.7v51.4l-28.6,27.6h-23.5c-2.3-4.8-7-8.3-12.4-8.3-7.5,0-13.7,6.4-13.7,14.2s6.2,14.2,13.7,14.2a13.83,13.83,0,0,0,12.4-8.3h28.2l8.3-8.6,15.7,14.2v42L265,386l-27.2-28.1h-24.3L177.78,321l-.5-8.6a13.63,13.63,0,0,0,7.8-12.6c0-7.8-6.2-14.2-13.7-14.2s-13.7,6.4-13.7,14.2a14.27,14.27,0,0,0,8,12.8v12.6l12.9,13.4,30.3,31.3h24.3l50.6,50.3v1.29c3.8.2,7.6.4,11.4.5V415.4L275,394.5l20.2-20.9V321.7L278.08,304l17.1-17.7V224.7l-16.3-16.9,16.3-16.9v-45L281,131.2l14.5-15V38Zm-57.3,202.1a1.75,1.75,0,0,1,1.6-.8,2.75,2.75,0,0,1,1.5.8,2.42,2.42,0,0,1,0,3.5,1.69,1.69,0,0,1-1.5.8c-.5,0-1.3,0-1.6-.8A2.27,2.27,0,0,1,238.08,240.1ZM98.68,120.4a1.69,1.69,0,0,1,1.5-.8,3.12,3.12,0,0,1,1.5.8,2.42,2.42,0,0,1,0,3.5,1.69,1.69,0,0,1-1.5.8,1.58,1.58,0,0,1-1.5-1.1,1.75,1.75,0,0,1-.8-1.6A2.85,2.85,0,0,1,98.68,120.4Zm47-54a2.4,2.4,0,1,1-2.3,2.4A2.29,2.29,0,0,1,145.68,66.4ZM96.58,229.1a2.4,2.4,0,1,1,2.3-2.4A2.35,2.35,0,0,1,96.58,229.1ZM184,220a1.75,1.75,0,0,1,1.6-.8,2.75,2.75,0,0,1,1.5.8,2.42,2.42,0,0,1,0,3.5,1.69,1.69,0,0,1-1.5.8,3.33,3.33,0,0,1-1.6-.8,1.75,1.75,0,0,1-.8-1.6A2.52,2.52,0,0,1,184,220ZM242,58.1a2.83,2.83,0,0,1,2.4,2.4,2.35,2.35,0,0,1-2.3,2.4,1.82,1.82,0,0,1-1.5-.8,2.67,2.67,0,0,1-.8-1.6A2.11,2.11,0,0,1,242,58.1Zm-46.1,88.6a1.75,1.75,0,0,1-1.6.8,3.12,3.12,0,0,1-1.5-.8,2.42,2.42,0,0,1,0-3.5,1.69,1.69,0,0,1,1.5-.8c.3,0,1,0,1.6,1.1a1.75,1.75,0,0,1,.8,1.6A3.8,3.8,0,0,1,195.88,146.7ZM221,189a2.4,2.4,0,1,1,2.3-2.4A2.35,2.35,0,0,1,221,189Zm-1.3,128.4A2.4,2.4,0,1,1,222,315,2.29,2.29,0,0,1,219.68,317.4Zm-47.8-15a2.4,2.4,0,1,1,2.3-2.4A2.29,2.29,0,0,1,171.88,302.4Z"/><path class="cls-11" d="M167.68,401.1V376.3l-36.5-37.7H96.28l-12.9,13.26c-2.7-2.5-5.4-5-8.1-7.6l16.6-17.16h44.2L179,371.5v31l2.5,3C176.78,404.23,172.28,402.6,167.68,401.1Z"/></g><g id="Upper_Brain_-right" data-name="Upper Brain -right"><path id="BG-1-2" data-name="BG-1" class="cls-10" d="M578.18,242l-27.7,28.6L571,291.8c-2,3.2-4.2,6.5-6.6,10l0,.06c-7.5,10.78-17.38,22.77-30.16,36.54-1.6,1.6-3.1,3.2-4.7,4.7-2.7,2.7-5.4,5.2-8.1,7.7-19.2,17.5-39.9,31.2-64.1,41.3-6.3,2.6-12.7,5-19,7.3-4.1,1.4-8.1,2.8-12.2,4.1-34,11-69.83,16.79-104.1,18.3h-.1c-3.77.1-7.53.3-11.3.3v-6.5l22.2-20.9-22.2-20.9V321.9l19.1-17.7-19.1-17.7V224.9l16.3-16.9-16.3-16.9v-45l14.2-14.7-14.5-15V38L349,0h40.6l22.5,23.3h54.8l38.3,39.6h17.6l31.3,32.4v69.3l23.8,24.6h.3Z"/><path class="cls-11" d="M577.88,189.2l-23.8-24.6V95.3l-31.3-32.4h-17.6l-38.3-39.6h-54.8L389.58,0H349l-38.7,38v78.4l14.5,15-14.2,14.7v45l16.3,16.9-16.3,16.9v61.6l19.1,17.7-19.1,17.7v51.9l22.2,20.9-22.2,20.9v6.6l11.4-.3v-1.4l50.6-50.3h24.3l30.3-31.3,12.9-13.4V312.9a14.09,14.09,0,0,0,8-12.8c0-7.8-6.2-14.2-13.7-14.2s-13.7,6.4-13.7,14.2a13.73,13.73,0,0,0,7.8,12.6l-.5,8.6-35.7,36.9H368l-27.2,28.1L322,368.9v-42l15.7-14.2,8.3,8.6h28.2a13.83,13.83,0,0,0,12.4,8.3c7.5,0,13.7-6.4,13.7-14.2s-6.2-14.2-13.7-14.2c-5.4,0-10.1,3.5-12.4,8.3h-23.5l-28.6-27.6V230.5l38-37.7h12.4a13.51,13.51,0,0,0,12.4,8.3c7.5,0,13.7-6.4,13.7-14.2s-6.2-14.2-13.7-14.2c-5.4,0-10.1,3.5-12.4,8.3h-17.1l-18.6,19.3-15.2-13.7V151.5l33.8-32.9h22.8l20.7,21.4a16.09,16.09,0,0,0-.8,4.8,14.07,14.07,0,0,0,3.9,9.9,12.91,12.91,0,0,0,9.6,4,13.07,13.07,0,0,0,9.6-4,14.52,14.52,0,0,0,0-19.8,14.11,14.11,0,0,0-14.2-3.2l-24-24.9h-32.1l-16,16.6-13.1-11.5V43.1l32.3-31.3h31.3l37,38.5V83.2L395,54.8h-18.4a13.83,13.83,0,0,0-12.4-8.3c-7.5,0-13.7,6.4-13.7,14.2s6.2,14.2,13.7,14.2a13.07,13.07,0,0,0,9.6-4,16.21,16.21,0,0,0,2.8-4h13.7l33.6,34.8,26.1,27v55.4l-24.8,25.7A12.82,12.82,0,0,0,411,213a14.52,14.52,0,0,0,0,19.8,12.91,12.91,0,0,0,9.6,4,13.07,13.07,0,0,0,9.6-4,14.07,14.07,0,0,0,3.9-9.9,12.42,12.42,0,0,0-.8-4.8l27.9-29.7V165.1h19.1l23.3,24.1v25.2a13.88,13.88,0,0,0-8,12.8c0,7.8,6.2,14.2,13.7,14.2S523,235,523,227.2a14.62,14.62,0,0,0-8-12.8v-30l-30-31h-24.3v-30L433,94.8V45.6l-9.8-10.2H462l27.2,27.8h-16.8A13.83,13.83,0,0,0,460,54.9c-7.5,0-13.7,6.4-13.7,14.2s6.2,14.2,13.7,14.2c5.4,0,10.1-3.5,12.4-8.3h45.8L543,100.7v52.7l-24.8-25.7a16.09,16.09,0,0,0,.8-4.8,13.9,13.9,0,0,0-3.9-9.9,13.28,13.28,0,0,0-19.1,0,14.52,14.52,0,0,0,0,19.8,12.91,12.91,0,0,0,9.6,4,14,14,0,0,0,4.7-.8l56.4,58.3v43.1l-49.4,51.1h-28.7l-30.3-31.3h-69.6l-9.8-10.2c1.8-5.1.8-11-3.1-14.7a13.46,13.46,0,0,0-19.1,0,14.52,14.52,0,0,0,0,19.8,12.91,12.91,0,0,0,9.6,4,14,14,0,0,0,4.7-.8l13.2,13.7h69.6l30.3,31.3h38l20.4-21.1,22,22.8c2.4-3.5,4.6-6.8,6.6-10.1l-20.6-21.3,27.7-28.6V189.2ZM433.78,297.6a2.4,2.4,0,1,1-2.3,2.4A2.35,2.35,0,0,1,433.78,297.6Zm-47.9,15a2.4,2.4,0,1,1-2.3,2.4A2.42,2.42,0,0,1,385.88,312.6Zm-1.2-128.5a2.4,2.4,0,1,1-2.3,2.4A2.35,2.35,0,0,1,384.68,184.1Zm25-40.6a1.75,1.75,0,0,1,3.1-.3,2.42,2.42,0,0,1,0,3.5,3.12,3.12,0,0,1-1.5.8,1.93,1.93,0,0,1-1.6-.8,3,3,0,0,1-.8-1.6A2.39,2.39,0,0,1,409.68,143.5Zm-44.4-81.4a2.23,2.23,0,0,1-1.6.8,2.35,2.35,0,0,1-2.3-2.4,2.23,2.23,0,0,1,.8-1.6,2.19,2.19,0,0,1,1.5-.8,2.35,2.35,0,0,1,2.3,2.4A2.66,2.66,0,0,1,365.28,62.1Zm56.3,161.4a3,3,0,0,1-1.6.8,1.83,1.83,0,0,1-1.6-.8,2.42,2.42,0,0,1,0-3.5,3,3,0,0,1,1.6-.8,1.93,1.93,0,0,1,1.6.8,2.52,2.52,0,0,1,.8,1.9A1.93,1.93,0,0,1,421.58,223.5Zm87.5.8a2.4,2.4,0,1,1-2.3,2.4A2.35,2.35,0,0,1,509.08,224.3ZM459.88,71.2a2.4,2.4,0,1,1,2.3-2.4A2.29,2.29,0,0,1,459.88,71.2ZM507,123.6a1.61,1.61,0,0,1-1.6,1.1,1.83,1.83,0,0,1-1.6-.8,2.42,2.42,0,0,1,0-3.5,3,3,0,0,1,1.6-.8,1.93,1.93,0,0,1,1.6.8,3,3,0,0,1,.8,1.6A1.75,1.75,0,0,1,507,123.6Zm-139.4,120c-.2.8-1,.8-1.6.8a1.83,1.83,0,0,1-1.6-.8,2.42,2.42,0,0,1,0-3.5,3,3,0,0,1,1.6-.8,1.83,1.83,0,0,1,1.6.8A2.42,2.42,0,0,1,367.58,243.6Z"/><path class="cls-11" d="M529.48,343.1c-2.66,2.67-5.41,5.21-8.1,7.7l-11.8-12.2h-34.9l-36.5,37.7v23.11c-4,1.4-8.1,2.8-12.2,4.1l.8-1v-31l42.9-44.4h44.2Z"/></g></g></g></g></svg>