<?xml version="1.0" standalone="no"?>
<!DOCTYPE svg PUBLIC "-//W3C//DTD SVG 20010904//EN"
 "http://www.w3.org/TR/2001/REC-SVG-20010904/DTD/svg10.dtd">
<svg version="1.0" xmlns="http://www.w3.org/2000/svg"
 width="2049.000000pt" height="2049.000000pt" viewBox="0 0 2049.000000 2049.000000"
 preserveAspectRatio="xMidYMid meet">
<metadata>
Created by potrace 1.14, written by Peter Selinger 2001-2017
</metadata>
<g transform="translate(0.000000,2049.000000) scale(0.100000,-0.100000)"
fill="#000000" stroke="none">
<path d="M7031 20440 c-41 -41 -331 -341 -567 -588 l-89 -92 -850 0 -851 0
-209 -217 c-116 -119 -241 -249 -280 -288 -60 -62 -282 -291 -610 -631 l-90
-93 -273 0 -273 0 -147 -152 c-81 -83 -172 -178 -202 -209 -30 -31 -150 -156
-267 -276 -116 -120 -243 -252 -282 -293 l-71 -74 0 -1076 -1 -1076 -147 -151
c-81 -83 -247 -254 -369 -380 l-222 -229 -1 -402 c0 -245 -4 -403 -9 -403 -10
0 -165 -150 -216 -210 -44 -51 -77 -92 -100 -124 -11 -15 -28 -37 -38 -48 -9
-12 -17 -25 -17 -29 0 -4 -6 -14 -13 -21 -39 -39 -169 -279 -221 -408 -15 -36
-31 -74 -36 -85 -30 -65 -118 -355 -134 -444 -3 -14 -7 -38 -10 -54 -3 -15
-10 -53 -16 -85 -5 -31 -12 -73 -15 -92 -9 -46 -18 -137 -30 -285 -11 -133 -5
-498 10 -615 2 -19 7 -64 10 -100 8 -82 53 -362 67 -415 5 -22 12 -50 14 -61
10 -53 68 -268 101 -368 57 -178 159 -429 243 -598 l78 -157 7 -134 c3 -74 8
-147 10 -163 2 -16 6 -60 9 -99 4 -38 9 -81 11 -95 2 -14 7 -45 10 -70 3 -25
17 -110 30 -190 23 -134 27 -165 40 -260 18 -128 22 -174 41 -420 3 -41 7
-309 9 -595 4 -504 12 -903 19 -975 2 -19 7 -69 11 -110 15 -179 33 -301 71
-490 50 -248 121 -466 284 -870 46 -114 168 -343 307 -580 167 -283 240 -412
343 -605 23 -44 53 -98 65 -120 12 -22 42 -76 66 -120 23 -44 62 -113 86 -153
24 -41 43 -76 43 -78 0 -19 327 -556 342 -562 4 -2 8 -10 8 -18 0 -8 5 -14 10
-14 6 0 10 -5 10 -10 0 -6 37 -61 82 -123 224 -308 381 -472 576 -600 208
-137 272 -177 282 -177 6 0 10 -4 10 -9 0 -5 6 -11 13 -13 10 -3 473 -289 502
-310 12 -9 431 -288 454 -303 9 -5 18 -13 21 -16 3 -3 28 -21 55 -39 28 -19
55 -38 60 -42 6 -5 28 -22 50 -38 22 -16 45 -33 50 -37 85 -64 238 -182 305
-236 115 -92 102 -82 220 -178 137 -111 188 -143 350 -222 358 -174 808 -321
1260 -411 14 -2 50 -10 80 -16 30 -6 66 -13 80 -15 14 -2 61 -11 105 -19 86
-16 127 -22 218 -31 32 -4 67 -8 78 -10 136 -26 727 -26 829 0 8 2 31 6 50 9
48 7 156 33 210 50 64 21 132 45 155 55 11 5 80 27 152 50 304 95 482 232 555
425 22 57 54 195 62 271 4 28 8 68 11 90 37 279 42 1204 10 1710 -2 33 -7 107
-10 165 -3 58 -7 125 -9 150 -3 25 -7 88 -11 140 -6 97 -13 183 -20 255 -2 22
-7 74 -11 115 -4 41 -8 80 -9 85 -1 6 -5 33 -9 60 -4 28 -10 61 -12 75 -11 66
-18 188 -18 315 0 157 8 259 39 515 3 25 8 68 11 95 3 28 7 61 9 75 2 14 6 52
10 85 3 33 8 71 10 85 2 14 6 57 9 95 4 39 8 88 11 110 14 119 30 374 34 520
l1 30 130 -1 c72 -1 132 -3 134 -5 2 -2 7 -65 11 -139 3 -74 8 -151 10 -170 2
-19 6 -78 10 -130 3 -52 8 -113 10 -135 3 -22 7 -62 10 -90 6 -53 11 -97 20
-180 3 -27 8 -68 10 -90 3 -22 14 -113 25 -202 28 -225 34 -306 34 -473 0
-151 -10 -287 -28 -377 -7 -34 -13 -87 -21 -173 -3 -36 -8 -81 -10 -100 -2
-19 -7 -78 -10 -130 -4 -52 -8 -115 -10 -140 -5 -57 -12 -161 -20 -315 -4 -66
-8 -142 -10 -170 -24 -321 -24 -1249 0 -1515 2 -25 7 -74 10 -110 3 -36 7 -75
9 -87 3 -11 8 -43 12 -70 3 -26 8 -57 10 -68 2 -11 6 -31 9 -45 11 -62 57
-175 92 -227 53 -81 143 -166 223 -213 38 -22 72 -40 77 -40 4 0 22 -7 38 -16
36 -19 515 -179 582 -195 248 -57 611 -70 941 -34 23 3 61 7 85 10 23 2 67 7
97 10 30 4 114 17 185 30 72 13 144 26 160 29 38 7 57 11 120 26 28 6 61 14
75 16 81 16 427 111 555 152 398 130 764 305 906 434 20 18 78 67 128 108 51
41 102 83 114 94 44 37 317 248 398 306 241 174 520 357 963 633 11 7 100 63
198 125 99 61 184 112 189 112 5 0 9 3 9 8 0 4 14 15 31 25 l31 17 41 -47 c23
-25 53 -58 67 -73 42 -46 212 -230 270 -294 30 -33 87 -94 125 -136 39 -41 93
-100 120 -130 219 -241 362 -357 580 -470 322 -168 655 -230 945 -176 14 3 36
7 50 10 378 67 847 358 1145 712 86 102 89 106 131 171 199 306 265 488 267
743 1 146 -4 192 -38 318 -52 194 -178 429 -335 626 -136 170 -364 400 -551
556 -113 95 -425 390 -767 725 l-235 231 27 53 c119 234 253 614 331 936 18
77 36 157 39 178 3 20 9 54 12 75 3 20 7 47 9 58 2 12 7 48 10 80 4 33 9 68
11 79 2 11 6 52 10 90 3 39 7 84 9 100 9 68 17 484 20 1015 2 311 6 588 9 615
2 28 8 92 11 144 4 52 8 104 10 115 2 12 6 48 10 81 7 66 38 278 49 332 3 11
8 43 12 70 3 26 8 55 10 65 9 52 27 197 39 313 4 38 14 206 19 325 2 45 12 72
54 147 52 92 192 375 192 386 0 4 11 30 24 59 82 179 184 484 242 718 2 8 10
43 18 76 16 64 54 274 61 334 4 32 8 64 20 160 17 131 23 476 11 620 -9 106
-17 191 -21 220 -49 324 -117 577 -217 810 -166 383 -372 649 -672 869 l-46
33 0 262 0 261 -163 166 c-258 264 -571 589 -578 601 -4 6 -8 480 -8 1052 0
573 0 1055 -1 1072 0 34 19 12 -344 388 -116 120 -245 254 -286 296 -41 43
-135 139 -208 215 l-133 136 -272 0 -272 0 -94 97 c-52 53 -183 189 -292 302
-109 113 -242 250 -296 306 -54 55 -190 196 -302 312 l-205 212 -851 0 -850 0
-175 181 c-96 100 -201 209 -234 243 -32 34 -111 115 -175 181 l-116 120 -629
0 -629 -1 -151 -148 c-83 -82 -340 -334 -571 -561 -231 -227 -433 -425 -450
-441 l-29 -27 -1 -1218 0 -1218 94 -98 c51 -54 148 -154 215 -223 67 -69 125
-131 129 -137 5 -8 -5 -26 -25 -46 -18 -18 -116 -120 -218 -226 l-185 -192 0
-697 -1 -697 66 -69 c36 -39 111 -117 167 -175 55 -58 140 -146 187 -196 l86
-89 -78 -81 c-104 -106 -339 -349 -388 -402 l-39 -41 0 -957 0 -957 55 -50
c30 -28 82 -76 116 -107 33 -31 106 -99 163 -151 57 -52 137 -127 179 -167
l77 -72 -52 -48 c-28 -27 -97 -91 -154 -143 -56 -52 -116 -108 -134 -125 -18
-16 -81 -76 -141 -131 l-109 -102 0 -806 0 -807 60 -56 c33 -30 121 -113 195
-183 221 -208 288 -271 363 -342 l72 -66 -22 -19 c-17 -15 -185 -172 -313
-293 -15 -14 -91 -86 -170 -160 -78 -74 -152 -144 -164 -155 -19 -18 -21 -31
-21 -120 l0 -100 -232 1 c-128 0 -236 3 -239 7 -3 3 -6 49 -6 102 l0 97 -42
42 c-376 391 -498 517 -533 552 -24 23 -43 46 -43 51 0 5 30 40 66 79 179 187
511 529 530 546 l22 20 0 808 1 809 -76 78 c-185 192 -350 362 -400 414 l-55
57 118 122 c66 68 148 153 184 190 36 37 102 105 147 151 l81 85 0 956 0 956
-61 65 c-34 35 -145 151 -247 256 -102 106 -187 196 -188 202 -2 5 38 53 90
106 128 131 217 224 320 330 l86 91 0 699 0 700 -116 119 c-63 65 -163 167
-220 227 -58 59 -102 110 -98 115 4 4 105 108 224 231 l217 224 0 1213 1 1214
-22 22 c-11 13 -202 201 -423 418 -222 217 -472 463 -556 545 -84 83 -165 161
-179 174 l-26 25 -626 0 -626 1 -47 -45z m10737 -8342 c85 -42 315 -184 332
-206 3 -4 34 -31 70 -61 99 -83 97 -72 44 -170 -68 -126 -125 -221 -133 -221
-4 0 -93 88 -197 196 -104 108 -244 253 -311 323 l-122 126 51 52 51 52 56
-21 c31 -11 102 -43 159 -70z m-15715 34 l37 -38 -22 -20 c-13 -12 -113 -114
-223 -229 -110 -114 -253 -262 -317 -329 l-117 -121 -55 117 c-31 64 -58 127
-61 140 -6 23 16 50 144 168 16 14 105 87 126 102 5 4 24 18 40 31 107 82 349
212 400 216 6 1 28 -16 48 -37z"/>
</g>
</svg>
