<?xml version="1.0" encoding="utf-8"?>
<!-- Generator: Adobe Illustrator 18.1.1, SVG Export Plug-In . SVG Version: 6.00 Build 0)  -->
<!DOCTYPE svg PUBLIC "-//W3C//DTD SVG 1.1//EN" "http://www.w3.org/Graphics/SVG/1.1/DTD/svg11.dtd">
<svg version="1.1" id="Layer_1" xmlns="http://www.w3.org/2000/svg" xmlns:xlink="http://www.w3.org/1999/xlink" x="0px" y="0px"
	 viewBox="0 0 3303.3 1356.1" enable-background="new 0 0 3303.3 1356.1" xml:space="preserve">
<g>
	<polygon fill="#939598" points="78.2,68.8 325.3,1084.5 362.2,1084.5 115.1,68.8 	"/>
	<polygon fill="#939598" points="987.1,1084.5 1021.5,1084.5 1130.1,468.3 1095.8,468.3 	"/>
	<polygon fill="#939598" points="1451,1084.5 1485.4,1084.5 1594,468.3 1559.7,468.3 	"/>
	<polygon fill="#939598" points="1842.6,834.5 1824.8,935.5 1908.7,1280.1 1948.7,1280.1 	"/>
	<polygon fill="#939598" points="559.6,619.7 569.5,660.2 573.1,660.2 773.4,242.8 740.5,242.8 	"/>
	<polygon fill="#939598" points="2056.8,242.2 2013.9,242.2 1923.6,377.3 1909,459.8 1911.2,459.8 	"/>
</g>
<g>
	<polygon fill="#064F8C" points="810.3,242.8 558.9,766.5 389.2,68.8 143.2,68.8 390.2,1084.3 406.4,1084.3 636.3,1084.3 
		652.4,1084.3 1056.3,242.8 	"/>
	<polygon fill="#064F8C" points="2338.1,242.2 2092.1,242.2 1892.6,540.3 1863.7,540.3 1916.1,242.8 1727,242.8 1633.5,437.7 
		1519.3,1085.4 1767.5,1085.4 1826.7,750 1854.4,750 1983.3,1280.1 2229.4,1280.1 2074.1,636.9 	"/>
	<polygon fill="#064F8C" points="1689.1,242.8 1094.3,242.8 1000.3,438.6 1169.5,438.6 1055.6,1084.3 1276.7,1084.3 1390.6,438.6 
		1595.1,438.6 	"/>
</g>
<polygon fill="#064F8C" points="2976.5,527.2 2828.1,697.8 2826.8,697.8 2782.8,527.1 2455.8,527.1 2361.9,722.9 2531.1,722.9 
	2467.3,1084.5 2688.4,1084.5 2724.7,878.6 2772.7,1045.5 2812.5,1045.5 2916.7,872.8 2880.1,1084.5 3101.2,1084.5 3197.6,527.2 "/>
<polygon fill="#939598" points="2418,527.6 2275.1,527.6 2184,527.6 2105.4,636.7 2125.9,721.9 2324.8,721.9 "/>
<polygon fill="#939598" points="2455.7,752.7 2397.1,1084.5 2431.5,1084.5 2490,752.7 "/>
<polygon fill="#939598" points="2887.1,527.1 2827.4,592.5 2839.8,641.2 2842,641.2 2936.1,527.1 "/>
</svg>
